<?xml version="1.0" encoding="UTF-8"?>
<svg width="127.63mm" height="27.837mm" version="1.1" viewBox="0 0 127.63446 27.837189" xmlns="http://www.w3.org/2000/svg">
	<defs>
		<filter id="a" x="-.011681" y="-.053882" width="1.0234" height="1.1078" color-interpolation-filters="sRGB">
			<feGaussianBlur stdDeviation="0.10687168"/>
		</filter>
	</defs>
	<g transform="translate(452.86 42.871)">
		<rect x="-452.86" y="-42.871" width="127.63" height="27.837" fill="none"/>
		<g transform="matrix(4.0081 0 0 4.0081 -211.01 -224.26)" fill="#fff" filter="url(#a)" stroke="#fff">
			<g style="font-feature-settings:normal;font-variant-caps:normal;font-variant-ligatures:normal;font-variant-numeric:normal" aria-label="libwebsockets.org">
				<path d="m-52.015 48.429q0 0.12497 0.03213 0.17852 0.0357 0.05356 0.0964 0.05356 0.07498 0 0.17495-0.03927l0.02499 0.20709q-0.04642 0.02856-0.13211 0.04642-0.08212 0.01785-0.14996 0.01785-0.13568 0-0.22137-0.08212-0.08212-0.08569-0.08212-0.29635v-2.1601h0.25707z"/>
				<path d="m-51.417 47.068h0.25707v1.7852h-0.25707zm-0.04642-0.54271q0-0.08569 0.04642-0.13925 0.04999-0.05356 0.12854-0.05356 0.07855 0 0.12854 0.05356 0.05356 0.04999 0.05356 0.13925 0 0.08569-0.05356 0.13568-0.04999 0.04642-0.12854 0.04642-0.07855 0-0.12854-0.04999-0.04642-0.04999-0.04642-0.13211z"/>
				<path d="m-50.686 46.354h0.25707v0.84976h0.01071q0.14639-0.17852 0.38918-0.17852 0.27492 0 0.4106 0.2178 0.13925 0.2178 0.13925 0.6891 0 0.48201-0.18566 0.71766-0.18209 0.23565-0.51771 0.23565-0.16424 0-0.29992-0.03571-0.13568-0.03927-0.20352-0.08926zm0.25707 2.2387q0.04999 0.02856 0.1214 0.04641 0.07498 0.01428 0.1571 0.01428 0.18566 0 0.29278-0.17495 0.11068-0.17852 0.11068-0.54628 0-0.15353-0.02142-0.27492-0.01785-0.12496-0.0607-0.21423-0.03927-0.08926-0.10711-0.13568-0.06427-0.04999-0.1571-0.04999-0.12854 0-0.21423 0.07855-0.08212 0.07498-0.1214 0.20708z"/>
				<path d="m-48.092 47.068 0.24993 0.91403 0.04284 0.29635h0.01428l0.0357-0.29992 0.16781-0.91046h0.38561l-0.43916 1.8031h-0.33562l-0.26778-0.99615-0.02856-0.22851h-0.02142l-0.02499 0.23565-0.25707 0.98901h-0.34633l-0.45702-1.8031h0.46059l0.1928 0.89618 0.03213 0.31777h0.01428l0.04642-0.32134 0.2178-0.89261z"/>
				<path d="m-45.889 48.721q-0.08926 0.07855-0.24279 0.12854-0.15353 0.04999-0.32134 0.04999-0.18566 0-0.32134-0.06427-0.13211-0.06427-0.2178-0.18566-0.08569-0.1214-0.12854-0.29278-0.03927-0.17495-0.03927-0.39632 0-0.48201 0.18923-0.71052 0.1928-0.23208 0.532-0.23208 0.11425 0 0.22137 0.0357 0.10711 0.03213 0.18923 0.11425 0.08569 0.07855 0.13568 0.21423 0.05356 0.13211 0.05356 0.33562 0 0.07855-0.01071 0.16781-0.0071 0.08926-0.02499 0.1928h-0.86762q0.0071 0.22137 0.09283 0.33919 0.08569 0.11782 0.27492 0.11782 0.11425 0 0.20709-0.0357 0.0964-0.0357 0.14639-0.07498zm-0.55699-1.3389q-0.13568 0-0.20352 0.11068-0.06784 0.10711-0.07855 0.30349h0.49272q0.01071-0.20352-0.04284-0.30706-0.05356-0.10711-0.16781-0.10711z"/>
				<path d="m-45.569 46.354h0.42488v0.82834h0.01071q0.12854-0.1571 0.36776-0.1571 0.2535 0 0.39275 0.21066 0.14282 0.21066 0.14282 0.67838 0 0.507-0.19994 0.74622-0.19994 0.23565-0.54628 0.23565-0.18923 0-0.3499-0.0357-0.1571-0.03571-0.24279-0.07855zm0.42488 2.1137q0.07498 0.03927 0.19638 0.03927 0.13568 0 0.20708-0.12854 0.07141-0.13211 0.07141-0.43916 0-0.27135-0.05713-0.39632-0.05713-0.12854-0.17852-0.12854-0.17852 0-0.23922 0.18566z"/>
				<path d="m-43.386 48.379q0-0.07498-0.04999-0.12496-0.04642-0.05356-0.1214-0.0964-0.07498-0.04642-0.16067-0.09283-0.08212-0.04641-0.1571-0.11425-0.07498-0.06784-0.12496-0.16424-0.04642-0.0964-0.04642-0.24279 0-0.24993 0.13568-0.38561 0.13568-0.13568 0.39989-0.13568 0.1571 0 0.29635 0.0357 0.13925 0.03213 0.22137 0.08212l-0.09997 0.32848q-0.06784-0.02856-0.16424-0.05356-0.0964-0.02856-0.18923-0.02856-0.17495 0-0.17495 0.14639 0 0.06784 0.04642 0.11425 0.04999 0.04284 0.12496 0.08569 0.07498 0.04284 0.1571 0.08926 0.08569 0.04642 0.16067 0.11782 0.07498 0.06784 0.1214 0.16781 0.04999 0.09997 0.04999 0.24636 0 0.24636-0.14996 0.39632-0.14996 0.14996-0.4463 0.14996-0.14639 0-0.2892-0.0357-0.13925-0.0357-0.22494-0.09283l0.11782-0.34276q0.07498 0.04285 0.17138 0.07498 0.09997 0.03213 0.20709 0.03213 0.08212 0 0.13568-0.0357 0.05356-0.03928 0.05356-0.1214z"/>
				<path d="m-42.802 47.961q0-0.47487 0.18566-0.70695 0.18566-0.23208 0.51771-0.23208 0.35704 0 0.532 0.23565 0.17495 0.23565 0.17495 0.70338 0 0.47844-0.18566 0.71052-0.18566 0.22851-0.52128 0.22851-0.70338 0-0.70338-0.93902zm0.43916 0q0 0.26778 0.0607 0.41417t0.20352 0.14639q0.13568 0 0.19994-0.12497 0.06784-0.12854 0.06784-0.43559 0-0.27492-0.0607-0.41774-0.0607-0.14282-0.20708-0.14282-0.12497 0-0.19638 0.12854-0.06784 0.12497-0.06784 0.43202z"/>
				<path d="m-40.094 48.757q-0.08926 0.07141-0.21423 0.10711-0.12496 0.0357-0.24993 0.0357-0.18209 0-0.30706-0.06427-0.1214-0.06784-0.19994-0.18923-0.07855-0.12496-0.11425-0.29635-0.03213-0.17495-0.03213-0.38918 0-0.46773 0.16781-0.70338 0.16781-0.23565 0.49272-0.23565 0.16067 0 0.26064 0.02856 0.10354 0.02856 0.18209 0.07141l-0.09997 0.35347q-0.06427-0.03213-0.12497-0.04642-0.05713-0.01785-0.13925-0.01785-0.14996 0-0.22494 0.13211-0.07498 0.12854-0.07498 0.41774 0 0.24279 0.07498 0.39632 0.07855 0.15353 0.24636 0.15353 0.08926 0 0.14996-0.02142 0.06427-0.02499 0.11782-0.0607z"/>
				<path d="m-39.374 48.114h-0.09997v0.73908h-0.42488v-2.4993h0.42488v1.4746l0.08569-0.04999 0.29635-0.71052h0.46059l-0.32848 0.70695-0.15353 0.1214 0.16781 0.1214 0.36418 0.83548h-0.47844z"/>
				<path d="m-37.256 48.721q-0.08926 0.07855-0.24279 0.12854-0.15353 0.04999-0.32134 0.04999-0.18566 0-0.32134-0.06427-0.13211-0.06427-0.2178-0.18566-0.08569-0.1214-0.12854-0.29278-0.03927-0.17495-0.03927-0.39632 0-0.48201 0.18923-0.71052 0.1928-0.23208 0.532-0.23208 0.11425 0 0.22137 0.0357 0.10711 0.03213 0.18923 0.11425 0.08569 0.07855 0.13568 0.21423 0.05356 0.13211 0.05356 0.33562 0 0.07855-0.01071 0.16781-0.0071 0.08926-0.02499 0.1928h-0.86763q0.0071 0.22137 0.09283 0.33919 0.08569 0.11782 0.27492 0.11782 0.11425 0 0.20708-0.0357 0.0964-0.0357 0.14639-0.07498zm-0.55699-1.3389q-0.13568 0-0.20352 0.11068-0.06784 0.10711-0.07855 0.30349h0.49272q0.01071-0.20352-0.04284-0.30706-0.05356-0.10711-0.16781-0.10711z"/>
				<path d="m-37.075 47.068h0.19637v-0.33562l0.42488-0.13211v0.46773h0.34633v0.37847h-0.34633v0.77836q0 0.15353 0.02856 0.2178 0.03213 0.06427 0.11068 0.06427 0.05356 0 0.0964-0.01071t0.09283-0.03213l0.05356 0.33919q-0.07855 0.03928-0.18209 0.06427-0.10354 0.02856-0.2178 0.02856-0.20352 0-0.30706-0.11782-0.09997-0.11782-0.09997-0.39632v-0.93546h-0.19637z"/>
				<path d="m-35.297 48.379q0-0.07498-0.04999-0.12496-0.04641-0.05356-0.1214-0.0964-0.07498-0.04642-0.16067-0.09283-0.08212-0.04641-0.1571-0.11425-0.07498-0.06784-0.12496-0.16424-0.04642-0.0964-0.04642-0.24279 0-0.24993 0.13568-0.38561 0.13568-0.13568 0.39989-0.13568 0.1571 0 0.29635 0.0357 0.13925 0.03213 0.22137 0.08212l-0.09997 0.32848q-0.06784-0.02856-0.16424-0.05356-0.0964-0.02856-0.18923-0.02856-0.17495 0-0.17495 0.14639 0 0.06784 0.04642 0.11425 0.04999 0.04284 0.12497 0.08569 0.07498 0.04284 0.1571 0.08926 0.08569 0.04642 0.16067 0.11782 0.07498 0.06784 0.1214 0.16781 0.04999 0.09997 0.04999 0.24636 0 0.24636-0.14996 0.39632-0.14996 0.14996-0.4463 0.14996-0.14639 0-0.2892-0.0357-0.13925-0.0357-0.22494-0.09283l0.11782-0.34276q0.07498 0.04285 0.17138 0.07498 0.09997 0.03213 0.20708 0.03213 0.08212 0 0.13568-0.0357 0.05356-0.03928 0.05356-0.1214z"/>
				<path d="m-34.662 48.693q0-0.09997 0.04642-0.14996 0.04999-0.04999 0.13211-0.04999 0.08212 0 0.12854 0.04999 0.04999 0.04999 0.04999 0.14996 0 0.10354-0.04999 0.15353-0.04642 0.04999-0.12854 0.04999-0.08212 0-0.13211-0.04999-0.04642-0.04999-0.04642-0.15353z"/>
				<path d="m-34.035 47.961q0-0.48201 0.16424-0.70695 0.16781-0.22851 0.47487-0.22851 0.32848 0 0.48201 0.23208 0.1571 0.23208 0.1571 0.70338 0 0.48558-0.16781 0.71052-0.16781 0.22494-0.4713 0.22494-0.32848 0-0.48558-0.23208-0.15353-0.23208-0.15353-0.70338zm0.26778 0q0 0.1571 0.01785 0.28564 0.02142 0.12854 0.06427 0.22137 0.04642 0.09283 0.11782 0.14639 0.07141 0.04999 0.17138 0.04999 0.18566 0 0.2785-0.16424 0.09283-0.16781 0.09283-0.53914 0-0.15353-0.02142-0.28206-0.01785-0.13211-0.06427-0.22494-0.04285-0.09283-0.11425-0.14282-0.07141-0.05356-0.17138-0.05356-0.18209 0-0.27849 0.16781-0.09283 0.16781-0.09283 0.53557z"/>
				<path d="m-32.415 47.068h0.18209l0.04642 0.18923h0.01071q0.04999-0.10354 0.12854-0.16067 0.08212-0.0607 0.19637-0.0607 0.08212 0 0.18566 0.03213l-0.04999 0.26064q-0.09283-0.03213-0.16424-0.03213-0.11426 0-0.18566 0.06784-0.07141 0.06427-0.09283 0.17495v1.3139h-0.25707z"/>
				<path d="m-30.314 48.936q0 0.34633-0.15353 0.51057-0.15353 0.16424-0.4463 0.16424-0.17852 0-0.29278-0.03213-0.11425-0.02856-0.18566-0.06784l0.07498-0.22137q0.07141 0.03213 0.1571 0.0607 0.08569 0.02856 0.21066 0.02856 0.2178 0 0.29635-0.1214 0.08212-0.1214 0.08212-0.40703v-0.13211h-0.01071q-0.05713 0.08212-0.14639 0.12854-0.08926 0.04641-0.22851 0.04641-0.28921 0-0.42488-0.22137-0.13568-0.22494-0.13568-0.70338 0-0.46059 0.17495-0.69624 0.17852-0.23565 0.52486-0.23565 0.16781 0 0.2892 0.03213t0.21423 0.07498zm-0.25707-1.6103q-0.10711-0.05713-0.27492-0.05713-0.18209 0-0.29278 0.16781-0.11068 0.16424-0.11068 0.52842 0 0.14996 0.01785 0.27849 0.01785 0.12497 0.0607 0.22137 0.04285 0.09283 0.10711 0.14639 0.06784 0.04999 0.16424 0.04999 0.13568 0 0.21423-0.07141t0.11425-0.21423z"/>
			</g>
			<g style="font-feature-settings:normal;font-variant-caps:normal;font-variant-ligatures:normal;font-variant-numeric:normal" aria-label="lightweight, portable C library">
				<path d="m-49.147 50.56q0 0.05637 0.01449 0.08052 0.0161 0.02416 0.04348 0.02416 0.03382 0 0.07891-0.01772l0.01127 0.09341q-0.02094 0.01288-0.05959 0.02094-0.03704 0.0081-0.06764 0.0081-0.0612 0-0.09985-0.03704-0.03704-0.03865-0.03704-0.13367v-0.97434h0.11595z"/>
				<path d="m-48.878 49.946h0.11596v0.80524h-0.11596zm-0.02094-0.24479q0-0.03865 0.02094-0.06281 0.02255-0.02416 0.05798-0.02416t0.05798 0.02416q0.02416 0.02255 0.02416 0.06281 0 0.03865-0.02416 0.0612-0.02255 0.02094-0.05798 0.02094t-0.05798-0.02255q-0.02094-0.02255-0.02094-0.05959z"/>
				<path d="m-48.041 50.789q0 0.15622-0.06925 0.2303-0.06925 0.07408-0.20131 0.07408-0.08052 0-0.13206-0.0145-0.05153-0.01288-0.08374-0.0306l0.03382-0.09985q0.03221 0.01449 0.07086 0.02738 0.03865 0.01288 0.09502 0.01288 0.09824 0 0.13367-0.05476 0.03704-0.05476 0.03704-0.18359v-0.05959h-0.0048q-0.02577 0.03704-0.06603 0.05798t-0.10307 0.02094q-0.13045 0-0.19165-0.09985-0.0612-0.10146-0.0612-0.31726 0-0.20775 0.07891-0.31404 0.08052-0.10629 0.23674-0.10629 0.07569 0 0.13045 0.01449 0.05476 0.01449 0.09663 0.03382zm-0.11595-0.72632q-0.04831-0.02577-0.12401-0.02577-0.08213 0-0.13206 0.07569-0.04992 0.07408-0.04992 0.23835 0 0.06764 0.0081 0.12562 0.0081 0.05637 0.02738 0.09985 0.01933 0.04187 0.04831 0.06603 0.0306 0.02255 0.07408 0.02255 0.0612 0 0.09663-0.03221t0.05154-0.09663z"/>
				<path d="m-47.441 50.752v-0.48958q0-0.11273-0.02738-0.17071-0.02577-0.05959-0.10468-0.05959-0.05637 0-0.10307 0.04026-0.04509 0.04026-0.0612 0.10146v0.57816h-0.11595v-1.1273h0.11595v0.39779h0.0048q0.03221-0.04187 0.07891-0.06764 0.04832-0.02738 0.11918-0.02738 0.05315 0 0.0918 0.0145 0.04026 0.01449 0.06603 0.04992t0.03865 0.09502q0.01288 0.05798 0.01288 0.14494v0.52018z"/>
				<path d="m-47.226 49.946h0.09824v-0.15944l0.11595-0.03704v0.19648h0.17393v0.10468h-0.17393v0.47992q0 0.07086 0.01611 0.10307 0.01772 0.0306 0.05637 0.0306 0.03221 0 0.05476-0.0064 0.02416-0.0081 0.05154-0.01933l0.02255 0.0918q-0.03543 0.01772-0.07891 0.02738-0.04187 0.01127-0.08858 0.01127-0.08052 0-0.11595-0.05154-0.03382-0.05315-0.03382-0.17071v-0.49603h-0.09824z"/>
				<path d="m-46.272 49.946 0.14333 0.47026 0.02899 0.15461h0.0032l0.02416-0.15783 0.10951-0.46704h0.10951l-0.21418 0.82295h-0.06603l-0.16266-0.52824-0.02255-0.13528h-0.0032l-0.02255 0.13689-0.15783 0.52662h-0.06603l-0.22064-0.82295h0.12401l0.12401 0.46865 0.01933 0.15622h0.0032l0.02899-0.15944 0.13206-0.46543z"/>
				<path d="m-45.286 50.697q-0.03865 0.03543-0.09824 0.05476t-0.12562 0.01933q-0.07569 0-0.13206-0.02899-0.05476-0.0306-0.0918-0.08535-0.03543-0.05637-0.05315-0.13367-0.01611-0.0773-0.01611-0.17393 0-0.20614 0.07569-0.31404t0.21419-0.1079q0.04509 0 0.08858 0.01127 0.04509 0.01127 0.08052 0.04509t0.05637 0.09502q0.02255 0.0612 0.02255 0.15944 0 0.02738-0.0032 0.05959-0.0016 0.0306-0.0048 0.06442h-0.40906q0 0.06925 0.01127 0.12562 0.01127 0.05637 0.03543 0.09663 0.02416 0.03865 0.0612 0.0612 0.03865 0.02094 0.09502 0.02094 0.04348 0 0.08535-0.0161 0.04348-0.01611 0.06603-0.03865zm-0.09019-0.43161q0.0032-0.12079-0.03382-0.17715-0.03704-0.05637-0.10146-0.05637-0.07408 0-0.11756 0.05637-0.04348 0.05637-0.05154 0.17715z"/>
				<path d="m-45.084 49.946h0.11595v0.80524h-0.11595zm-0.02094-0.24479q0-0.03865 0.02094-0.06281 0.02255-0.02416 0.05798-0.02416t0.05798 0.02416q0.02416 0.02255 0.02416 0.06281 0 0.03865-0.02416 0.0612-0.02255 0.02094-0.05798 0.02094t-0.05798-0.02255q-0.02094-0.02255-0.02094-0.05959z"/>
				<path d="m-44.247 50.789q0 0.15622-0.06925 0.2303-0.06925 0.07408-0.20131 0.07408-0.08052 0-0.13206-0.0145-0.05153-0.01288-0.08374-0.0306l0.03382-0.09985q0.03221 0.01449 0.07086 0.02738 0.03865 0.01288 0.09502 0.01288 0.09824 0 0.13367-0.05476 0.03704-0.05476 0.03704-0.18359v-0.05959h-0.0048q-0.02577 0.03704-0.06603 0.05798t-0.10307 0.02094q-0.13045 0-0.19165-0.09985-0.0612-0.10146-0.0612-0.31726 0-0.20775 0.07891-0.31404 0.08052-0.10629 0.23674-0.10629 0.07569 0 0.13045 0.01449 0.05476 0.01449 0.09663 0.03382zm-0.11595-0.72632q-0.04831-0.02577-0.12401-0.02577-0.08213 0-0.13206 0.07569-0.04993 0.07408-0.04993 0.23835 0 0.06764 0.0081 0.12562 0.0081 0.05637 0.02738 0.09985 0.01933 0.04187 0.04831 0.06603 0.0306 0.02255 0.07408 0.02255 0.0612 0 0.09663-0.03221t0.05154-0.09663z"/>
				<path d="m-43.647 50.752v-0.48958q0-0.11273-0.02738-0.17071-0.02577-0.05959-0.10468-0.05959-0.05637 0-0.10307 0.04026-0.04509 0.04026-0.0612 0.10146v0.57816h-0.11595v-1.1273h0.11595v0.39779h0.0048q0.03221-0.04187 0.07891-0.06764 0.04831-0.02738 0.11918-0.02738 0.05315 0 0.0918 0.0145 0.04026 0.01449 0.06603 0.04992t0.03865 0.09502q0.01288 0.05798 0.01288 0.14494v0.52018z"/>
				<path d="m-43.432 49.946h0.09824v-0.15944l0.11595-0.03704v0.19648h0.17393v0.10468h-0.17393v0.47992q0 0.07086 0.01611 0.10307 0.01771 0.0306 0.05637 0.0306 0.03221 0 0.05476-0.0064 0.02416-0.0081 0.05154-0.01933l0.02255 0.0918q-0.03543 0.01772-0.07891 0.02738-0.04187 0.01127-0.08858 0.01127-0.08052 0-0.11595-0.05154-0.03382-0.05315-0.03382-0.17071v-0.49603h-0.09824z"/>
				<path d="m-42.945 50.682q0-0.04026 0.02255-0.06442 0.02416-0.02416 0.0612-0.02416 0.04187 0 0.06764 0.03382 0.02738 0.03382 0.02738 0.10629 0 0.05315-0.01449 0.09502-0.01288 0.04348-0.03543 0.07569-0.02094 0.03221-0.0467 0.05315-0.02577 0.02094-0.04993 0.0306l-0.04026-0.05476q0.02094-0.01127 0.03865-0.0306 0.01933-0.01772 0.0306-0.04026 0.01288-0.02255 0.01933-0.04831 0.0064-0.02416 0.0064-0.04831-0.03221 0.0097-0.05959-0.01288-0.02738-0.02255-0.02738-0.07086z"/>
				<path d="m-42.373 49.946h0.08213l0.01771 0.08697h0.0064q0.05959-0.10629 0.18682-0.10629 0.12723 0 0.19004 0.09502 0.06442 0.09502 0.06442 0.31082 0 0.10146-0.02094 0.18359-0.02094 0.08052-0.05959 0.1385-0.03865 0.05637-0.09502 0.08696-0.05476 0.02899-0.1224 0.02899-0.0467 0-0.07408-0.0064-0.02738-0.0048-0.05959-0.02255v0.33176h-0.11595zm0.11595 0.67801q0.02255 0.01933 0.04992 0.0306 0.02899 0.01127 0.07569 0.01127 0.08535 0 0.13528-0.08697 0.04992-0.08696 0.04992-0.24801 0-0.06764-0.0097-0.1224-0.0081-0.05476-0.02738-0.09341-0.01933-0.04026-0.04992-0.0612-0.02899-0.02255-0.07247-0.02255-0.11756 0-0.15138 0.14333z"/>
				<path d="m-41.707 50.349q0-0.21742 0.07408-0.31887 0.07569-0.10307 0.21419-0.10307 0.14816 0 0.21741 0.10468 0.07086 0.10468 0.07086 0.31726 0 0.21902-0.07569 0.32048t-0.21258 0.10146q-0.14816 0-0.21902-0.10468-0.06925-0.10468-0.06925-0.31726zm0.12079 0q0 0.07086 0.0081 0.12884 0.0097 0.05798 0.02899 0.09985 0.02094 0.04187 0.05315 0.06603 0.03221 0.02255 0.0773 0.02255 0.08375 0 0.12562-0.07408 0.04187-0.07569 0.04187-0.24318 0-0.06925-0.0097-0.12723-0.0081-0.05959-0.02899-0.10146-0.01933-0.04187-0.05154-0.06442-0.03221-0.02416-0.0773-0.02416-0.08213 0-0.12562 0.07569-0.04187 0.07569-0.04187 0.24157z"/>
				<path d="m-40.977 49.946h0.08213l0.02094 0.08535h0.0048q0.02255-0.0467 0.05798-0.07247 0.03704-0.02738 0.08858-0.02738 0.03704 0 0.08375 0.01449l-0.02255 0.11756q-0.04187-0.01449-0.07408-0.01449-0.05154 0-0.08374 0.0306-0.03221 0.02899-0.04187 0.07891v0.59265h-0.11595z"/>
				<path d="m-40.579 49.946h0.09824v-0.15944l0.11595-0.03704v0.19648h0.17393v0.10468h-0.17393v0.47992q0 0.07086 0.01611 0.10307 0.01772 0.0306 0.05637 0.0306 0.03221 0 0.05476-0.0064 0.02416-0.0081 0.05154-0.01933l0.02255 0.0918q-0.03543 0.01772-0.07891 0.02738-0.04187 0.01127-0.08858 0.01127-0.08052 0-0.11595-0.05154-0.03382-0.05315-0.03382-0.17071v-0.49603h-0.09824z"/>
				<path d="m-40.063 49.995q0.0467-0.02899 0.11273-0.04509 0.06764-0.01611 0.14172-0.01611 0.06764 0 0.1079 0.02094 0.04187 0.01933 0.06442 0.05476 0.02416 0.03382 0.0306 0.07891 0.0081 0.04348 0.0081 0.0918 0 0.09663-0.0048 0.18842-0.0032 0.0918-0.0032 0.17393 0 0.0612 0.0032 0.11434 0.0048 0.05154 0.01611 0.09824h-0.08858l-0.02738-0.09502h-0.0064q-0.02416 0.04187-0.07086 0.07247t-0.12562 0.0306q-0.08697 0-0.14333-0.05959-0.05476-0.0612-0.05476-0.16749 0-0.06925 0.02255-0.11596 0.02416-0.0467 0.06603-0.07569 0.04348-0.02899 0.10146-0.04026 0.05959-0.01288 0.13206-0.01288 0.01611 0 0.03221 0 0.01611 0 0.03382 0.0016 0.0048-0.04993 0.0048-0.08858 0-0.0918-0.02738-0.12884-0.02738-0.03704-0.09985-0.03704-0.04509 0-0.09824 0.01449-0.05315 0.01288-0.08858 0.03382zm0.34947 0.38974q-0.0161-0.0016-0.03221-0.0016-0.01611-0.0016-0.03221-0.0016-0.03865 0-0.07569 0.0064t-0.06603 0.02255q-0.02899 0.0161-0.0467 0.04348-0.01611 0.02738-0.01611 0.06925 0 0.06442 0.0306 0.09985 0.03221 0.03543 0.08213 0.03543 0.06764 0 0.10468-0.03221 0.03704-0.03221 0.05153-0.07086z"/>
				<path d="m-39.41 49.624h0.11595v0.38329h0.0048q0.06603-0.08052 0.17554-0.08052 0.12401 0 0.1852 0.09824 0.06281 0.09824 0.06281 0.31082 0 0.21741-0.08374 0.3237-0.08214 0.10629-0.23352 0.10629-0.07408 0-0.13528-0.0161-0.0612-0.01772-0.0918-0.04026zm0.11595 1.0098q0.02255 0.01288 0.05476 0.02094 0.03382 0.0064 0.07086 0.0064 0.08375 0 0.13206-0.07891 0.04993-0.08052 0.04993-0.2464 0-0.06925-0.0097-0.12401-0.0081-0.05637-0.02738-0.09663-0.01771-0.04026-0.04831-0.0612-0.02899-0.02255-0.07086-0.02255-0.05798 0-0.09663 0.03543-0.03704 0.03382-0.05476 0.09341z"/>
				<path d="m-38.588 50.56q0 0.05637 0.01449 0.08052 0.0161 0.02416 0.04348 0.02416 0.03382 0 0.07891-0.01772l0.01127 0.09341q-0.02094 0.01288-0.05959 0.02094-0.03704 0.0081-0.06764 0.0081-0.0612 0-0.09985-0.03704-0.03704-0.03865-0.03704-0.13367v-0.97434h0.11595z"/>
				<path d="m-37.856 50.697q-0.03865 0.03543-0.09824 0.05476t-0.12562 0.01933q-0.07569 0-0.13206-0.02899-0.05476-0.0306-0.0918-0.08535-0.03543-0.05637-0.05314-0.13367-0.01611-0.0773-0.01611-0.17393 0-0.20614 0.07569-0.31404t0.21419-0.1079q0.04509 0 0.08858 0.01127 0.04509 0.01127 0.08052 0.04509t0.05637 0.09502q0.02255 0.0612 0.02255 0.15944 0 0.02738-0.0032 0.05959-0.0016 0.0306-0.0048 0.06442h-0.40906q0 0.06925 0.01127 0.12562 0.01127 0.05637 0.03543 0.09663 0.02416 0.03865 0.0612 0.0612 0.03865 0.02094 0.09502 0.02094 0.04348 0 0.08536-0.0161 0.04348-0.01611 0.06603-0.03865zm-0.09019-0.43161q0.0032-0.12079-0.03382-0.17715-0.03704-0.05637-0.10146-0.05637-0.07408 0-0.11756 0.05637-0.04348 0.05637-0.05154 0.17715z"/>
				<path d="m-36.734 50.708q-0.04026 0.03382-0.10146 0.04831t-0.12884 0.01449q-0.08535 0-0.15783-0.03221-0.07247-0.03221-0.12562-0.10146-0.05154-0.07086-0.08052-0.18198-0.02899-0.11112-0.02899-0.26734 0-0.16105 0.03221-0.27217 0.03382-0.11112 0.08858-0.18037t0.12562-0.09985q0.07247-0.0306 0.14816-0.0306 0.0773 0 0.12723 0.01127 0.05154 0.01127 0.08858 0.02738l-0.02899 0.10951q-0.03221-0.01772-0.07569-0.02738-0.04348-0.0097-0.09985-0.0097t-0.10629 0.02577q-0.04993 0.02416-0.08858 0.08052-0.03865 0.05476-0.0612 0.14494-0.02255 0.09019-0.02255 0.22064 0 0.23513 0.08052 0.3543 0.08052 0.11756 0.21419 0.11756 0.05476 0 0.09824-0.01449 0.04348-0.0161 0.07408-0.03704z"/>
				<path d="m-36.176 50.56q0 0.05637 0.01449 0.08052 0.0161 0.02416 0.04348 0.02416 0.03382 0 0.07891-0.01772l0.01127 0.09341q-0.02094 0.01288-0.05959 0.02094-0.03704 0.0081-0.06764 0.0081-0.0612 0-0.09985-0.03704-0.03704-0.03865-0.03704-0.13367v-0.97434h0.11595z"/>
				<path d="m-35.906 49.946h0.11595v0.80524h-0.11595zm-0.02094-0.24479q0-0.03865 0.02094-0.06281 0.02255-0.02416 0.05798-0.02416t0.05798 0.02416q0.02416 0.02255 0.02416 0.06281 0 0.03865-0.02416 0.0612-0.02255 0.02094-0.05798 0.02094t-0.05798-0.02255q-0.02094-0.02255-0.02094-0.05959z"/>
				<path d="m-35.576 49.624h0.11596v0.38329h0.0048q0.06603-0.08052 0.17554-0.08052 0.12401 0 0.1852 0.09824 0.06281 0.09824 0.06281 0.31082 0 0.21741-0.08375 0.3237-0.08213 0.10629-0.23352 0.10629-0.07408 0-0.13528-0.0161-0.0612-0.01772-0.0918-0.04026zm0.11596 1.0098q0.02255 0.01288 0.05476 0.02094 0.03382 0.0064 0.07086 0.0064 0.08374 0 0.13206-0.07891 0.04993-0.08052 0.04993-0.2464 0-0.06925-0.0097-0.12401-0.0081-0.05637-0.02738-0.09663-0.01771-0.04026-0.04831-0.0612-0.02899-0.02255-0.07086-0.02255-0.05798 0-0.09663 0.03543-0.03704 0.03382-0.05476 0.09341z"/>
				<path d="m-34.878 49.946h0.08213l0.02094 0.08535h0.0048q0.02255-0.0467 0.05798-0.07247 0.03704-0.02738 0.08858-0.02738 0.03704 0 0.08375 0.01449l-0.02255 0.11756q-0.04187-0.01449-0.07408-0.01449-0.05154 0-0.08374 0.0306-0.03221 0.02899-0.04187 0.07891v0.59265h-0.11595z"/>
				<path d="m-34.446 49.995q0.0467-0.02899 0.11273-0.04509 0.06764-0.01611 0.14172-0.01611 0.06764 0 0.1079 0.02094 0.04187 0.01933 0.06442 0.05476 0.02416 0.03382 0.0306 0.07891 0.0081 0.04348 0.0081 0.0918 0 0.09663-0.0048 0.18842-0.0032 0.0918-0.0032 0.17393 0 0.0612 0.0032 0.11434 0.0048 0.05154 0.01611 0.09824h-0.08858l-0.02738-0.09502h-0.0064q-0.02416 0.04187-0.07086 0.07247t-0.12562 0.0306q-0.08696 0-0.14333-0.05959-0.05476-0.0612-0.05476-0.16749 0-0.06925 0.02255-0.11596 0.02416-0.0467 0.06603-0.07569 0.04348-0.02899 0.10146-0.04026 0.05959-0.01288 0.13206-0.01288 0.0161 0 0.03221 0t0.03382 0.0016q0.0048-0.04993 0.0048-0.08858 0-0.0918-0.02738-0.12884-0.02738-0.03704-0.09985-0.03704-0.04509 0-0.09824 0.01449-0.05315 0.01288-0.08858 0.03382zm0.34947 0.38974q-0.01611-0.0016-0.03221-0.0016-0.01611-0.0016-0.03221-0.0016-0.03865 0-0.07569 0.0064t-0.06603 0.02255q-0.02899 0.0161-0.0467 0.04348-0.01611 0.02738-0.01611 0.06925 0 0.06442 0.0306 0.09985 0.03221 0.03543 0.08214 0.03543 0.06764 0 0.10468-0.03221t0.05154-0.07086z"/>
				<path d="m-33.793 49.946h0.08214l0.02094 0.08535h0.0048q0.02255-0.0467 0.05798-0.07247 0.03704-0.02738 0.08858-0.02738 0.03704 0 0.08375 0.01449l-0.02255 0.11756q-0.04187-0.01449-0.07408-0.01449-0.05154 0-0.08374 0.0306-0.03221 0.02899-0.04187 0.07891v0.59265h-0.11595z"/>
				<path d="m-33.153 50.467 0.03382 0.15622h0.0081l0.02416-0.15622 0.1224-0.52018h0.11756l-0.19165 0.7231q-0.02255 0.08696-0.04509 0.16266-0.02255 0.07569-0.04992 0.13045-0.02577 0.05637-0.05959 0.08697-0.03221 0.03221-0.0773 0.03221t-0.07891-0.01449l0.01933-0.10951q0.02255 0.0081 0.04509 0.0032 0.02255-0.0048 0.04187-0.02738 0.02094-0.02255 0.03704-0.06764 0.01772-0.04348 0.0306-0.11434l-0.2609-0.80524h0.13206z"/>
			</g>
		</g>
		<g>
			<g transform="matrix(4.0081 0 0 4.0081 -210.57 -224.31)" stroke-width=".4463" style="font-feature-settings:normal;font-variant-caps:normal;font-variant-ligatures:normal;font-variant-numeric:normal" aria-label="libwebsockets.org">
				<g stroke-width=".4463">
					<path d="m-52.015 48.429q0 0.12497 0.03213 0.17852 0.0357 0.05356 0.0964 0.05356 0.07498 0 0.17495-0.03927l0.02499 0.20709q-0.04642 0.02856-0.13211 0.04642-0.08212 0.01785-0.14996 0.01785-0.13568 0-0.22137-0.08212-0.08212-0.08569-0.08212-0.29635v-2.1601h0.25707z"/>
					<path d="m-51.417 47.068h0.25707v1.7852h-0.25707zm-0.04642-0.54271q0-0.08569 0.04642-0.13925 0.04999-0.05356 0.12854-0.05356 0.07855 0 0.12854 0.05356 0.05356 0.04999 0.05356 0.13925 0 0.08569-0.05356 0.13568-0.04999 0.04642-0.12854 0.04642-0.07855 0-0.12854-0.04999-0.04642-0.04999-0.04642-0.13211z"/>
					<path d="m-50.686 46.354h0.25707v0.84976h0.01071q0.14639-0.17852 0.38918-0.17852 0.27492 0 0.4106 0.2178 0.13925 0.2178 0.13925 0.6891 0 0.48201-0.18566 0.71766-0.18209 0.23565-0.51771 0.23565-0.16424 0-0.29992-0.03571-0.13568-0.03927-0.20352-0.08926zm0.25707 2.2387q0.04999 0.02856 0.1214 0.04641 0.07498 0.01428 0.1571 0.01428 0.18566 0 0.29278-0.17495 0.11068-0.17852 0.11068-0.54628 0-0.15353-0.02142-0.27492-0.01785-0.12496-0.0607-0.21423-0.03927-0.08926-0.10711-0.13568-0.06427-0.04999-0.1571-0.04999-0.12854 0-0.21423 0.07855-0.08212 0.07498-0.1214 0.20708z"/>
				</g>
				<path d="m-48.092 47.068 0.24993 0.91403 0.04284 0.29635h0.01428l0.0357-0.29992 0.16781-0.91046h0.38561l-0.43916 1.8031h-0.33562l-0.26778-0.99615-0.02856-0.22851h-0.02142l-0.02499 0.23565-0.25707 0.98901h-0.34633l-0.45702-1.8031h0.46059l0.1928 0.89618 0.03213 0.31777h0.01428l0.04642-0.32134 0.2178-0.89261z"/>
				<path d="m-45.889 48.721q-0.08926 0.07855-0.24279 0.12854-0.15353 0.04999-0.32134 0.04999-0.18566 0-0.32134-0.06427-0.13211-0.06427-0.2178-0.18566-0.08569-0.1214-0.12854-0.29278-0.03927-0.17495-0.03927-0.39632 0-0.48201 0.18923-0.71052 0.1928-0.23208 0.532-0.23208 0.11425 0 0.22137 0.0357 0.10711 0.03213 0.18923 0.11425 0.08569 0.07855 0.13568 0.21423 0.05356 0.13211 0.05356 0.33562 0 0.07855-0.01071 0.16781-0.0071 0.08926-0.02499 0.1928h-0.86762q0.0071 0.22137 0.09283 0.33919 0.08569 0.11782 0.27492 0.11782 0.11425 0 0.20709-0.0357 0.0964-0.0357 0.14639-0.07498zm-0.55699-1.3389q-0.13568 0-0.20352 0.11068-0.06784 0.10711-0.07855 0.30349h0.49272q0.01071-0.20352-0.04284-0.30706-0.05356-0.10711-0.16781-0.10711z"/>
				<path d="m-45.569 46.354h0.42488v0.82834h0.01071q0.12854-0.1571 0.36776-0.1571 0.2535 0 0.39275 0.21066 0.14282 0.21066 0.14282 0.67838 0 0.507-0.19994 0.74622-0.19994 0.23565-0.54628 0.23565-0.18923 0-0.3499-0.0357-0.1571-0.03571-0.24279-0.07855zm0.42488 2.1137q0.07498 0.03927 0.19638 0.03927 0.13568 0 0.20708-0.12854 0.07141-0.13211 0.07141-0.43916 0-0.27135-0.05713-0.39632-0.05713-0.12854-0.17852-0.12854-0.17852 0-0.23922 0.18566z"/>
				<path d="m-43.386 48.379q0-0.07498-0.04999-0.12496-0.04642-0.05356-0.1214-0.0964-0.07498-0.04642-0.16067-0.09283-0.08212-0.04641-0.1571-0.11425-0.07498-0.06784-0.12496-0.16424-0.04642-0.0964-0.04642-0.24279 0-0.24993 0.13568-0.38561 0.13568-0.13568 0.39989-0.13568 0.1571 0 0.29635 0.0357 0.13925 0.03213 0.22137 0.08212l-0.09997 0.32848q-0.06784-0.02856-0.16424-0.05356-0.0964-0.02856-0.18923-0.02856-0.17495 0-0.17495 0.14639 0 0.06784 0.04642 0.11425 0.04999 0.04284 0.12496 0.08569 0.07498 0.04284 0.1571 0.08926 0.08569 0.04642 0.16067 0.11782 0.07498 0.06784 0.1214 0.16781 0.04999 0.09997 0.04999 0.24636 0 0.24636-0.14996 0.39632-0.14996 0.14996-0.4463 0.14996-0.14639 0-0.2892-0.0357-0.13925-0.0357-0.22494-0.09283l0.11782-0.34276q0.07498 0.04285 0.17138 0.07498 0.09997 0.03213 0.20709 0.03213 0.08212 0 0.13568-0.0357 0.05356-0.03928 0.05356-0.1214z"/>
				<path d="m-42.802 47.961q0-0.47487 0.18566-0.70695 0.18566-0.23208 0.51771-0.23208 0.35704 0 0.532 0.23565 0.17495 0.23565 0.17495 0.70338 0 0.47844-0.18566 0.71052-0.18566 0.22851-0.52128 0.22851-0.70338 0-0.70338-0.93902zm0.43916 0q0 0.26778 0.0607 0.41417t0.20352 0.14639q0.13568 0 0.19994-0.12497 0.06784-0.12854 0.06784-0.43559 0-0.27492-0.0607-0.41774-0.0607-0.14282-0.20708-0.14282-0.12497 0-0.19638 0.12854-0.06784 0.12497-0.06784 0.43202z"/>
				<path d="m-40.094 48.757q-0.08926 0.07141-0.21423 0.10711-0.12496 0.0357-0.24993 0.0357-0.18209 0-0.30706-0.06427-0.1214-0.06784-0.19994-0.18923-0.07855-0.12496-0.11425-0.29635-0.03213-0.17495-0.03213-0.38918 0-0.46773 0.16781-0.70338 0.16781-0.23565 0.49272-0.23565 0.16067 0 0.26064 0.02856 0.10354 0.02856 0.18209 0.07141l-0.09997 0.35347q-0.06427-0.03213-0.12497-0.04642-0.05713-0.01785-0.13925-0.01785-0.14996 0-0.22494 0.13211-0.07498 0.12854-0.07498 0.41774 0 0.24279 0.07498 0.39632 0.07855 0.15353 0.24636 0.15353 0.08926 0 0.14996-0.02142 0.06427-0.02499 0.11782-0.0607z"/>
				<path d="m-39.374 48.114h-0.09997v0.73908h-0.42488v-2.4993h0.42488v1.4746l0.08569-0.04999 0.29635-0.71052h0.46059l-0.32848 0.70695-0.15353 0.1214 0.16781 0.1214 0.36418 0.83548h-0.47844z"/>
				<path d="m-37.256 48.721q-0.08926 0.07855-0.24279 0.12854-0.15353 0.04999-0.32134 0.04999-0.18566 0-0.32134-0.06427-0.13211-0.06427-0.2178-0.18566-0.08569-0.1214-0.12854-0.29278-0.03927-0.17495-0.03927-0.39632 0-0.48201 0.18923-0.71052 0.1928-0.23208 0.532-0.23208 0.11425 0 0.22137 0.0357 0.10711 0.03213 0.18923 0.11425 0.08569 0.07855 0.13568 0.21423 0.05356 0.13211 0.05356 0.33562 0 0.07855-0.01071 0.16781-0.0071 0.08926-0.02499 0.1928h-0.86763q0.0071 0.22137 0.09283 0.33919 0.08569 0.11782 0.27492 0.11782 0.11425 0 0.20708-0.0357 0.0964-0.0357 0.14639-0.07498zm-0.55699-1.3389q-0.13568 0-0.20352 0.11068-0.06784 0.10711-0.07855 0.30349h0.49272q0.01071-0.20352-0.04284-0.30706-0.05356-0.10711-0.16781-0.10711z"/>
				<path d="m-37.075 47.068h0.19637v-0.33562l0.42488-0.13211v0.46773h0.34633v0.37847h-0.34633v0.77836q0 0.15353 0.02856 0.2178 0.03213 0.06427 0.11068 0.06427 0.05356 0 0.0964-0.01071t0.09283-0.03213l0.05356 0.33919q-0.07855 0.03928-0.18209 0.06427-0.10354 0.02856-0.2178 0.02856-0.20352 0-0.30706-0.11782-0.09997-0.11782-0.09997-0.39632v-0.93546h-0.19637z"/>
				<path d="m-35.297 48.379q0-0.07498-0.04999-0.12496-0.04641-0.05356-0.1214-0.0964-0.07498-0.04642-0.16067-0.09283-0.08212-0.04641-0.1571-0.11425-0.07498-0.06784-0.12496-0.16424-0.04642-0.0964-0.04642-0.24279 0-0.24993 0.13568-0.38561 0.13568-0.13568 0.39989-0.13568 0.1571 0 0.29635 0.0357 0.13925 0.03213 0.22137 0.08212l-0.09997 0.32848q-0.06784-0.02856-0.16424-0.05356-0.0964-0.02856-0.18923-0.02856-0.17495 0-0.17495 0.14639 0 0.06784 0.04642 0.11425 0.04999 0.04284 0.12497 0.08569 0.07498 0.04284 0.1571 0.08926 0.08569 0.04642 0.16067 0.11782 0.07498 0.06784 0.1214 0.16781 0.04999 0.09997 0.04999 0.24636 0 0.24636-0.14996 0.39632-0.14996 0.14996-0.4463 0.14996-0.14639 0-0.2892-0.0357-0.13925-0.0357-0.22494-0.09283l0.11782-0.34276q0.07498 0.04285 0.17138 0.07498 0.09997 0.03213 0.20708 0.03213 0.08212 0 0.13568-0.0357 0.05356-0.03928 0.05356-0.1214z"/>
				<g stroke-width=".4463">
					<path d="m-34.662 48.693q0-0.09997 0.04642-0.14996 0.04999-0.04999 0.13211-0.04999 0.08212 0 0.12854 0.04999 0.04999 0.04999 0.04999 0.14996 0 0.10354-0.04999 0.15353-0.04642 0.04999-0.12854 0.04999-0.08212 0-0.13211-0.04999-0.04642-0.04999-0.04642-0.15353z"/>
					<path d="m-34.035 47.961q0-0.48201 0.16424-0.70695 0.16781-0.22851 0.47487-0.22851 0.32848 0 0.48201 0.23208 0.1571 0.23208 0.1571 0.70338 0 0.48558-0.16781 0.71052-0.16781 0.22494-0.4713 0.22494-0.32848 0-0.48558-0.23208-0.15353-0.23208-0.15353-0.70338zm0.26778 0q0 0.1571 0.01785 0.28564 0.02142 0.12854 0.06427 0.22137 0.04642 0.09283 0.11782 0.14639 0.07141 0.04999 0.17138 0.04999 0.18566 0 0.2785-0.16424 0.09283-0.16781 0.09283-0.53914 0-0.15353-0.02142-0.28206-0.01785-0.13211-0.06427-0.22494-0.04285-0.09283-0.11425-0.14282-0.07141-0.05356-0.17138-0.05356-0.18209 0-0.27849 0.16781-0.09283 0.16781-0.09283 0.53557z"/>
					<path d="m-32.415 47.068h0.18209l0.04642 0.18923h0.01071q0.04999-0.10354 0.12854-0.16067 0.08212-0.0607 0.19637-0.0607 0.08212 0 0.18566 0.03213l-0.04999 0.26064q-0.09283-0.03213-0.16424-0.03213-0.11426 0-0.18566 0.06784-0.07141 0.06427-0.09283 0.17495v1.3139h-0.25707z"/>
					<path d="m-30.314 48.936q0 0.34633-0.15353 0.51057-0.15353 0.16424-0.4463 0.16424-0.17852 0-0.29278-0.03213-0.11425-0.02856-0.18566-0.06784l0.07498-0.22137q0.07141 0.03213 0.1571 0.0607 0.08569 0.02856 0.21066 0.02856 0.2178 0 0.29635-0.1214 0.08212-0.1214 0.08212-0.40703v-0.13211h-0.01071q-0.05713 0.08212-0.14639 0.12854-0.08926 0.04641-0.22851 0.04641-0.28921 0-0.42488-0.22137-0.13568-0.22494-0.13568-0.70338 0-0.46059 0.17495-0.69624 0.17852-0.23565 0.52486-0.23565 0.16781 0 0.2892 0.03213t0.21423 0.07498zm-0.25707-1.6103q-0.10711-0.05713-0.27492-0.05713-0.18209 0-0.29278 0.16781-0.11068 0.16424-0.11068 0.52842 0 0.14996 0.01785 0.27849 0.01785 0.12497 0.0607 0.22137 0.04285 0.09283 0.10711 0.14639 0.06784 0.04999 0.16424 0.04999 0.13568 0 0.21423-0.07141t0.11425-0.21423z"/>
				</g>
			</g>
			<g transform="matrix(4.0081 0 0 4.0081 -210.57 -224.31)" stroke-width=".20131" style="font-feature-settings:normal;font-variant-caps:normal;font-variant-ligatures:normal;font-variant-numeric:normal" aria-label="lightweight, portable C library">
				<path d="m-49.147 50.56q0 0.05637 0.01449 0.08052 0.0161 0.02416 0.04348 0.02416 0.03382 0 0.07891-0.01772l0.01127 0.09341q-0.02094 0.01288-0.05959 0.02094-0.03704 0.0081-0.06764 0.0081-0.0612 0-0.09985-0.03704-0.03704-0.03865-0.03704-0.13367v-0.97434h0.11595z"/>
				<path d="m-48.878 49.946h0.11596v0.80524h-0.11596zm-0.02094-0.24479q0-0.03865 0.02094-0.06281 0.02255-0.02416 0.05798-0.02416t0.05798 0.02416q0.02416 0.02255 0.02416 0.06281 0 0.03865-0.02416 0.0612-0.02255 0.02094-0.05798 0.02094t-0.05798-0.02255q-0.02094-0.02255-0.02094-0.05959z"/>
				<path d="m-48.041 50.789q0 0.15622-0.06925 0.2303-0.06925 0.07408-0.20131 0.07408-0.08052 0-0.13206-0.0145-0.05153-0.01288-0.08374-0.0306l0.03382-0.09985q0.03221 0.01449 0.07086 0.02738 0.03865 0.01288 0.09502 0.01288 0.09824 0 0.13367-0.05476 0.03704-0.05476 0.03704-0.18359v-0.05959h-0.0048q-0.02577 0.03704-0.06603 0.05798t-0.10307 0.02094q-0.13045 0-0.19165-0.09985-0.0612-0.10146-0.0612-0.31726 0-0.20775 0.07891-0.31404 0.08052-0.10629 0.23674-0.10629 0.07569 0 0.13045 0.01449 0.05476 0.01449 0.09663 0.03382zm-0.11595-0.72632q-0.04831-0.02577-0.12401-0.02577-0.08213 0-0.13206 0.07569-0.04992 0.07408-0.04992 0.23835 0 0.06764 0.0081 0.12562 0.0081 0.05637 0.02738 0.09985 0.01933 0.04187 0.04831 0.06603 0.0306 0.02255 0.07408 0.02255 0.0612 0 0.09663-0.03221t0.05154-0.09663z"/>
				<path d="m-47.441 50.752v-0.48958q0-0.11273-0.02738-0.17071-0.02577-0.05959-0.10468-0.05959-0.05637 0-0.10307 0.04026-0.04509 0.04026-0.0612 0.10146v0.57816h-0.11595v-1.1273h0.11595v0.39779h0.0048q0.03221-0.04187 0.07891-0.06764 0.04832-0.02738 0.11918-0.02738 0.05315 0 0.0918 0.0145 0.04026 0.01449 0.06603 0.04992t0.03865 0.09502q0.01288 0.05798 0.01288 0.14494v0.52018z"/>
				<path d="m-47.226 49.946h0.09824v-0.15944l0.11595-0.03704v0.19648h0.17393v0.10468h-0.17393v0.47992q0 0.07086 0.01611 0.10307 0.01772 0.0306 0.05637 0.0306 0.03221 0 0.05476-0.0064 0.02416-0.0081 0.05154-0.01933l0.02255 0.0918q-0.03543 0.01772-0.07891 0.02738-0.04187 0.01127-0.08858 0.01127-0.08052 0-0.11595-0.05154-0.03382-0.05315-0.03382-0.17071v-0.49603h-0.09824z"/>
				<path d="m-46.272 49.946 0.14333 0.47026 0.02899 0.15461h0.0032l0.02416-0.15783 0.10951-0.46704h0.10951l-0.21418 0.82295h-0.06603l-0.16266-0.52824-0.02255-0.13528h-0.0032l-0.02255 0.13689-0.15783 0.52662h-0.06603l-0.22064-0.82295h0.12401l0.12401 0.46865 0.01933 0.15622h0.0032l0.02899-0.15944 0.13206-0.46543z"/>
				<path d="m-45.286 50.697q-0.03865 0.03543-0.09824 0.05476t-0.12562 0.01933q-0.07569 0-0.13206-0.02899-0.05476-0.0306-0.0918-0.08535-0.03543-0.05637-0.05315-0.13367-0.01611-0.0773-0.01611-0.17393 0-0.20614 0.07569-0.31404t0.21419-0.1079q0.04509 0 0.08858 0.01127 0.04509 0.01127 0.08052 0.04509t0.05637 0.09502q0.02255 0.0612 0.02255 0.15944 0 0.02738-0.0032 0.05959-0.0016 0.0306-0.0048 0.06442h-0.40906q0 0.06925 0.01127 0.12562 0.01127 0.05637 0.03543 0.09663 0.02416 0.03865 0.0612 0.0612 0.03865 0.02094 0.09502 0.02094 0.04348 0 0.08535-0.0161 0.04348-0.01611 0.06603-0.03865zm-0.09019-0.43161q0.0032-0.12079-0.03382-0.17715-0.03704-0.05637-0.10146-0.05637-0.07408 0-0.11756 0.05637-0.04348 0.05637-0.05154 0.17715z"/>
				<path d="m-45.084 49.946h0.11595v0.80524h-0.11595zm-0.02094-0.24479q0-0.03865 0.02094-0.06281 0.02255-0.02416 0.05798-0.02416t0.05798 0.02416q0.02416 0.02255 0.02416 0.06281 0 0.03865-0.02416 0.0612-0.02255 0.02094-0.05798 0.02094t-0.05798-0.02255q-0.02094-0.02255-0.02094-0.05959z"/>
				<path d="m-44.247 50.789q0 0.15622-0.06925 0.2303-0.06925 0.07408-0.20131 0.07408-0.08052 0-0.13206-0.0145-0.05153-0.01288-0.08374-0.0306l0.03382-0.09985q0.03221 0.01449 0.07086 0.02738 0.03865 0.01288 0.09502 0.01288 0.09824 0 0.13367-0.05476 0.03704-0.05476 0.03704-0.18359v-0.05959h-0.0048q-0.02577 0.03704-0.06603 0.05798t-0.10307 0.02094q-0.13045 0-0.19165-0.09985-0.0612-0.10146-0.0612-0.31726 0-0.20775 0.07891-0.31404 0.08052-0.10629 0.23674-0.10629 0.07569 0 0.13045 0.01449 0.05476 0.01449 0.09663 0.03382zm-0.11595-0.72632q-0.04831-0.02577-0.12401-0.02577-0.08213 0-0.13206 0.07569-0.04993 0.07408-0.04993 0.23835 0 0.06764 0.0081 0.12562 0.0081 0.05637 0.02738 0.09985 0.01933 0.04187 0.04831 0.06603 0.0306 0.02255 0.07408 0.02255 0.0612 0 0.09663-0.03221t0.05154-0.09663z"/>
				<path d="m-43.647 50.752v-0.48958q0-0.11273-0.02738-0.17071-0.02577-0.05959-0.10468-0.05959-0.05637 0-0.10307 0.04026-0.04509 0.04026-0.0612 0.10146v0.57816h-0.11595v-1.1273h0.11595v0.39779h0.0048q0.03221-0.04187 0.07891-0.06764 0.04831-0.02738 0.11918-0.02738 0.05315 0 0.0918 0.0145 0.04026 0.01449 0.06603 0.04992t0.03865 0.09502q0.01288 0.05798 0.01288 0.14494v0.52018z"/>
				<path d="m-43.432 49.946h0.09824v-0.15944l0.11595-0.03704v0.19648h0.17393v0.10468h-0.17393v0.47992q0 0.07086 0.01611 0.10307 0.01771 0.0306 0.05637 0.0306 0.03221 0 0.05476-0.0064 0.02416-0.0081 0.05154-0.01933l0.02255 0.0918q-0.03543 0.01772-0.07891 0.02738-0.04187 0.01127-0.08858 0.01127-0.08052 0-0.11595-0.05154-0.03382-0.05315-0.03382-0.17071v-0.49603h-0.09824z"/>
				<path d="m-42.945 50.682q0-0.04026 0.02255-0.06442 0.02416-0.02416 0.0612-0.02416 0.04187 0 0.06764 0.03382 0.02738 0.03382 0.02738 0.10629 0 0.05315-0.01449 0.09502-0.01288 0.04348-0.03543 0.07569-0.02094 0.03221-0.0467 0.05315-0.02577 0.02094-0.04993 0.0306l-0.04026-0.05476q0.02094-0.01127 0.03865-0.0306 0.01933-0.01772 0.0306-0.04026 0.01288-0.02255 0.01933-0.04831 0.0064-0.02416 0.0064-0.04831-0.03221 0.0097-0.05959-0.01288-0.02738-0.02255-0.02738-0.07086z"/>
				<path d="m-42.373 49.946h0.08213l0.01771 0.08697h0.0064q0.05959-0.10629 0.18682-0.10629 0.12723 0 0.19004 0.09502 0.06442 0.09502 0.06442 0.31082 0 0.10146-0.02094 0.18359-0.02094 0.08052-0.05959 0.1385-0.03865 0.05637-0.09502 0.08696-0.05476 0.02899-0.1224 0.02899-0.0467 0-0.07408-0.0064-0.02738-0.0048-0.05959-0.02255v0.33176h-0.11595zm0.11595 0.67801q0.02255 0.01933 0.04992 0.0306 0.02899 0.01127 0.07569 0.01127 0.08535 0 0.13528-0.08697 0.04992-0.08696 0.04992-0.24801 0-0.06764-0.0097-0.1224-0.0081-0.05476-0.02738-0.09341-0.01933-0.04026-0.04992-0.0612-0.02899-0.02255-0.07247-0.02255-0.11756 0-0.15138 0.14333z"/>
				<path d="m-41.707 50.349q0-0.21742 0.07408-0.31887 0.07569-0.10307 0.21419-0.10307 0.14816 0 0.21741 0.10468 0.07086 0.10468 0.07086 0.31726 0 0.21902-0.07569 0.32048t-0.21258 0.10146q-0.14816 0-0.21902-0.10468-0.06925-0.10468-0.06925-0.31726zm0.12079 0q0 0.07086 0.0081 0.12884 0.0097 0.05798 0.02899 0.09985 0.02094 0.04187 0.05315 0.06603 0.03221 0.02255 0.0773 0.02255 0.08375 0 0.12562-0.07408 0.04187-0.07569 0.04187-0.24318 0-0.06925-0.0097-0.12723-0.0081-0.05959-0.02899-0.10146-0.01933-0.04187-0.05154-0.06442-0.03221-0.02416-0.0773-0.02416-0.08213 0-0.12562 0.07569-0.04187 0.07569-0.04187 0.24157z"/>
				<path d="m-40.977 49.946h0.08213l0.02094 0.08535h0.0048q0.02255-0.0467 0.05798-0.07247 0.03704-0.02738 0.08858-0.02738 0.03704 0 0.08375 0.01449l-0.02255 0.11756q-0.04187-0.01449-0.07408-0.01449-0.05154 0-0.08374 0.0306-0.03221 0.02899-0.04187 0.07891v0.59265h-0.11595z"/>
				<path d="m-40.579 49.946h0.09824v-0.15944l0.11595-0.03704v0.19648h0.17393v0.10468h-0.17393v0.47992q0 0.07086 0.01611 0.10307 0.01772 0.0306 0.05637 0.0306 0.03221 0 0.05476-0.0064 0.02416-0.0081 0.05154-0.01933l0.02255 0.0918q-0.03543 0.01772-0.07891 0.02738-0.04187 0.01127-0.08858 0.01127-0.08052 0-0.11595-0.05154-0.03382-0.05315-0.03382-0.17071v-0.49603h-0.09824z"/>
				<path d="m-40.063 49.995q0.0467-0.02899 0.11273-0.04509 0.06764-0.01611 0.14172-0.01611 0.06764 0 0.1079 0.02094 0.04187 0.01933 0.06442 0.05476 0.02416 0.03382 0.0306 0.07891 0.0081 0.04348 0.0081 0.0918 0 0.09663-0.0048 0.18842-0.0032 0.0918-0.0032 0.17393 0 0.0612 0.0032 0.11434 0.0048 0.05154 0.01611 0.09824h-0.08858l-0.02738-0.09502h-0.0064q-0.02416 0.04187-0.07086 0.07247t-0.12562 0.0306q-0.08697 0-0.14333-0.05959-0.05476-0.0612-0.05476-0.16749 0-0.06925 0.02255-0.11596 0.02416-0.0467 0.06603-0.07569 0.04348-0.02899 0.10146-0.04026 0.05959-0.01288 0.13206-0.01288 0.01611 0 0.03221 0 0.01611 0 0.03382 0.0016 0.0048-0.04993 0.0048-0.08858 0-0.0918-0.02738-0.12884-0.02738-0.03704-0.09985-0.03704-0.04509 0-0.09824 0.01449-0.05315 0.01288-0.08858 0.03382zm0.34947 0.38974q-0.0161-0.0016-0.03221-0.0016-0.01611-0.0016-0.03221-0.0016-0.03865 0-0.07569 0.0064t-0.06603 0.02255q-0.02899 0.0161-0.0467 0.04348-0.01611 0.02738-0.01611 0.06925 0 0.06442 0.0306 0.09985 0.03221 0.03543 0.08213 0.03543 0.06764 0 0.10468-0.03221 0.03704-0.03221 0.05153-0.07086z"/>
				<path d="m-39.41 49.624h0.11595v0.38329h0.0048q0.06603-0.08052 0.17554-0.08052 0.12401 0 0.1852 0.09824 0.06281 0.09824 0.06281 0.31082 0 0.21741-0.08374 0.3237-0.08214 0.10629-0.23352 0.10629-0.07408 0-0.13528-0.0161-0.0612-0.01772-0.0918-0.04026zm0.11595 1.0098q0.02255 0.01288 0.05476 0.02094 0.03382 0.0064 0.07086 0.0064 0.08375 0 0.13206-0.07891 0.04993-0.08052 0.04993-0.2464 0-0.06925-0.0097-0.12401-0.0081-0.05637-0.02738-0.09663-0.01771-0.04026-0.04831-0.0612-0.02899-0.02255-0.07086-0.02255-0.05798 0-0.09663 0.03543-0.03704 0.03382-0.05476 0.09341z"/>
				<path d="m-38.588 50.56q0 0.05637 0.01449 0.08052 0.0161 0.02416 0.04348 0.02416 0.03382 0 0.07891-0.01772l0.01127 0.09341q-0.02094 0.01288-0.05959 0.02094-0.03704 0.0081-0.06764 0.0081-0.0612 0-0.09985-0.03704-0.03704-0.03865-0.03704-0.13367v-0.97434h0.11595z"/>
				<path d="m-37.856 50.697q-0.03865 0.03543-0.09824 0.05476t-0.12562 0.01933q-0.07569 0-0.13206-0.02899-0.05476-0.0306-0.0918-0.08535-0.03543-0.05637-0.05314-0.13367-0.01611-0.0773-0.01611-0.17393 0-0.20614 0.07569-0.31404t0.21419-0.1079q0.04509 0 0.08858 0.01127 0.04509 0.01127 0.08052 0.04509t0.05637 0.09502q0.02255 0.0612 0.02255 0.15944 0 0.02738-0.0032 0.05959-0.0016 0.0306-0.0048 0.06442h-0.40906q0 0.06925 0.01127 0.12562 0.01127 0.05637 0.03543 0.09663 0.02416 0.03865 0.0612 0.0612 0.03865 0.02094 0.09502 0.02094 0.04348 0 0.08536-0.0161 0.04348-0.01611 0.06603-0.03865zm-0.09019-0.43161q0.0032-0.12079-0.03382-0.17715-0.03704-0.05637-0.10146-0.05637-0.07408 0-0.11756 0.05637-0.04348 0.05637-0.05154 0.17715z"/>
				<path d="m-36.734 50.708q-0.04026 0.03382-0.10146 0.04831t-0.12884 0.01449q-0.08535 0-0.15783-0.03221-0.07247-0.03221-0.12562-0.10146-0.05154-0.07086-0.08052-0.18198-0.02899-0.11112-0.02899-0.26734 0-0.16105 0.03221-0.27217 0.03382-0.11112 0.08858-0.18037t0.12562-0.09985q0.07247-0.0306 0.14816-0.0306 0.0773 0 0.12723 0.01127 0.05154 0.01127 0.08858 0.02738l-0.02899 0.10951q-0.03221-0.01772-0.07569-0.02738-0.04348-0.0097-0.09985-0.0097t-0.10629 0.02577q-0.04993 0.02416-0.08858 0.08052-0.03865 0.05476-0.0612 0.14494-0.02255 0.09019-0.02255 0.22064 0 0.23513 0.08052 0.3543 0.08052 0.11756 0.21419 0.11756 0.05476 0 0.09824-0.01449 0.04348-0.0161 0.07408-0.03704z"/>
				<path d="m-36.176 50.56q0 0.05637 0.01449 0.08052 0.0161 0.02416 0.04348 0.02416 0.03382 0 0.07891-0.01772l0.01127 0.09341q-0.02094 0.01288-0.05959 0.02094-0.03704 0.0081-0.06764 0.0081-0.0612 0-0.09985-0.03704-0.03704-0.03865-0.03704-0.13367v-0.97434h0.11595z"/>
				<path d="m-35.906 49.946h0.11595v0.80524h-0.11595zm-0.02094-0.24479q0-0.03865 0.02094-0.06281 0.02255-0.02416 0.05798-0.02416t0.05798 0.02416q0.02416 0.02255 0.02416 0.06281 0 0.03865-0.02416 0.0612-0.02255 0.02094-0.05798 0.02094t-0.05798-0.02255q-0.02094-0.02255-0.02094-0.05959z"/>
				<path d="m-35.576 49.624h0.11596v0.38329h0.0048q0.06603-0.08052 0.17554-0.08052 0.12401 0 0.1852 0.09824 0.06281 0.09824 0.06281 0.31082 0 0.21741-0.08375 0.3237-0.08213 0.10629-0.23352 0.10629-0.07408 0-0.13528-0.0161-0.0612-0.01772-0.0918-0.04026zm0.11596 1.0098q0.02255 0.01288 0.05476 0.02094 0.03382 0.0064 0.07086 0.0064 0.08374 0 0.13206-0.07891 0.04993-0.08052 0.04993-0.2464 0-0.06925-0.0097-0.12401-0.0081-0.05637-0.02738-0.09663-0.01771-0.04026-0.04831-0.0612-0.02899-0.02255-0.07086-0.02255-0.05798 0-0.09663 0.03543-0.03704 0.03382-0.05476 0.09341z"/>
				<path d="m-34.878 49.946h0.08213l0.02094 0.08535h0.0048q0.02255-0.0467 0.05798-0.07247 0.03704-0.02738 0.08858-0.02738 0.03704 0 0.08375 0.01449l-0.02255 0.11756q-0.04187-0.01449-0.07408-0.01449-0.05154 0-0.08374 0.0306-0.03221 0.02899-0.04187 0.07891v0.59265h-0.11595z"/>
				<path d="m-34.446 49.995q0.0467-0.02899 0.11273-0.04509 0.06764-0.01611 0.14172-0.01611 0.06764 0 0.1079 0.02094 0.04187 0.01933 0.06442 0.05476 0.02416 0.03382 0.0306 0.07891 0.0081 0.04348 0.0081 0.0918 0 0.09663-0.0048 0.18842-0.0032 0.0918-0.0032 0.17393 0 0.0612 0.0032 0.11434 0.0048 0.05154 0.01611 0.09824h-0.08858l-0.02738-0.09502h-0.0064q-0.02416 0.04187-0.07086 0.07247t-0.12562 0.0306q-0.08696 0-0.14333-0.05959-0.05476-0.0612-0.05476-0.16749 0-0.06925 0.02255-0.11596 0.02416-0.0467 0.06603-0.07569 0.04348-0.02899 0.10146-0.04026 0.05959-0.01288 0.13206-0.01288 0.0161 0 0.03221 0t0.03382 0.0016q0.0048-0.04993 0.0048-0.08858 0-0.0918-0.02738-0.12884-0.02738-0.03704-0.09985-0.03704-0.04509 0-0.09824 0.01449-0.05315 0.01288-0.08858 0.03382zm0.34947 0.38974q-0.01611-0.0016-0.03221-0.0016-0.01611-0.0016-0.03221-0.0016-0.03865 0-0.07569 0.0064t-0.06603 0.02255q-0.02899 0.0161-0.0467 0.04348-0.01611 0.02738-0.01611 0.06925 0 0.06442 0.0306 0.09985 0.03221 0.03543 0.08214 0.03543 0.06764 0 0.10468-0.03221t0.05154-0.07086z"/>
				<path d="m-33.793 49.946h0.08214l0.02094 0.08535h0.0048q0.02255-0.0467 0.05798-0.07247 0.03704-0.02738 0.08858-0.02738 0.03704 0 0.08375 0.01449l-0.02255 0.11756q-0.04187-0.01449-0.07408-0.01449-0.05154 0-0.08374 0.0306-0.03221 0.02899-0.04187 0.07891v0.59265h-0.11595z"/>
				<path d="m-33.153 50.467 0.03382 0.15622h0.0081l0.02416-0.15622 0.1224-0.52018h0.11756l-0.19165 0.7231q-0.02255 0.08696-0.04509 0.16266-0.02255 0.07569-0.04992 0.13045-0.02577 0.05637-0.05959 0.08697-0.03221 0.03221-0.0773 0.03221t-0.07891-0.01449l0.01933-0.10951q0.02255 0.0081 0.04509 0.0032 0.02255-0.0048 0.04187-0.02738 0.02094-0.02255 0.03704-0.06764 0.01772-0.04348 0.0306-0.11434l-0.2609-0.80524h0.13206z"/>
			</g>
			<path d="m-435.92-23.597c0.28617-0.34918 0.57227-0.69834 0.85837-1.0475 0.42677 0.47526 0.85355 0.95052 1.2803 1.4258 0.76622 0.0048 1.5325 0.01002 2.2987 0.01443-0.82927-0.91657-1.6586-1.8331-2.4878-2.7497 0.40254-0.45586 0.80503-0.91173 1.2076-1.3676 0.78562 0.91658 1.5713 1.8332 2.3569 2.7497-4e-3 -0.87778-8e-3 -1.7556-0.0161-2.6333-0.40253-0.45101-0.80501-0.90202-1.2075-1.353 0.28858-0.42545 0.99829-0.86377 0.3475-1.2606-1.4591-1.6118-2.9183-3.2236-4.3774-4.8354-3.0679-0.01042-6.1393 0.04092-9.205-0.0084-0.72986-0.06429-1.6392-0.29547-1.8065-1.1337-0.35271-1.09 0.84574-2.3762 1.9465-1.8649 0.76081 0.14726 0.44105 1.6835-0.23166 1.1743 0.69856-1.0262-1.2808-0.90972-0.72049 0.09824 0.38397 0.88195 1.783 1.0275 2.3349 0.22513 0.57404-0.92504-0.20641-1.9788-1.0842-2.3446-0.87836-0.41949-1.9686-0.31147-2.7028 0.34337-1.0973 0.83626-1.6281 2.4707-0.91191 3.7193 0.4168 0.93386 1.3405 1.5318 2.3429 1.6481 1.343 0.16782 2.7026 0.06445 4.0539 0.09323h5.3734c1.0184 1.13 2.0368 2.2599 3.0553 3.3899-0.91656 1.0136-1.8331 2.0271-2.7497 3.0407-0.66422-0.85695-1.6664-1.5082-2.0708-2.5299-0.32706-1.1972 1.4194-2.1305 2.2518-1.2247 0.79933 0.44227-0.0473 1.8554-0.62433 1.0813 0.46733-0.15836 0.67752-0.90508-0.0577-0.86727-0.86169 0.32798-0.49311 1.6295 0.25772 1.8808 0.71628 0.34674 1.6137-0.30285 1.5227-1.0869 0.0733-1.1334-0.75524-2.3676-1.9525-2.4204-1.2813-0.24958-2.727 0.4999-3.0402 1.8142-0.43151 1.1314 0.27896 2.2662 1.0551 3.0447 0.91076 0.98537 1.8001 1.9916 2.7018 2.985z" fill="#f00"/>
			<path d="m-428.86-22.458c8e-3 -2.1947 0.012-4.3894 0.0201-6.5841-1.356-1.553-2.7839-3.046-4.0921-4.6391-0.4374-0.54095-0.77164-1.181-0.74606-1.8954-0.036-1.3281 0.79082-2.6298 2.0264-3.1348 0.95151-0.42136 2.0903-0.46194 3.022 0.03768 1.2998 0.66198 1.9155 2.4493 1.2087 3.7417-0.54185 0.79964-1.9325 0.78325-2.3809-0.10621-0.43247-0.56653-0.40691-1.7268 0.41575-1.8879 0.66914-0.01363 0.83223 0.96617 0.0962 1.0053-0.16353 0.63656 1.1345 0.49025 1.0924-0.18221 0.16593-0.92802-0.8623-1.6839-1.7291-1.5091-0.97624 0.09675-1.834 1.1261-1.4963 2.1064 0.35552 0.96342 1.2138 1.6073 1.8524 2.3761 1.0266 1.1181 2.05 2.2391 3.0765 3.3574-8e-3 2.445-0.012 4.89-0.0201 7.335-0.78189-0.0068-1.5639-0.01403-2.3458-0.02044z"/>
			<path d="m-429.09-21.883-6.584 0.02044c-1.5531-1.356-3.0461-2.7839-4.6392-4.092-0.54093-0.43739-1.181-0.77164-1.8954-0.74605-1.3281-0.03447-2.6298 0.79084-3.1348 2.0263-0.42133 0.95153-0.46193 2.0903 0.036 3.0221 0.66201 1.2998 2.4493 1.9155 3.7417 1.2087 0.79964-0.54184 0.78325-1.9325-0.10621-2.381-0.56654-0.43248-1.7268-0.40688-1.8879 0.41576-0.012 0.66918 0.96618 0.83223 1.0053 0.09607 0.63656-0.16373 0.49027 1.1345-0.18236 1.0924-0.92803 0.16585-1.6839-0.86229-1.5092-1.7291 0.0966-0.97624 1.1261-1.834 2.1064-1.4963 0.96341 0.35556 1.6073 1.2139 2.376 1.8524 1.1181 1.0266 2.2391 2.05 3.3574 3.0765l9.8442-0.02044c-1.143-0.9713-1.4343-1.4219-2.5296-2.3458z"/>
		</g>
	</g>
</svg>
