<?xml version="1.0" encoding="UTF-8"?>
<svg width="49.443mm" height="49.443mm" version="1.1" viewBox="0 0 49.442779 49.442779" xmlns="http://www.w3.org/2000/svg" xmlns:xlink="http://www.w3.org/1999/xlink">
	<defs>
		<filter id="d" x="-.088487" y="-.064772" width="1.177" height="1.1295" color-interpolation-filters="sRGB">
			<feGaussianBlur stdDeviation="0.15643472"/>
		</filter>
		<filter id="e" x="-.088487" y="-.064772" width="1.177" height="1.1295" color-interpolation-filters="sRGB">
			<feGaussianBlur stdDeviation="0.15643472"/>
		</filter>
		<linearGradient id="c" x1="208.34" x2="352.29" y1="32.317" y2="159.6" gradientTransform="matrix(.26458 0 0 .26458 -586.44 -188.57)" gradientUnits="userSpaceOnUse">
			<stop stop-opacity=".49606" offset="0"/>
			<stop stop-color="#fff6d5" stop-opacity="0" offset="1"/>
		</linearGradient>
		<linearGradient id="b" x1="365.17" x2="216.93" y1="163.64" y2="36.61" gradientTransform="matrix(.26458 0 0 .26458 -586.5 -188.43)" gradientUnits="userSpaceOnUse">
			<stop stop-color="#fff" offset="0"/>
			<stop stop-color="#fff" stop-opacity=".007874" offset="1"/>
		</linearGradient>
		<linearGradient id="a" x1="-529.78" x2="-494.03" y1="-175.41" y2="-147.94" gradientUnits="userSpaceOnUse">
			<stop stop-color="#c1dc5f" stop-opacity=".61417" offset="0"/>
			<stop stop-color="#a9aa52" stop-opacity=".8937" offset="1"/>
		</linearGradient>
	</defs>
	<g transform="translate(536.12 186.96)">
		<circle cx="-511.4" cy="-162.24" r="24.457" fill="url(#a)"/>
		<g transform="matrix(.78726 0 0 .78726 -108.47 -33.661)">
			<g stroke="#000">
				<path transform="matrix(2.9413 0 0 2.9413 -4498.4 -3189.2)" d="m1354 1027.2v5.7964h4.2429v-4.5102l-1.211-1.211-0.075-0.075z" filter="url(#e)" stroke-width=".26458px"/>
				<path transform="matrix(2.9413 0 0 2.9413 -4498.4 -3189.2)" d="m1353.2 1025.7v5.7964h4.2429v-4.5101l-1.2111-1.2111-0.075-0.075z" filter="url(#d)" stroke-width=".26458px"/>
				<path d="m-516.24-168.48v17.049h12.479v-13.266l-3.5622-3.5619-0.22056-0.22058z" fill="#ececec" stroke-width=".77821px"/>
			</g>
			<g fill="none" stroke="#4d4d4d" stroke-width=".77821px">
				<path d="m-513.59-164.94h7.2225"/>
				<path d="m-513.56-162.83h7.2222"/>
				<path d="m-513.57-160.59h7.2222"/>
				<path d="m-513.55-158.48h7.2225"/>
				<path d="m-513.57-156.27h7.2222"/>
				<path d="m-513.55-154.16h7.2225"/>
			</g>
			<path d="m-518.5-172.78v17.048h12.479v-13.265l-3.5622-3.5622-0.22057-0.22059z" fill="#fff" stroke="#000" stroke-width=".77821px"/>
			<g fill="none" stroke="#000" stroke-width=".77821px">
				<path d="m-515.99-169.38h7.2225"/>
				<path d="m-515.82-167.13h7.2222"/>
				<path d="m-515.83-164.89h7.2223"/>
				<path d="m-515.81-162.78h7.2225"/>
				<path d="m-515.83-160.57h7.2223"/>
				<path d="m-515.81-158.46h7.2225"/>
			</g>
		</g>
		<g>
			<g>
				<g dominant-baseline="auto" fill="#540" stroke-width=".023836" style="font-feature-settings:normal;font-variant-alternates:normal;font-variant-caps:normal;font-variant-ligatures:normal;font-variant-numeric:normal;font-variant-position:normal;shape-padding:0;text-decoration-color:#000000;text-decoration-line:none;text-decoration-style:solid;text-indent:0;text-orientation:mixed;text-transform:none;white-space:normal" aria-label="to upload">
					<path d="m-518.24-173.3q0.0983 0 0.1743-0.0268v0.17877q-0.0983 0.0447-0.25251 0.0447-0.37541 0-0.37541-0.56088v-1.7206h-0.21899v-0.12514l0.21452-0.0626 0.0693-0.57653h0.14749v0.57653h0.38435v0.18771h-0.38435v1.6603q0 0.24581 0.0536 0.33519 0.0536 0.0894 0.1877 0.0894z"/>
					<path d="m-516.32-174.37q0 0.61228-0.19441 0.93854-0.19218 0.32401-0.55195 0.32401-0.3553 0-0.54525-0.32401-0.1877-0.32626-0.1877-0.93854 0-1.2536 0.74189-1.2536 0.3486 0 0.54301 0.32848 0.19441 0.32849 0.19441 0.92513zm-1.2581 0q0 0.52513 0.12514 0.79329 0.12514 0.26815 0.39106 0.26815 0.52066 0 0.52066-1.0614 0-1.0525-0.52066-1.0525-0.27262 0-0.39553 0.26368-0.12067 0.26369-0.12067 0.78882z"/>
					<path d="m-514.72-175.57v1.5821q0 0.35978 0.0849 0.52514 0.0872 0.16536 0.26592 0.16536 0.27486 0 0.40223-0.22123 0.12961-0.22346 0.12961-0.71954v-1.3318h0.21005v2.4246h-0.17877l-0.0268-0.33966h-0.0179q-0.0782 0.18547-0.21676 0.28603-0.13854 0.0983-0.30167 0.0983-0.29273 0-0.42904-0.20781-0.13408-0.20782-0.13408-0.67933v-1.5821z"/>
					<path d="m-512.19-173.11q-0.18323 0-0.33519-0.10055-0.14972-0.10279-0.22793-0.27933h-0.0201l0.0156 0.26592v1.1687h-0.21228v-3.524h0.1743l0.0223 0.33296h0.0201q0.0894-0.18324 0.22793-0.28156 0.14078-0.0983 0.30614-0.0983 0.71061 0 0.71061 1.2536 0 0.60558-0.1743 0.93407-0.1743 0.32848-0.50726 0.32848zm-0.0425-2.315q-0.26592 0-0.39553 0.23463-0.12961 0.23464-0.12961 0.73519v0.0693q0 0.55866 0.13185 0.82234 0.13184 0.26145 0.40223 0.26145 0.25027 0 0.37094-0.25922 0.1229-0.26145 0.1229-0.81116 0-0.52513-0.11396-0.78882-0.11397-0.26368-0.38882-0.26368z"/>
					<path d="m-510.77-173.15h-0.21228v-3.477h0.21228z"/>
					<path d="m-508.76-174.37q0 0.61228-0.19441 0.93854-0.19217 0.32401-0.55195 0.32401-0.3553 0-0.54524-0.32401-0.18771-0.32626-0.18771-0.93854 0-1.2536 0.74189-1.2536 0.3486 0 0.54301 0.32848 0.19441 0.32849 0.19441 0.92513zm-1.2581 0q0 0.52513 0.12514 0.79329 0.12513 0.26815 0.39105 0.26815 0.52067 0 0.52067-1.0614 0-1.0525-0.52067-1.0525-0.27262 0-0.39552 0.26368-0.12067 0.26369-0.12067 0.78882z"/>
					<path d="m-507.28-173.15-0.0268-0.33966h-9e-3q-0.1743 0.38435-0.52737 0.38435-0.23687 0-0.38212-0.1877-0.14302-0.18994-0.14302-0.50726 0-0.34636 0.20782-0.54748 0.20782-0.20335 0.58324-0.22122l0.26145-0.0134v-0.20112q0-0.33966-0.0849-0.49385-0.0849-0.15642-0.28156-0.15642-0.20782 0-0.42458 0.13631l-0.0916-0.16759q0.25252-0.15642 0.52961-0.15642 0.29943 0 0.43128 0.18994 0.13184 0.1877 0.13184 0.63016v1.6514zm-0.5162-0.13631q0.22793 0 0.35307-0.22346 0.12738-0.2257 0.12738-0.63686v-0.25251l-0.25252 0.0134q-0.29273 0.0156-0.43574 0.16313-0.14078 0.14525-0.14078 0.42681 0 0.26368 0.0938 0.38659 0.0939 0.1229 0.25474 0.1229z"/>
					<path d="m-505.87-173.11q-0.70614 0-0.70614-1.2536 0-0.61675 0.17654-0.93854 0.17653-0.32401 0.52066-0.32401 0.16313 0 0.30838 0.0939 0.14748 0.0938 0.23463 0.25921h0.0179l-9e-3 -0.27038v-1.0883h0.21229v3.477h-0.1743l-0.0179-0.33966h-0.0201q-0.0872 0.18547-0.2257 0.28603-0.13854 0.0983-0.31731 0.0983zm0.0134-0.18547q0.25474 0 0.39105-0.23463 0.13855-0.23687 0.13855-0.69497v-0.13854q0-0.54971-0.13408-0.80446-0.13184-0.25698-0.40446-0.25698-0.26145 0-0.37542 0.27486-0.11396 0.27262-0.11396 0.79105 0 0.5229 0.11843 0.79328 0.11844 0.27039 0.37989 0.27039z"/>
				</g>
				<g dominant-baseline="auto" fill="#540" stroke-width=".023836" style="font-feature-settings:normal;font-variant-alternates:normal;font-variant-caps:normal;font-variant-ligatures:normal;font-variant-numeric:normal;font-variant-position:normal;shape-padding:0;text-decoration-color:#000000;text-decoration-line:none;text-decoration-style:solid;text-indent:0;text-orientation:mixed;text-transform:none;white-space:normal" aria-label="Drop files here">
					<path d="m-520.62-179.04q0 1.6648-1.0391 1.6648h-0.581v-3.267h0.59441q0.50502 0 0.76424 0.40894 0.26144 0.40669 0.26144 1.1933zm-0.23016 0.0134q0-0.69049-0.20335-1.0525-0.20335-0.362-0.60111-0.362h-0.36648v2.8648h0.3486q0.42458 0 0.62346-0.37094 0.19888-0.37095 0.19888-1.0793z"/>
					<path d="m-519.37-179.85q0.11397 0 0.21229 0.0313l-0.0514 0.21228q-0.0804-0.0335-0.16536-0.0335-0.1229 0-0.23016 0.12737-0.10503 0.12514-0.16536 0.35083-0.0603 0.2257-0.0603 0.49832v1.2849h-0.21229v-2.4246h0.1743l0.0224 0.42457h0.0156q0.16983-0.4715 0.46033-0.4715z"/>
					<path d="m-517.43-178.6q0 0.61228-0.19441 0.93853-0.19218 0.32402-0.55195 0.32402-0.3553 0-0.54524-0.32402-0.18771-0.32625-0.18771-0.93853 0-1.2536 0.74189-1.2536 0.3486 0 0.54301 0.32849t0.19441 0.92513zm-1.2581 0q0 0.52513 0.12513 0.79328 0.12514 0.26816 0.39106 0.26816 0.52066 0 0.52066-1.0614 0-1.0525-0.52066-1.0525-0.27262 0-0.39552 0.26368-0.12067 0.26368-0.12067 0.78882z"/>
					<path d="m-516.11-177.33q-0.18324 0-0.33519-0.10056-0.14972-0.10279-0.22793-0.27932h-0.0201l0.0156 0.26592v1.1687h-0.21229v-3.524h0.1743l0.0224 0.33296h0.0201q0.0894-0.18324 0.22793-0.28156 0.14078-0.0983 0.30614-0.0983 0.71061 0 0.71061 1.2536 0 0.60558-0.1743 0.93406-0.1743 0.32849-0.50726 0.32849zm-0.0425-2.315q-0.26592 0-0.39552 0.23463-0.12961 0.23464-0.12961 0.73519v0.0693q0 0.55865 0.13184 0.82234 0.13184 0.26145 0.40223 0.26145 0.25028 0 0.37095-0.25922 0.1229-0.26145 0.1229-0.81116 0-0.52514-0.11397-0.78882-0.11396-0.26368-0.38882-0.26368z"/>
					<path d="m-513.42-179.61h-0.37988v2.2368h-0.21006v-2.2368h-0.30837v-0.12067l0.30837-0.0916v-0.18324q0-0.46256 0.1095-0.66591 0.10949-0.20335 0.37988-0.20335 0.15642 0 0.2838 0.0559l-0.0737 0.19665q-0.11843-0.0559-0.21452-0.0559-0.10949 0-0.16536 0.0648-0.0559 0.0648-0.0827 0.21005t-0.0268 0.40223v0.20335h0.37988zm0.60558 2.2368h-0.21229v-2.4246h0.21229zm-0.24357-3.0972q0-0.10056 0.0402-0.15642 0.0425-0.0559 0.10726-0.0559 0.0603 0 0.0961 0.0559t0.0358 0.15642q0 0.0961-0.0358 0.15419-0.0358 0.0559-0.0961 0.0559-0.0648 0-0.10726-0.0559-0.0402-0.0581-0.0402-0.15419z"/>
					<path d="m-511.95-177.38h-0.21229v-3.477h0.21229z"/>
					<path d="m-510.61-177.33q-0.38435 0-0.59217-0.32625-0.20558-0.32849-0.20558-0.91396 0-0.62122 0.18323-0.94747 0.18548-0.32849 0.53184-0.32849 0.30167 0 0.47597 0.28827 0.1743 0.28603 0.1743 0.77317v0.19665h-1.1486q4e-3 0.5296 0.14972 0.79328 0.14525 0.26369 0.44022 0.26369 0.22793 0 0.48044-0.14972v0.20558q-0.2324 0.14525-0.48938 0.14525zm-0.0961-2.324q-0.43798 0-0.48044 0.87373h0.93184q0-0.39999-0.12291-0.63686-0.12067-0.23687-0.32849-0.23687z"/>
					<path d="m-508.55-177.99q0 0.30614-0.16089 0.48044-0.16089 0.17206-0.4648 0.17206-0.16536 0-0.2905-0.0425t-0.19441-0.0939v-0.24804q0.0827 0.0827 0.21899 0.13408 0.13631 0.0492 0.27933 0.0492 0.18771 0 0.29497-0.12291 0.10726-0.1229 0.10726-0.32848 0-0.1609-0.0782-0.27039-0.076-0.11173-0.29274-0.25251-0.24804-0.15642-0.33966-0.25028-0.0894-0.0938-0.14078-0.21005-0.0492-0.1162-0.0492-0.27709 0-0.26145 0.17653-0.43128 0.17654-0.17207 0.44916-0.17207 0.29273 0 0.48938 0.13855l-0.1095 0.18547q-0.18323-0.1229-0.38882-0.1229-0.1877 0-0.29943 0.11173-0.11174 0.10949-0.11174 0.2905 0 0.16089 0.076 0.27038 0.076 0.10727 0.32179 0.26145 0.24133 0.15866 0.33072 0.25475 0.0894 0.0939 0.13184 0.21005 0.0447 0.11397 0.0447 0.26369z"/>
					<path d="m-506.11-177.38v-1.6715q0-0.32849-0.0872-0.4648-0.0849-0.13854-0.27932-0.13854-0.25698 0-0.38659 0.22793t-0.12961 0.71954v1.3274h-0.21228v-3.477h0.21228v1.1285q0 0.15418-9e-3 0.25698h0.0179q0.0715-0.18101 0.21452-0.27933 0.14525-0.10056 0.30168-0.10056 0.30837 0 0.43798 0.20112 0.12961 0.20111 0.12961 0.59887v1.6715z"/>
					<path d="m-504.57-177.33q-0.38435 0-0.59217-0.32625-0.20558-0.32849-0.20558-0.91396 0-0.62122 0.18324-0.94747 0.18547-0.32849 0.53183-0.32849 0.30168 0 0.47597 0.28827 0.1743 0.28603 0.1743 0.77317v0.19665h-1.1486q4e-3 0.5296 0.14971 0.79328 0.14525 0.26369 0.44022 0.26369 0.22793 0 0.48044-0.14972v0.20558q-0.2324 0.14525-0.48938 0.14525zm-0.0961-2.324q-0.43799 0-0.48045 0.87373h0.93184q0-0.39999-0.12291-0.63686-0.12067-0.23687-0.32848-0.23687z"/>
					<path d="m-502.79-179.85q0.11396 0 0.21228 0.0313l-0.0514 0.21228q-0.0805-0.0335-0.16536-0.0335-0.12291 0-0.23017 0.12737-0.10502 0.12514-0.16536 0.35083-0.0603 0.2257-0.0603 0.49832v1.2849h-0.21229v-2.4246h0.1743l0.0223 0.42457h0.0156q0.16983-0.4715 0.46033-0.4715z"/>
					<path d="m-501.52-177.33q-0.38435 0-0.59217-0.32625-0.20559-0.32849-0.20559-0.91396 0-0.62122 0.18324-0.94747 0.18547-0.32849 0.53184-0.32849 0.30167 0 0.47597 0.28827 0.1743 0.28603 0.1743 0.77317v0.19665h-1.1486q4e-3 0.5296 0.14972 0.79328 0.14525 0.26369 0.44022 0.26369 0.22793 0 0.48044-0.14972v0.20558q-0.2324 0.14525-0.48938 0.14525zm-0.0961-2.324q-0.43798 0-0.48044 0.87373h0.93183q0-0.39999-0.1229-0.63686-0.12067-0.23687-0.32849-0.23687z"/>
				</g>
				<g dominant-baseline="auto" fill="#786721" stroke-width=".21029" style="font-feature-settings:normal;font-variant-alternates:normal;font-variant-caps:normal;font-variant-ligatures:normal;font-variant-numeric:normal;font-variant-position:normal;shape-padding:0;text-decoration-color:#000000;text-decoration-line:none;text-decoration-style:solid;text-indent:0;text-orientation:mixed;text-transform:none;white-space:normal" aria-label="multiple selection OK">
					<path d="m-521.09-144.73v-1.2141q0-0.44852-0.26286-0.44852-0.18073 0-0.26123 0.15772-0.0789 0.15608-0.0789 0.46167v1.0432h-0.15443v-1.2141q0-0.22672-0.0641-0.3368-0.0641-0.11172-0.19879-0.11172-0.17744 0-0.25794 0.16101t-0.0805 0.52245v0.97918h-0.15608v-1.7826h0.13143l0.0131 0.24808h0.0148q0.10679-0.28258 0.36309-0.28258 0.14786 0 0.23329 0.0789 0.0854 0.0789 0.12322 0.23001 0.0641-0.16429 0.15772-0.23658 0.0937-0.0723 0.24316-0.0723 0.20208 0 0.29572 0.15608 0.0936 0.15443 0.0936 0.49616v1.1648z"/>
					<path d="m-520.31-146.51v1.1632q0 0.26451 0.0624 0.38609 0.0641 0.12157 0.19551 0.12157 0.20208 0 0.29572-0.16265 0.0953-0.16429 0.0953-0.52902v-0.97918h0.15444v1.7826h-0.13144l-0.0197-0.24972h-0.0132q-0.0575 0.13636-0.15936 0.21029-0.10186 0.0723-0.22179 0.0723-0.21523 0-0.31545-0.15279-0.0986-0.15279-0.0986-0.49945v-1.1632z"/>
					<path d="m-518.88-144.73h-0.15608v-2.5564h0.15608z"/>
					<path d="m-518.07-144.84q0.0723 0 0.12815-0.0197v0.13143q-0.0723 0.0329-0.18565 0.0329-0.27601 0-0.27601-0.41237v-1.265h-0.16101v-0.092l0.15772-0.046 0.0509-0.42387h0.10843v0.42387h0.28258v0.13801h-0.28258v1.2207q0 0.18072 0.0394 0.24644 0.0394 0.0657 0.138 0.0657z"/>
					<path d="m-517.51-144.73h-0.15608v-1.7826h0.15608zm-0.17908-2.2771q0-0.0739 0.0296-0.115 0.0312-0.0411 0.0789-0.0411 0.0444 0 0.0707 0.0411t0.0263 0.115q0 0.0707-0.0263 0.11336-0.0263 0.0411-0.0707 0.0411-0.0476 0-0.0789-0.0411-0.0296-0.0427-0.0296-0.11336z"/>
					<path d="m-516.46-144.69q-0.13471 0-0.24643-0.0739-0.11008-0.0756-0.16758-0.20537h-0.0148l0.0115 0.19551v0.85925h-0.15608v-2.5909h0.12815l0.0164 0.2448h0.0148q0.0657-0.13472 0.16758-0.20701 0.1035-0.0723 0.22508-0.0723 0.52245 0 0.52245 0.92168 0 0.44523-0.12815 0.68674t-0.37295 0.24151zm-0.0312-1.7021q-0.19551 0-0.2908 0.17251-0.0953 0.17251-0.0953 0.54052v0.0509q0 0.41073 0.0969 0.6046 0.0969 0.19222 0.29573 0.19222 0.18401 0 0.27273-0.19058 0.0904-0.19222 0.0904-0.59638 0-0.38609-0.0838-0.57995-0.0838-0.19387-0.28587-0.19387z"/>
					<path d="m-515.41-144.73h-0.15608v-2.5564h0.15608z"/>
					<path d="m-514.43-144.69q-0.28259 0-0.43538-0.23987-0.15115-0.24151-0.15115-0.67195 0-0.45673 0.13472-0.6966 0.13636-0.24151 0.39102-0.24151 0.22179 0 0.34994 0.21194 0.12815 0.21029 0.12815 0.56845v0.14458h-0.84446q3e-3 0.38937 0.11007 0.58323 0.10679 0.19387 0.32366 0.19387 0.16758 0 0.35323-0.11008v0.15115q-0.17087 0.10679-0.3598 0.10679zm-0.0707-1.7086q-0.32201 0-0.35323 0.64238h0.6851q0-0.29408-0.0904-0.46823-0.0887-0.17415-0.24151-0.17415z"/>
					<path d="m-512.29-145.17q0 0.22508-0.11829 0.35323-0.11829 0.1265-0.34173 0.1265-0.12157 0-0.21358-0.0312-0.092-0.0312-0.14293-0.069v-0.18236q0.0608 0.0608 0.16101 0.0986 0.10021 0.0362 0.20536 0.0362 0.13801 0 0.21687-0.0904 0.0789-0.0904 0.0789-0.24151 0-0.11829-0.0575-0.1988-0.0559-0.0821-0.21523-0.18565-0.18236-0.115-0.24972-0.184-0.0657-0.069-0.10351-0.15444-0.0361-0.0854-0.0361-0.20372 0-0.19222 0.12979-0.31709 0.12979-0.1265 0.33023-0.1265 0.21522 0 0.3598 0.10186l-0.0805 0.13636q-0.13472-0.0904-0.28587-0.0904-0.13801 0-0.22015 0.0822-0.0821 0.0805-0.0821 0.21358 0 0.11829 0.0559 0.19879 0.0559 0.0789 0.23658 0.19222 0.17744 0.11665 0.24315 0.1873 0.0657 0.069 0.0969 0.15443 0.0329 0.0838 0.0329 0.19387z"/>
					<path d="m-511.42-144.69q-0.28258 0-0.43537-0.23987-0.15115-0.24151-0.15115-0.67195 0-0.45673 0.13472-0.6966 0.13636-0.24151 0.39101-0.24151 0.2218 0 0.34995 0.21194 0.12814 0.21029 0.12814 0.56845v0.14458h-0.84446q3e-3 0.38937 0.11008 0.58323 0.10679 0.19387 0.32365 0.19387 0.16758 0 0.35323-0.11008v0.15115q-0.17086 0.10679-0.3598 0.10679zm-0.0706-1.7086q-0.32202 0-0.35323 0.64238h0.6851q0-0.29408-0.0904-0.46823-0.0887-0.17415-0.24151-0.17415z"/>
					<path d="m-510.45-144.73h-0.15608v-2.5564h0.15608z"/>
					<path d="m-509.47-144.69q-0.28258 0-0.43537-0.23987-0.15115-0.24151-0.15115-0.67195 0-0.45673 0.13472-0.6966 0.13636-0.24151 0.39102-0.24151 0.22179 0 0.34994 0.21194 0.12815 0.21029 0.12815 0.56845v0.14458h-0.84447q3e-3 0.38937 0.11008 0.58323 0.10679 0.19387 0.32366 0.19387 0.16757 0 0.35322-0.11008v0.15115q-0.17086 0.10679-0.3598 0.10679zm-0.0706-1.7086q-0.32201 0-0.35323 0.64238h0.6851q0-0.29408-0.0904-0.46823-0.0887-0.17415-0.24151-0.17415z"/>
					<path d="m-508.2-144.69q-0.2678 0-0.40416-0.23165-0.13472-0.2333-0.13472-0.68346 0-0.45673 0.13636-0.69495 0.13801-0.23987 0.40581-0.23987 0.16593 0 0.27601 0.0608l-0.0608 0.138q-0.11008-0.0509-0.20208-0.0509-0.39266 0-0.39266 0.78368 0 0.7771 0.39266 0.7771 0.11665 0 0.25301-0.0526v0.13143q-0.0542 0.0296-0.13308 0.046-0.0789 0.0164-0.13636 0.0164z"/>
					<path d="m-507.28-144.84q0.0723 0 0.12815-0.0197v0.13143q-0.0723 0.0329-0.18565 0.0329-0.27601 0-0.27601-0.41237v-1.265h-0.161v-0.092l0.15772-0.046 0.0509-0.42387h0.10843v0.42387h0.28258v0.13801h-0.28258v1.2207q0 0.18072 0.0394 0.24644 0.0394 0.0657 0.138 0.0657z"/>
					<path d="m-506.72-144.73h-0.15608v-1.7826h0.15608zm-0.17908-2.2771q0-0.0739 0.0296-0.115 0.0312-0.0411 0.0789-0.0411 0.0444 0 0.0707 0.0411t0.0263 0.115q0 0.0707-0.0263 0.11336-0.0263 0.0411-0.0707 0.0411-0.0476 0-0.0789-0.0411-0.0296-0.0427-0.0296-0.11336z"/>
					<path d="m-505.24-145.62q0 0.45016-0.14293 0.69003-0.14129 0.23822-0.4058 0.23822-0.26123 0-0.40088-0.23822-0.138-0.23987-0.138-0.69003 0-0.92168 0.54545-0.92168 0.25629 0 0.39923 0.24151 0.14293 0.24151 0.14293 0.68017zm-0.92496 0q0 0.38609 0.092 0.58324t0.28751 0.19715q0.3828 0 0.3828-0.78039 0-0.77382-0.3828-0.77382-0.20043 0-0.2908 0.19387-0.0887 0.19386-0.0887 0.57995z"/>
					<path d="m-504.04-144.73v-1.2289q0-0.44359-0.26287-0.44359-0.20044 0-0.29408 0.16593-0.092 0.16594-0.092 0.52738v0.97918h-0.15607v-1.7826h0.13143l0.0131 0.24808h0.0148q0.0559-0.13472 0.16101-0.20865 0.10514-0.0739 0.22508-0.0739 0.20701 0 0.31051 0.13965 0.1035 0.138 0.1035 0.44523v1.2322z"/>
					<path d="m-501.45-145.93q0 0.59638-0.17908 0.91675-0.17743 0.32037-0.51423 0.32037-0.34009 0-0.51588-0.32201-0.17579-0.32366-0.17579-0.9184 0-0.62102 0.17415-0.92496t0.52245-0.30394q0.33515 0 0.51095 0.32037 0.17743 0.31872 0.17743 0.91182zm-1.2174 0q0 0.53559 0.13307 0.80996 0.13472 0.27273 0.39102 0.27273 0.25794 0 0.39101-0.27109 0.13472-0.27108 0.13472-0.8116 0-0.53395-0.13143-0.80503-0.13143-0.27273-0.38937-0.27273-0.26451 0-0.39759 0.27601-0.13143 0.27437-0.13143 0.80175z"/>
					<path d="m-499.91-144.73h-0.18072l-0.56517-1.1977-0.18565 0.2448v0.95289h-0.16101v-2.402h0.16101v1.2716q0.0838-0.15772 0.70974-1.2716h0.1758l-0.60296 1.0564z"/>
				</g>
			</g>
			<path d="m-511.33-186.63a24.457 24.457 0 0 0 -24.457 24.457 24.457 24.457 0 0 0 24.457 24.457 24.457 24.457 0 0 0 24.457 -24.457 24.457 24.457 0 0 0 -24.457 -24.457zm0.0667 1.7198a22.804 22.804 0 0 1 22.804 22.804 22.804 22.804 0 0 1 -22.804 22.804 22.804 22.804 0 0 1 -22.804 -22.804 22.804 22.804 0 0 1 22.804 -22.804z" fill="url(#c)"/>
			<path d="m-511.4-186.5a24.457 24.457 0 0 0 -24.457 24.457 24.457 24.457 0 0 0 24.457 24.457 24.457 24.457 0 0 0 24.457 -24.457 24.457 24.457 0 0 0 -24.457 -24.457zm0.0667 1.7198a22.804 22.804 0 0 1 22.804 22.804 22.804 22.804 0 0 1 -22.804 22.804 22.804 22.804 0 0 1 -22.804 -22.804 22.804 22.804 0 0 1 22.804 -22.804z" fill="url(#b)"/>
		</g>
		<circle cx="-511.47" cy="-162.18" r="24.457" fill="none" stroke="#d4aa00" stroke-dasharray="1.58700002, 1.58700002" stroke-linecap="round" stroke-linejoin="round" stroke-width=".529"/>
	</g>
</svg>
