<?xml version="1.0" encoding="UTF-8"?>
<svg width="117.26mm" height="19.676mm" version="1.1" viewBox="0 0 117.26 19.677" xmlns="http://www.w3.org/2000/svg" xmlns:cc="http://creativecommons.org/ns#" xmlns:dc="http://purl.org/dc/elements/1.1/" xmlns:rdf="http://www.w3.org/1999/02/22-rdf-syntax-ns#">
<metadata>
<rdf:RDF>
<cc:Work rdf:about="">
<dc:format>image/svg+xml</dc:format>
<dc:type rdf:resource="http://purl.org/dc/dcmitype/StillImage"/>
<dc:title/>
</cc:Work>
</rdf:RDF>
</metadata>
<path d="m0-2.6715e-4h117.26v19.677h-117.26z" fill="none"/>
<g transform="matrix(.63895 0 0 .63895 2.5477 3.6562)">
<g transform="matrix(.9517 0 0 .9517 3.2398 -93.904)">
<path d="m9.5909 107.4h2.5567v2.649h-2.5567z"/>
<path d="m12.12 107.36a1.2625 1.2625 0 0 1-1.2625 1.262 1.2625 1.2625 0 0 1-1.2625-1.262 1.2625 1.2625 0 0 1 1.2625-1.262 1.2625 1.2625 0 0 1 1.2625 1.262" stroke-linecap="round" stroke-width="1.0365"/>
<path d="m12.127 110.05a1.2625 1.2625 0 0 1-1.2625 1.262 1.2625 1.2625 0 0 1-1.2625-1.262 1.2625 1.2625 0 0 1 1.2625-1.262 1.2625 1.2625 0 0 1 1.2625 1.262" stroke-linecap="round" stroke-width="1.0365"/>
</g>
<path d="m12.174 13.987a1.2015 1.2015 0 0 1-1.2024 1.2024 1.2015 1.2015 0 0 1-1.2006-1.2024 1.2015 1.2015 0 0 1 1.2006-1.2005 1.2015 1.2015 0 0 1 1.2024 1.2005" stroke-linecap="round" stroke-width=".98647"/>
<path d="m8.2754 5.0474h2.468v5.6755h-2.468z"/>
<path d="m16.25 13.965a1.2015 1.2015 0 0 1-1.2027 1.2005 1.2015 1.2015 0 0 1-1.2004-1.2005 1.2015 1.2015 0 0 1 1.2004-1.2025 1.2015 1.2015 0 0 1 1.2027 1.2025" stroke-linecap="round" stroke-width=".98647"/>
<path d="m19.545 13.928a1.2015 1.2015 0 0 1-1.2025 1.2026 1.2015 1.2015 0 0 1-1.2003-1.2026 1.2015 1.2015 0 0 1 1.2003-1.2005 1.2015 1.2015 0 0 1 1.2025 1.2005" stroke-linecap="round" stroke-width=".98647"/>
<path d="m23.75 13.902a1.2015 1.2015 0 0 1-1.2005 1.2024 1.2015 1.2015 0 0 1-1.2025-1.2024 1.2015 1.2015 0 0 1 1.2025-1.2005 1.2015 1.2015 0 0 1 1.2005 1.2005" stroke-linecap="round" stroke-width=".98647"/>
<path d="m26.249 5.0292a1.2015 1.2015 0 0 1-1.2027 1.2004 1.2015 1.2015 0 0 1-1.2004-1.2004 1.2015 1.2015 0 0 1 1.2004-1.2026 1.2015 1.2015 0 0 1 1.2027 1.2026" stroke-linecap="round" stroke-width=".98647"/>
<g transform="matrix(.9517 0 0 .9517 6.3252 -93.961)">
<path d="m9.5909 107.4h2.5567v2.649h-2.5567z"/>
<path d="m12.12 107.36a1.2625 1.2625 0 0 1-1.2625 1.262 1.2625 1.2625 0 0 1-1.2625-1.262 1.2625 1.2625 0 0 1 1.2625-1.262 1.2625 1.2625 0 0 1 1.2625 1.262" stroke-linecap="round" stroke-width="1.0365"/>
<path d="m12.127 110.05a1.2625 1.2625 0 0 1-1.2625 1.262 1.2625 1.2625 0 0 1-1.2625-1.262 1.2625 1.2625 0 0 1 1.2625-1.262 1.2625 1.2625 0 0 1 1.2625 1.262" stroke-linecap="round" stroke-width="1.0365"/>
</g>
<g transform="matrix(.9517 0 0 .9517 9.3806 -93.988)">
<path d="m9.5909 107.4h2.5567v2.649h-2.5567z"/>
<path d="m12.12 107.36a1.2625 1.2625 0 0 1-1.2625 1.262 1.2625 1.2625 0 0 1-1.2625-1.262 1.2625 1.2625 0 0 1 1.2625-1.262 1.2625 1.2625 0 0 1 1.2625 1.262" stroke-linecap="round" stroke-width="1.0365"/>
<path d="m12.127 110.05a1.2625 1.2625 0 0 1-1.2625 1.262 1.2625 1.2625 0 0 1-1.2625-1.262 1.2625 1.2625 0 0 1 1.2625-1.262 1.2625 1.2625 0 0 1 1.2625 1.262" stroke-linecap="round" stroke-width="1.0365"/>
</g>
<g transform="matrix(.9517 0 0 .9517 13.506 -94.006)">
<path d="m9.5909 107.4h2.5567v2.649h-2.5567z"/>
<path d="m12.12 107.36a1.2625 1.2625 0 0 1-1.2625 1.262 1.2625 1.2625 0 0 1-1.2625-1.262 1.2625 1.2625 0 0 1 1.2625-1.262 1.2625 1.2625 0 0 1 1.2625 1.262" stroke-linecap="round" stroke-width="1.0365"/>
<path d="m12.127 110.05a1.2625 1.2625 0 0 1-1.2625 1.262 1.2625 1.2625 0 0 1-1.2625-1.262 1.2625 1.2625 0 0 1 1.2625-1.262 1.2625 1.2625 0 0 1 1.2625 1.262" stroke-linecap="round" stroke-width="1.0365"/>
</g>
<g transform="matrix(.9517 0 0 .9517 -.82062 -93.74)">
<path d="m9.5909 107.4h2.5567v2.649h-2.5567z"/>
<path d="m12.12 107.36a1.2625 1.2625 0 0 1-1.2625 1.262 1.2625 1.2625 0 0 1-1.2625-1.262 1.2625 1.2625 0 0 1 1.2625-1.262 1.2625 1.2625 0 0 1 1.2625 1.262" stroke-linecap="round" stroke-width="1.0365"/>
<path d="m12.127 110.05a1.2625 1.2625 0 0 1-1.2625 1.262 1.2625 1.2625 0 0 1-1.2625-1.262 1.2625 1.2625 0 0 1 1.2625-1.262 1.2625 1.2625 0 0 1 1.2625 1.262" stroke-linecap="round" stroke-width="1.0365"/>
</g>
<path d="m10.703 5.0413a1.2015 1.2015 0 0 1-1.2006 1.2025 1.2015 1.2015 0 0 1-1.2025-1.2025 1.2015 1.2015 0 0 1 1.2025-1.2004 1.2015 1.2015 0 0 1 1.2006 1.2004" stroke-linecap="round" stroke-width=".98647"/>
</g>
<g transform="matrix(2.6825 0 0 2.6825 -289.72 -275.57)" dominant-baseline="auto" stroke-width=".29098" style="font-feature-settings:normal;font-variant-alternates:normal;font-variant-caps:normal;font-variant-ligatures:normal;font-variant-numeric:normal;font-variant-position:normal;shape-padding:0;text-decoration-color:#000000;text-decoration-line:none;text-decoration-style:solid;text-indent:0;text-orientation:mixed;text-transform:none;white-space:normal" aria-label="libwebsockets.org">
<path d="m117.05 105.01v2.752h0.224v-2.752z"/>
<path d="m117.95 105.71v2.057h0.223v-2.057zm-0.04-0.695v0.318h0.297v-0.318z"/>
<path d="m118.8 105.01v2.752h0.203l0.02-0.251c0.101 0.157 0.244 0.279 0.649 0.279 0.601 0 0.81-0.307 0.81-1.083 0-0.541-0.09-1.03-0.81-1.03-0.468 0-0.594 0.196-0.649 0.283v-0.95zm0.845 0.87c0.552 0 0.618 0.339 0.618 0.855 0 0.486-0.05 0.852-0.611 0.852-0.426 0-0.632-0.181-0.632-0.852 0-0.597 0.15-0.855 0.625-0.855z"/>
<path d="m120.79 105.71 0.555 2.057h0.314l0.479-1.858 0.482 1.858h0.314l0.551-2.057h-0.23l-0.482 1.879-0.482-1.879h-0.303l-0.486 1.879-0.478-1.879z"/>
<path d="m125.54 106.8v-0.157c0-0.433-0.06-0.964-0.869-0.964-0.824 0-0.891 0.566-0.891 1.079 0 0.688 0.196 1.034 0.926 1.034 0.495 0 0.792-0.178 0.831-0.663h-0.224c-0.01 0.377-0.262 0.464-0.628 0.464-0.611 0-0.688-0.314-0.685-0.793zm-1.54-0.195c0.02-0.374 0.08-0.727 0.667-0.727 0.493 0 0.653 0.21 0.65 0.727z"/>
<path d="m126.04 105.01v2.752h0.203l0.02-0.251c0.101 0.157 0.244 0.279 0.649 0.279 0.601 0 0.81-0.307 0.81-1.083 0-0.541-0.09-1.03-0.81-1.03-0.468 0-0.593 0.196-0.649 0.283v-0.95zm0.845 0.87c0.552 0 0.618 0.339 0.618 0.855 0 0.486-0.05 0.852-0.611 0.852-0.426 0-0.632-0.181-0.632-0.852 0-0.597 0.151-0.855 0.625-0.855z"/>
<path d="m129.86 106.28c0-0.24-0.06-0.604-0.799-0.604-0.426 0-0.814 0.109-0.814 0.601 0 0.381 0.241 0.471 0.489 0.503l0.576 0.08c0.273 0.04 0.381 0.08 0.381 0.338 0 0.315-0.224 0.391-0.618 0.391-0.646 0-0.646-0.223-0.646-0.481h-0.224c0 0.279 0.04 0.684 0.852 0.684 0.37 0 0.856-0.05 0.856-0.608 0-0.415-0.294-0.492-0.486-0.516l-0.607-0.08c-0.234-0.03-0.356-0.07-0.356-0.297 0-0.192 0.06-0.408 0.593-0.408 0.583 0 0.58 0.237 0.58 0.401z"/>
<path d="m130.35 106.74c0 0.594 0.06 1.058 0.908 1.058 0.883 0 0.904-0.51 0.904-1.103 0-0.601-0.108-1.01-0.904-1.01-0.852 0-0.908 0.475-0.908 1.055zm0.908-0.852c0.569 0 0.684 0.213 0.684 0.803 0 0.636-0.05 0.904-0.684 0.904-0.584 0-0.688-0.223-0.688-0.824 0-0.6 0.04-0.883 0.688-0.883z"/>
<path d="m134.12 107.03c0 0.471-0.22 0.565-0.656 0.565-0.496 0-0.667-0.181-0.667-0.838 0-0.782 0.272-0.869 0.677-0.869 0.283 0 0.625 0.06 0.625 0.531h0.22c0.01-0.734-0.639-0.734-0.845-0.734-0.632 0-0.897 0.245-0.897 1.058 0 0.793 0.248 1.055 0.908 1.055 0.468 0 0.834-0.115 0.859-0.768z"/>
<path d="m135.05 106.64v-1.624h-0.22v2.752h0.22v-1.072l1.076 1.072h0.321l-1.149-1.1 1.041-0.957h-0.318z"/>
<path d="m138.48 106.8v-0.157c0-0.433-0.06-0.964-0.87-0.964-0.824 0-0.89 0.566-0.89 1.079 0 0.688 0.195 1.034 0.925 1.034 0.496 0 0.793-0.178 0.831-0.663h-0.223c-0.01 0.377-0.262 0.464-0.629 0.464-0.611 0-0.688-0.314-0.684-0.793zm-1.54-0.195c0.02-0.374 0.08-0.727 0.667-0.727 0.492 0 0.653 0.21 0.649 0.727z"/>
<path d="m139.29 105.71h-0.457v0.206h0.457v1.348c0 0.335 0.07 0.531 0.664 0.531 0.09 0 0.139 0 0.181-0.01v-0.209c-0.06 0-0.136 0.01-0.251 0.01-0.374 0-0.374-0.129-0.374-0.381v-1.292h0.541v-0.206h-0.541v-0.488h-0.22z"/>
<path d="m142.15 106.28c0-0.24-0.06-0.604-0.799-0.604-0.426 0-0.814 0.109-0.814 0.601 0 0.381 0.241 0.471 0.489 0.503l0.576 0.08c0.272 0.04 0.381 0.08 0.381 0.338 0 0.315-0.224 0.391-0.618 0.391-0.646 0-0.646-0.223-0.646-0.481h-0.224c0 0.279 0.04 0.684 0.852 0.684 0.37 0 0.856-0.05 0.856-0.608 0-0.415-0.294-0.492-0.486-0.516l-0.607-0.08c-0.234-0.03-0.356-0.07-0.356-0.297 0-0.192 0.06-0.408 0.593-0.408 0.583 0 0.58 0.237 0.58 0.401z"/>
<path d="m142.76 107.44v0.321h0.293v-0.321z"/>
<path d="m143.54 106.74c0 0.594 0.06 1.058 0.908 1.058 0.883 0 0.904-0.51 0.904-1.103 0-0.601-0.108-1.01-0.904-1.01-0.852 0-0.908 0.475-0.908 1.055zm0.908-0.852c0.569 0 0.684 0.213 0.684 0.803 0 0.636-0.05 0.904-0.684 0.904-0.583 0-0.688-0.223-0.688-0.824 0-0.6 0.04-0.883 0.688-0.883z"/>
<path d="m145.81 105.71v2.057h0.22v-1.337c0-0.542 0.419-0.542 0.569-0.542h0.206v-0.213c-0.37 0-0.576 0-0.775 0.259l-0.01-0.231z"/>
<path d="m149.11 105.62c-0.331 0.01-0.391 0.136-0.429 0.217-0.143-0.14-0.44-0.158-0.646-0.158-0.503 0-0.821 0.14-0.821 0.601 0 0.119 0.02 0.272 0.126 0.398-0.175 0.02-0.265 0.157-0.265 0.325 0 0.1 0.04 0.258 0.22 0.311-0.07 0.03-0.245 0.132-0.245 0.408 0 0.412 0.374 0.51 1.006 0.51 0.593 0 0.971-0.09 0.971-0.541 0-0.297-0.175-0.465-0.601-0.489l-0.922-0.06c-0.105 0-0.223-0.05-0.223-0.182 0-0.08 0.04-0.132 0.153-0.195 0.123 0.09 0.322 0.126 0.629 0.126 0.384 0 0.82-0.05 0.82-0.625 0-0.172-0.04-0.227-0.08-0.297 0.06-0.112 0.108-0.133 0.307-0.143zm-1.065 0.258c0.535 0 0.622 0.182 0.622 0.388 0 0.339-0.178 0.426-0.611 0.426-0.423 0-0.622-0.07-0.622-0.384 0-0.356 0.192-0.43 0.611-0.43zm0.206 1.512c0.36 0.02 0.556 0.06 0.556 0.308 0 0.216-0.147 0.331-0.751 0.331-0.674 0-0.8-0.1-0.8-0.345 0-0.304 0.318-0.336 0.328-0.336z"/>
</g>
</svg>
