<?xml version="1.0" encoding="UTF-8"?>
<svg width="24.78mm" height="24.78mm" version="1.1" viewBox="0 0 24.780247 24.780247" xmlns="http://www.w3.org/2000/svg" xmlns:xlink="http://www.w3.org/1999/xlink">
 <defs>
  <linearGradient id="linearGradient955" x1="66.618" x2="82.588" y1="81.176" y2="64.828" gradientTransform="matrix(.82538 0 0 .82538 -392 -92.399)" gradientUnits="userSpaceOnUse">
   <stop stop-color="#0aa70b" offset="0"/>
   <stop stop-color="#3bff39" offset="1"/>
  </linearGradient>
  <filter id="filter945" x="-.0516" y="-.0516" width="1.1032" height="1.1032" color-interpolation-filters="sRGB">
   <feGaussianBlur stdDeviation="0.58510713"/>
  </filter>
 </defs>
 <g transform="translate(342.15 43.638)">
  <circle transform="matrix(.82538 0 0 .82538 -392 -92.399)" cx="75.406" cy="74.089" r="13.607" filter="url(#filter945)" stroke="#000" stroke-linecap="round" stroke-width="1.565"/>
  <circle cx="-330.23" cy="-31.716" r="11.231" fill="url(#linearGradient955)" stroke="#000" stroke-linecap="round" stroke-width="1.2917"/>
  <g transform="matrix(.70929 0 0 .70929 -99.465 -12.686)" stroke-width=".51676px" style="font-feature-settings:normal;font-variant-caps:normal;font-variant-ligatures:normal;font-variant-numeric:normal" aria-label="Strict">
   <path d="m-330.78-33.775q0 0.73996-0.53676 1.154-0.53676 0.41407-1.4569 0.41407-0.99684 0-1.5336-0.25688v-0.62878q0.34506 0.14569 0.75147 0.23004 0.4064 0.08435 0.80514 0.08435 0.65177 0 0.9815-0.24538 0.32972-0.24921 0.32972-0.69012 0-0.29138-0.11885-0.47542-0.11502-0.18787-0.39107-0.34506-0.27221-0.15719-0.83198-0.35656-0.78213-0.27988-1.1195-0.66328-0.33356-0.3834-0.33356-1.0007 0-0.64794 0.48692-1.0313 0.48691-0.3834 1.2882-0.3834 0.83581 0 1.5374 0.30672l-0.2032 0.56743q-0.69395-0.29138-1.3496-0.29138-0.51759 0-0.80897 0.22237t-0.29138 0.61727q0 0.29138 0.10735 0.47925 0.10735 0.18403 0.36039 0.34123 0.25688 0.15336 0.78214 0.34122 0.88182 0.31439 1.2115 0.67478 0.33356 0.3604 0.33356 0.93549z"/>
   <path d="m-328.37-32.732q0.16869 0 0.32589-0.023 0.15719-0.02684 0.24921-0.05368v0.48692q-0.10352 0.04984-0.30672 0.08051-0.19937 0.03451-0.3604 0.03451-1.2192 0-1.2192-1.2844v-2.4998h-0.60194v-0.30672l0.60194-0.26455 0.26838-0.89716h0.36807v0.97384h1.2192v0.49458h-1.2192v2.4729q0 0.37957 0.18019 0.58277 0.1802 0.2032 0.49459 0.2032z"/>
   <path d="m-325.04-36.562q0.27989 0 0.50226 0.04601l-0.0882 0.59044q-0.26072-0.05751-0.46008-0.05751-0.50993 0-0.87415 0.41407-0.3604 0.41407-0.3604 1.0313v2.2544h-0.63644v-4.2021h0.52525l0.0729 0.7783h0.0307q0.23388-0.41024 0.5636-0.63261 0.32972-0.22237 0.72462-0.22237z"/>
   <path d="m-323.11-32.284h-0.63644v-4.2021h0.63644zm-0.69012-5.3408q0-0.21854 0.10735-0.31822 0.10735-0.10352 0.26838-0.10352 0.15336 0 0.26455 0.10352 0.11118 0.10352 0.11118 0.31822 0 0.2147-0.11118 0.32206-0.11119 0.10352-0.26455 0.10352-0.16103 0-0.26838-0.10352-0.10735-0.10735-0.10735-0.32206z"/>
   <path d="m-320.07-32.207q-0.91249 0-1.4147-0.55976-0.49842-0.5636-0.49842-1.5911 0-1.0543 0.50609-1.6294 0.50992-0.5751 1.4492-0.5751 0.30288 0 0.60577 0.06518 0.30288 0.06518 0.47541 0.15336l-0.19553 0.54059q-0.21087-0.08435-0.46008-0.13802-0.24921-0.05751-0.44091-0.05751-1.2806 0-1.2806 1.6333 0 0.77447 0.31055 1.1885 0.31439 0.41407 0.92783 0.41407 0.52526 0 1.0774-0.22621v0.5636q-0.42174 0.21854-1.062 0.21854z"/>
   <path d="m-316.65-32.732q0.16869 0 0.32589-0.023 0.15719-0.02684 0.24921-0.05368v0.48692q-0.10352 0.04984-0.30672 0.08051-0.19937 0.03451-0.3604 0.03451-1.2192 0-1.2192-1.2844v-2.4998h-0.60194v-0.30672l0.60194-0.26455 0.26838-0.89716h0.36806v0.97384h1.2192v0.49458h-1.2192v2.4729q0 0.37957 0.1802 0.58277 0.1802 0.2032 0.49459 0.2032z"/>
  </g>
  <g fill="#fff">
   <g transform="matrix(.70929 0 0 .70929 -99.465 -12.686)" stroke-width=".3317px" style="font-feature-settings:normal;font-variant-caps:normal;font-variant-ligatures:normal;font-variant-numeric:normal" aria-label="Content">
    <path d="m-332.67-30.173q-0.5931 0-0.93764 0.39622-0.34208 0.39376-0.34208 1.0804 0 0.70631 0.32977 1.0927 0.33224 0.38392 0.94503 0.38392 0.37653 0 0.85889-0.13536v0.36669q-0.37407 0.14028-0.92288 0.14028-0.7949 0-1.228-0.48236-0.43067-0.48236-0.43067-1.3708 0-0.55619 0.20672-0.97456 0.20919-0.41837 0.60049-0.64478 0.39376-0.22641 0.92533-0.22641 0.56603 0 0.98933 0.20672l-0.1772 0.35931q-0.40852-0.19196-0.81705-0.19196z"/>
    <path d="m-328.77-28.248q0 0.65955-0.33224 1.0312-0.33223 0.36915-0.91795 0.36915-0.36177 0-0.64233-0.16981-0.28055-0.16981-0.43313-0.48728-0.15259-0.31747-0.15259-0.74322 0-0.65955 0.32978-1.0262 0.32977-0.36915 0.91549-0.36915 0.56603 0 0.89827 0.37653 0.3347 0.37653 0.3347 1.0189zm-2.0549 0q0 0.51681 0.20672 0.78752 0.20673 0.27071 0.60787 0.27071t0.60787-0.26825q0.20918-0.27071 0.20918-0.78998 0-0.51435-0.20918-0.78014-0.20673-0.26825-0.61279-0.26825-0.40115 0-0.60541 0.26333-0.20426 0.26333-0.20426 0.78506z"/>
    <path d="m-326.21-26.897v-1.7449q0-0.32978-0.15012-0.4922-0.15012-0.16243-0.47005-0.16243-0.42329 0-0.62017 0.22887-0.19688 0.22887-0.19688 0.75553v1.4151h-0.40853v-2.6973h0.33223l0.0664 0.36915h0.0197q0.12551-0.19934 0.35192-0.30762 0.22642-0.11075 0.50451-0.11075 0.48728 0 0.73338 0.23626 0.2461 0.2338 0.2461 0.75061v1.7596z"/>
    <path d="m-324.09-27.185q0.10828 0 0.20918-0.01477 0.1009-0.01723 0.15997-0.03445v0.31255q-0.0665 0.03199-0.19688 0.05168-0.12797 0.02215-0.23134 0.02215-0.7826 0-0.7826-0.82444v-1.6046h-0.38637v-0.19688l0.38637-0.16981 0.17227-0.57588h0.23626v0.6251h0.7826v0.31747h-0.7826v1.5873q0 0.24364 0.11567 0.37407 0.11566 0.13043 0.31747 0.13043z"/>
    <path d="m-322.04-26.848q-0.59802 0-0.94502-0.36423-0.34454-0.36423-0.34454-1.0115 0-0.65217 0.31993-1.0361 0.32239-0.38392 0.86381-0.38392 0.50697 0 0.80229 0.3347 0.29532 0.33224 0.29532 0.87858v0.25841h-1.8581q0.0123 0.47497 0.23872 0.72107 0.22887 0.2461 0.64232 0.2461 0.4356 0 0.86135-0.18212v0.36423q-0.21657 0.09352-0.41099 0.13289-0.19195 0.04184-0.46513 0.04184zm-0.11074-2.4536q-0.32485 0-0.51927 0.21165-0.19196 0.21165-0.22642 0.58572h1.4102q0-0.38638-0.17227-0.59064-0.17227-0.20672-0.4922-0.20672z"/>
    <path d="m-318.51-26.897v-1.7449q0-0.32978-0.15012-0.4922-0.15013-0.16243-0.47006-0.16243-0.42329 0-0.62017 0.22887-0.19688 0.22887-0.19688 0.75553v1.4151h-0.40853v-2.6973h0.33224l0.0664 0.36915h0.0197q0.12552-0.19934 0.35193-0.30762 0.22641-0.11075 0.5045-0.11075 0.48728 0 0.73338 0.23626 0.2461 0.2338 0.2461 0.75061v1.7596z"/>
    <path d="m-316.4-27.185q0.10829 0 0.20919-0.01477 0.1009-0.01723 0.15996-0.03445v0.31255q-0.0664 0.03199-0.19688 0.05168-0.12797 0.02215-0.23133 0.02215-0.7826 0-0.7826-0.82444v-1.6046h-0.38638v-0.19688l0.38638-0.16981 0.17227-0.57588h0.23625v0.6251h0.7826v0.31747h-0.7826v1.5873q0 0.24364 0.11567 0.37407 0.11567 0.13043 0.31747 0.13043z"/>
   </g>
   <g transform="matrix(.70929 0 0 .70929 -99.465 -12.686)" stroke-width=".32428px" style="font-feature-settings:normal;font-variant-caps:normal;font-variant-ligatures:normal;font-variant-numeric:normal" aria-label="Security">
    <path d="m-332.03-22.859q0 0.46434-0.33683 0.72417-0.33682 0.25984-0.91423 0.25984-0.62553 0-0.96236-0.1612v-0.39456q0.21653 0.09142 0.47155 0.14435 0.25503 0.05293 0.50524 0.05293 0.409 0 0.61591-0.15398 0.20691-0.15638 0.20691-0.43306 0-0.18285-0.0746-0.29833-0.0722-0.11789-0.2454-0.21653-0.17082-0.09864-0.52208-0.22375-0.4908-0.17563-0.70252-0.41622-0.20931-0.24059-0.20931-0.62794 0-0.4066 0.30555-0.64718t0.80838-0.24059q0.52448 0 0.96476 0.19247l-0.12751 0.35607q-0.43547-0.18285-0.84687-0.18285-0.3248 0-0.50765 0.13954-0.18284 0.13954-0.18284 0.38735 0 0.18285 0.0674 0.30074 0.0674 0.11548 0.22615 0.21412 0.1612 0.09624 0.4908 0.21412 0.55336 0.19728 0.76027 0.42344 0.20931 0.22615 0.20931 0.58704z"/>
    <path d="m-330.26-21.875q-0.58463 0-0.92386-0.35607-0.33683-0.35607-0.33683-0.98882 0-0.63756 0.31277-1.0129 0.31517-0.37532 0.84446-0.37532 0.49562 0 0.78432 0.3272 0.28871 0.3248 0.28871 0.8589v0.25262h-1.8164q0.012 0.46434 0.23338 0.70492 0.22374 0.24059 0.62793 0.24059 0.42584 0 0.84206-0.17804v0.35607q-0.21171 0.09142-0.40178 0.12992-0.18766 0.0409-0.45471 0.0409zm-0.10827-2.3987q-0.31757 0-0.50764 0.20691-0.18766 0.20691-0.22134 0.5726h1.3786q0-0.37772-0.16841-0.57741-0.16841-0.2021-0.48118-0.2021z"/>
    <path d="m-327.56-21.875q-0.5726 0-0.88777-0.35126-0.31277-0.35366-0.31277-0.99844 0-0.66162 0.31758-1.0225 0.31998-0.36088 0.90942-0.36088 0.19007 0 0.38013 0.0409 0.19007 0.0409 0.29833 0.09624l-0.1227 0.33923q-0.13232-0.05293-0.2887-0.08661-0.15639-0.03609-0.27668-0.03609-0.80357 0-0.80357 1.0249 0 0.48599 0.19488 0.74582 0.19728 0.25984 0.58223 0.25984 0.3296 0 0.67605-0.14195v0.35366q-0.26465 0.13714-0.66643 0.13714z"/>
    <path d="m-325.89-24.56v1.7106q0 0.32239 0.14676 0.48118 0.14675 0.15879 0.45952 0.15879 0.41381 0 0.60388-0.22615 0.19247-0.22615 0.19247-0.73861v-1.3858h0.39938v2.6369h-0.32961l-0.0577-0.35367h-0.0217q-0.1227 0.19488-0.34163 0.29833-0.21653 0.10345-0.49561 0.10345-0.48118 0-0.72177-0.22856-0.23818-0.22856-0.23818-0.73139v-1.725z"/>
    <path d="m-322.04-24.608q0.17563 0 0.31517 0.02887l-0.0553 0.37051q-0.1636-0.03609-0.2887-0.03609-0.31999 0-0.54855 0.25984-0.22615 0.25984-0.22615 0.64718v1.4147h-0.39938v-2.6369h0.32961l0.0457 0.4884h0.0192q0.14676-0.25743 0.35366-0.39697 0.20691-0.13954 0.45472-0.13954z"/>
    <path d="m-320.83-21.923h-0.39938v-2.6369h0.39938zm-0.43306-3.3514q0-0.13714 0.0674-0.19969 0.0674-0.06496 0.16841-0.06496 0.0962 0 0.16601 0.06496 0.0698 0.06496 0.0698 0.19969 0 0.13473-0.0698 0.2021-0.0698 0.06496-0.16601 0.06496-0.10105 0-0.16841-0.06496-0.0674-0.06736-0.0674-0.2021z"/>
    <path d="m-319.13-22.205q0.10586 0 0.2045-0.01443 0.0986-0.01684 0.15638-0.03368v0.30555q-0.065 0.03128-0.19247 0.05052-0.1251 0.02165-0.22615 0.02165-0.76507 0-0.76507-0.80597v-1.5686h-0.37773v-0.19247l0.37773-0.16601 0.16841-0.56298h0.23096v0.6111h0.76508v0.31036h-0.76508v1.5518q0 0.23818 0.11308 0.3657t0.31036 0.12751z"/>
    <path d="m-318.66-24.56h0.42825l0.57742 1.5037q0.19006 0.51486 0.23577 0.74342h0.0192q0.0313-0.1227 0.12992-0.41862 0.10105-0.29833 0.6544-1.8285h0.42825l-1.1332 3.0025q-0.16841 0.44509-0.39456 0.63034-0.22375 0.18766-0.55095 0.18766-0.18285 0-0.36088-0.0409v-0.31998q0.13232 0.02887 0.29592 0.02887 0.41141 0 0.58704-0.46193l0.14676-0.37532z"/>
   </g>
   <g transform="matrix(.70929 0 0 .70929 -99.465 -12.686)" stroke-width=".32334px" style="font-feature-settings:normal;font-variant-caps:normal;font-variant-ligatures:normal;font-variant-numeric:normal" aria-label="Policy">
    <path d="m-329.37-19.254q0 0.53256-0.36464 0.82043-0.36224 0.28547-1.0387 0.28547h-0.41261v1.3794h-0.40782v-3.5072h0.90919q1.3146 0 1.3146 1.0219zm-1.816 0.75566h0.36703q0.54215 0 0.78445-0.17512 0.24229-0.17512 0.24229-0.56135 0-0.34784-0.2279-0.51817t-0.71008-0.17032h-0.45579z"/>
    <path d="m-326.43-18.086q0 0.64291-0.32386 1.0051-0.32385 0.35984-0.89479 0.35984-0.35264 0-0.62612-0.16552t-0.42221-0.47498q-0.14873-0.30946-0.14873-0.72447 0-0.64291 0.32145-1.0003 0.32146-0.35984 0.8924-0.35984 0.55175 0 0.8756 0.36703 0.32626 0.36704 0.32626 0.99315zm-2.0031 0q0 0.50377 0.20151 0.76765t0.59253 0.26388q0.39103 0 0.59254-0.26148 0.2039-0.26388 0.2039-0.77005 0-0.50137-0.2039-0.76046-0.20151-0.26148-0.59733-0.26148-0.39103 0-0.59014 0.25668-0.19911 0.25668-0.19911 0.76525z"/>
    <path d="m-325.33-16.769h-0.39822v-3.7327h0.39822z"/>
    <path d="m-324.09-16.769h-0.39822v-2.6292h0.39822zm-0.43181-3.3417q0-0.13674 0.0672-0.19911 0.0672-0.06477 0.16793-0.06477 0.0959 0 0.16552 0.06477 0.0696 0.06477 0.0696 0.19911t-0.0696 0.20151q-0.0696 0.06477-0.16552 0.06477-0.10076 0-0.16793-0.06477-0.0672-0.06717-0.0672-0.20151z"/>
    <path d="m-322.19-16.721q-0.57094 0-0.8852-0.35024-0.31186-0.35264-0.31186-0.99555 0-0.6597 0.31666-1.0195 0.31906-0.35984 0.90679-0.35984 0.18951 0 0.37903 0.04078 0.18951 0.04078 0.29746 0.09596l-0.12234 0.33825q-0.13194-0.05278-0.28787-0.08636-0.15593-0.03598-0.27588-0.03598-0.80123 0-0.80123 1.0219 0 0.48458 0.19431 0.74366 0.19671 0.25908 0.58054 0.25908 0.32865 0 0.67409-0.14154v0.35264q-0.26388 0.13674-0.6645 0.13674z"/>
    <path d="m-321.31-19.398h0.427l0.57574 1.4993q0.18952 0.51337 0.2351 0.74127h0.0192q0.0312-0.12234 0.12954-0.41741 0.10076-0.29747 0.65251-1.8232h0.427l-1.1299 2.9938q-0.16792 0.4438-0.39342 0.62852-0.2231 0.18712-0.54935 0.18712-0.18232 0-0.35984-0.04078v-0.31906q0.13194 0.02879 0.29507 0.02879 0.41021 0 0.58533-0.46059l0.14634-0.37423z"/>
   </g>
  </g>
 </g>
</svg>
