<?xml version="1.0" encoding="UTF-8"?>
<!-- Created with Inkscape (http://www.inkscape.org/) -->
<svg width="135.09mm" height="108.45mm" version="1.1" viewBox="0 0 135.09 108.45" xmlns="http://www.w3.org/2000/svg" xmlns:cc="http://creativecommons.org/ns#" xmlns:dc="http://purl.org/dc/elements/1.1/" xmlns:rdf="http://www.w3.org/1999/02/22-rdf-syntax-ns#">
 <defs>
  <marker id="Arrow1Send" overflow="visible" orient="auto">
   <path transform="matrix(-.2 0 0 -.2 -1.2 0)" d="m0 0 5-5-17.5 5 17.5 5z" fill-rule="evenodd" stroke="#000" stroke-width="1pt"/>
  </marker>
  <filter id="filter5390" x="-.017241" y="-.021661" width="1.0345" height="1.0433" color-interpolation-filters="sRGB">
   <feGaussianBlur stdDeviation="0.9381369"/>
  </filter>
 </defs>
 <metadata>
  <rdf:RDF>
   <cc:Work rdf:about="">
    <dc:format>image/svg+xml</dc:format>
    <dc:type rdf:resource="http://purl.org/dc/dcmitype/StillImage"/>
    <dc:title/>
   </cc:Work>
  </rdf:RDF>
 </metadata>
 <g transform="translate(685.16 63.384)">
  <path d="m-682.91-61.132h130.59v103.94h-130.59z" filter="url(#filter5390)"/>
  <path d="m-683.76-62.077h130.59v103.94h-130.59z" fill="#fff"/>
  <path d="m-638.59-45.824h40.632v75.595h-40.632z" fill="#b3b3b3" stroke-width=".28911"/>
  <path d="m-623.19-7.1763h54.618v33.451h-54.618z" fill="#999" stroke="#999" stroke-width=".22298"/>
  <path d="m-667.79-43.462h62.177v33.451h-62.177z" fill="#ccc" stroke-width=".23791"/>
  <g>
   <g stroke-width=".15691" aria-label="lws_abstract_t">
    <path d="m-637.65-49.09q0 0.21968 0.0565 0.31383 0.0628 0.09415 0.16947 0.09415 0.1318 0 0.30755-0.06904l0.0439 0.36404q-0.0816 0.05021-0.23223 0.0816-0.14436 0.03138-0.26362 0.03138-0.2385 0-0.38914-0.14436-0.14436-0.15064-0.14436-0.52095v-3.7973h0.45191z"/>
    <path d="m-635-51.482 0.55861 1.8328 0.11298 0.60255h0.0125l0.0942-0.6151 0.42681-1.8202h0.4268l-0.83478 3.2073h-0.25734l-0.63393-2.0587-0.0879-0.52723h-0.0126l-0.0879 0.53351-0.61511 2.0524h-0.25733l-0.85989-3.2073h0.48329l0.4833 1.8265 0.0753 0.60882h0.0125l0.11298-0.62138 0.51467-1.8139z"/>
    <path d="m-633.02-48.858q0.12553 0.07532 0.295 0.13181 0.17574 0.05021 0.35776 0.05021 0.20713 0 0.35149-0.10042 0.14436-0.1067 0.14436-0.33893 0-0.19457-0.0879-0.3201-0.0879-0.12553-0.22596-0.22596-0.13181-0.10042-0.28872-0.18202-0.15691-0.08787-0.295-0.20713-0.1318-0.11925-0.21968-0.28244-0.0879-0.16319-0.0879-0.41425 0-0.4017 0.2134-0.60255 0.21968-0.20713 0.61511-0.20713 0.25733 0 0.44563 0.05021 0.1883 0.04393 0.32638 0.12553l-0.11925 0.37659q-0.11926-0.06276-0.27617-0.10042-0.15692-0.04393-0.32011-0.04393-0.22595 0-0.33265 0.09415-0.10043 0.09415-0.10043 0.295 0 0.15691 0.0879 0.26989 0.0879 0.1067 0.21968 0.20085 0.13809 0.08787 0.295 0.18202 0.15692 0.09415 0.28872 0.22596 0.13809 0.12553 0.22596 0.30755 0.0879 0.17574 0.0879 0.44564 0 0.17574-0.0565 0.33266t-0.17574 0.27617q-0.11298 0.11298-0.28872 0.18202-0.16947 0.06904-0.4017 0.06904-0.27617 0-0.47702-0.05649-0.20085-0.05021-0.33893-0.13808z"/>
    <path d="m-631.22-47.465h2.0964v0.40798h-2.0964z"/>
    <path d="m-628.79-51.293q0.18202-0.11298 0.43936-0.17574 0.26362-0.06277 0.55234-0.06277 0.26361 0 0.42053 0.0816 0.16319 0.07532 0.25106 0.2134 0.0942 0.13181 0.11925 0.30755 0.0314 0.16947 0.0314 0.35776 0 0.37659-0.0188 0.73436-0.0126 0.35776-0.0126 0.67787 0 0.23851 0.0126 0.44564 0.0188 0.20085 0.0628 0.38287h-0.34521l-0.1067-0.37032h-0.0251q-0.0941 0.16319-0.27616 0.28244-0.18202 0.11925-0.48957 0.11925-0.33894 0-0.55862-0.23223-0.2134-0.23851-0.2134-0.65276 0-0.26989 0.0879-0.45191 0.0942-0.18202 0.25734-0.295 0.16947-0.11298 0.39542-0.15691 0.23224-0.05021 0.51468-0.05021 0.0628 0 0.12553 0 0.0628 0 0.13181 0.0063 0.0188-0.19457 0.0188-0.34521 0-0.35776-0.1067-0.50212-0.1067-0.14436-0.38915-0.14436-0.17574 0-0.38287 0.05649-0.20712 0.05021-0.34521 0.13181zm1.362 1.5189q-0.0628-0.0063-0.12553-0.0063-0.0628-0.0063-0.12553-0.0063-0.15063 0-0.29499 0.02511-0.14437 0.02511-0.25734 0.08787-0.11298 0.06277-0.18202 0.16947-0.0628 0.1067-0.0628 0.26989 0 0.25106 0.11926 0.38915 0.12553 0.13808 0.3201 0.13808 0.26361 0 0.40798-0.12553 0.14436-0.12553 0.20084-0.27617z"/>
    <path d="m-626.24-52.737h0.45191v1.4938h0.0188q0.25734-0.31383 0.68414-0.31383 0.48329 0 0.7218 0.38287 0.24479 0.38287 0.24479 1.2114 0 0.84733-0.32638 1.2616-0.32011 0.41425-0.9101 0.41425-0.28872 0-0.52723-0.06277-0.23851-0.06904-0.35776-0.15691zm0.45191 3.9354q0.0879 0.05021 0.2134 0.0816 0.13181 0.02511 0.27617 0.02511 0.32638 0 0.51467-0.30755 0.19458-0.31383 0.19458-0.96031 0-0.26989-0.0377-0.48329-0.0314-0.21968-0.1067-0.37659-0.069-0.15691-0.1883-0.23851-0.11298-0.08787-0.27617-0.08787-0.22595 0-0.37659 0.13808-0.14436 0.13181-0.2134 0.36404z"/>
    <path d="m-623.57-48.858q0.12554 0.07532 0.295 0.13181 0.17575 0.05021 0.35777 0.05021 0.20712 0 0.35148-0.10042 0.14436-0.1067 0.14436-0.33893 0-0.19457-0.0879-0.3201-0.0879-0.12553-0.22595-0.22596-0.13181-0.10042-0.28873-0.18202-0.15691-0.08787-0.29499-0.20713-0.13181-0.11925-0.21968-0.28244-0.0879-0.16319-0.0879-0.41425 0-0.4017 0.2134-0.60255 0.21968-0.20713 0.6151-0.20713 0.25734 0 0.44563 0.05021 0.1883 0.04393 0.32638 0.12553l-0.11925 0.37659q-0.11925-0.06276-0.27617-0.10042-0.15691-0.04393-0.3201-0.04393-0.22596 0-0.33266 0.09415-0.10042 0.09415-0.10042 0.295 0 0.15691 0.0879 0.26989 0.0879 0.1067 0.21968 0.20085 0.13808 0.08787 0.295 0.18202 0.15691 0.09415 0.28872 0.22596 0.13808 0.12553 0.22595 0.30755 0.0879 0.17574 0.0879 0.44564 0 0.17574-0.0565 0.33266t-0.17574 0.27617q-0.11298 0.11298-0.28872 0.18202-0.16947 0.06904-0.4017 0.06904-0.27617 0-0.47702-0.05649-0.20085-0.05021-0.33893-0.13808z"/>
    <path d="m-621.71-51.482h0.38287v-0.62138l0.45191-0.14436v0.76574h0.67786v0.40798h-0.67786v1.8704q0 0.27617 0.0628 0.4017 0.069 0.11925 0.21968 0.11925 0.12553 0 0.2134-0.02511 0.0942-0.03138 0.20085-0.07532l0.0879 0.35776q-0.13809 0.06904-0.30756 0.1067-0.16319 0.04394-0.34521 0.04394-0.31382 0-0.45191-0.20085-0.1318-0.20713-0.1318-0.66531v-1.9332h-0.38287z"/>
    <path d="m-619.67-51.482h0.32011l0.0816 0.33266h0.0188q0.0879-0.18202 0.22596-0.28244 0.14436-0.1067 0.34521-0.1067 0.14436 0 0.32638 0.05649l-0.0879 0.45819q-0.16319-0.05649-0.28872-0.05649-0.20085 0-0.32638 0.11925-0.12554 0.11298-0.16319 0.30755v2.3098h-0.45192z"/>
    <path d="m-617.99-51.293q0.18201-0.11298 0.43935-0.17574 0.26362-0.06277 0.55234-0.06277 0.26361 0 0.42053 0.0816 0.16319 0.07532 0.25106 0.2134 0.0941 0.13181 0.11925 0.30755 0.0314 0.16947 0.0314 0.35776 0 0.37659-0.0188 0.73436-0.0126 0.35776-0.0126 0.67787 0 0.23851 0.0126 0.44564 0.0188 0.20085 0.0628 0.38287h-0.34521l-0.1067-0.37032h-0.0251q-0.0941 0.16319-0.27616 0.28244-0.18202 0.11925-0.48957 0.11925-0.33894 0-0.55862-0.23223-0.2134-0.23851-0.2134-0.65276 0-0.26989 0.0879-0.45191 0.0942-0.18202 0.25734-0.295 0.16947-0.11298 0.39542-0.15691 0.23224-0.05021 0.51468-0.05021 0.0628 0 0.12553 0 0.0628 0 0.13181 0.0063 0.0188-0.19457 0.0188-0.34521 0-0.35776-0.1067-0.50212-0.1067-0.14436-0.38915-0.14436-0.17574 0-0.38287 0.05649-0.20712 0.05021-0.34521 0.13181zm1.362 1.5189q-0.0628-0.0063-0.12554-0.0063-0.0628-0.0063-0.12553-0.0063-0.15063 0-0.29499 0.02511t-0.25734 0.08787q-0.11298 0.06277-0.18202 0.16947-0.0628 0.1067-0.0628 0.26989 0 0.25106 0.11926 0.38915 0.12553 0.13808 0.3201 0.13808 0.26362 0 0.40798-0.12553t0.20085-0.27617z"/>
    <path d="m-613.71-48.5q-0.15691 0.11925-0.35776 0.17574-0.20085 0.05649-0.42053 0.05649-0.30127 0-0.5084-0.11298-0.20712-0.11925-0.33893-0.33266-0.12553-0.21968-0.1883-0.52095-0.0565-0.30755-0.0565-0.67787 0-0.8034 0.28245-1.2239 0.28872-0.42053 0.82222-0.42053 0.24479 0 0.42053 0.04394 0.17575 0.04394 0.30128 0.11298l-0.12553 0.39542q-0.25107-0.14436-0.54606-0.14436-0.33894 0-0.51468 0.30127-0.16947 0.295-0.16947 0.9352 0 0.25734 0.0377 0.48329t0.12553 0.39542q0.0879 0.16319 0.22596 0.26362 0.13808 0.09415 0.34521 0.09415 0.16319 0 0.30127-0.05649 0.14436-0.05649 0.23224-0.13181z"/>
    <path d="m-613.53-51.482h0.38286v-0.62138l0.45192-0.14436v0.76574h0.67786v0.40798h-0.67786v1.8704q0 0.27617 0.0628 0.4017 0.069 0.11925 0.21968 0.11925 0.12553 0 0.2134-0.02511 0.0942-0.03138 0.20085-0.07532l0.0879 0.35776q-0.13808 0.06904-0.30755 0.1067-0.16319 0.04394-0.34521 0.04394-0.31382 0-0.45191-0.20085-0.13181-0.20713-0.13181-0.66531v-1.9332h-0.38286z"/>
    <path d="m-611.85-47.465h2.0964v0.40798h-2.0964z"/>
    <path d="m-609.7-51.482h0.38286v-0.62138l0.45192-0.14436v0.76574h0.67786v0.40798h-0.67786v1.8704q0 0.27617 0.0628 0.4017 0.069 0.11925 0.21968 0.11925 0.12553 0 0.2134-0.02511 0.0942-0.03138 0.20085-0.07532l0.0879 0.35776q-0.13808 0.06904-0.30755 0.1067-0.16319 0.04394-0.34521 0.04394-0.31382 0-0.45191-0.20085-0.13181-0.20713-0.13181-0.66531v-1.9332h-0.38286z"/>
   </g>
   <g>
    <g dominant-baseline="auto" stroke-width=".10741" style="font-feature-settings:normal;font-variant-alternates:normal;font-variant-caps:normal;font-variant-ligatures:normal;font-variant-numeric:normal;font-variant-position:normal;shape-padding:0;text-decoration-color:#000000;text-decoration-line:none;text-decoration-style:solid;text-indent:0;text-orientation:mixed;text-transform:none;white-space:normal" aria-label="tx client_conn close ask_for_writeable set_timeout state">
     <path d="m-634.61-40.733h0.26209v-0.42536l0.30935-0.09882v0.52418h0.46403v0.27928h-0.46403v1.2804q0 0.18905 0.043 0.27498 0.0473 0.08163 0.15038 0.08163 0.0859 0 0.14608-0.01719 0.0644-0.02148 0.13749-0.05156l0.0602 0.2449q-0.0945 0.04726-0.21053 0.07304-0.11171 0.03008-0.23631 0.03008-0.21483 0-0.30935-0.13749-0.0902-0.14179-0.0902-0.45543v-1.3233h-0.26209z"/>
     <path d="m-632.83-39.684-0.56715-1.0484h0.3695l0.31795 0.6144 0.0859 0.24061 0.0902-0.24061 0.32653-0.6144h0.33943l-0.57144 1.0312 0.60581 1.1171h-0.35231l-0.36091-0.67456-0.0945-0.25779-0.0988 0.25779-0.36091 0.67456h-0.33942z"/>
     <path d="m-633.21-33.321q-0.10742 0.08163-0.24491 0.1203-0.13749 0.03867-0.28786 0.03867-0.20624 0-0.34802-0.07734-0.14179-0.08163-0.23202-0.22772-0.0859-0.15038-0.12889-0.35661-0.0387-0.21053-0.0387-0.46403 0-0.54996 0.19334-0.83783 0.19764-0.28787 0.56285-0.28787 0.16756 0 0.28787 0.03008 0.1203 0.03008 0.20623 0.07734l-0.0859 0.27068q-0.17186-0.09882-0.3738-0.09882-0.23201 0-0.35232 0.20623-0.116 0.20194-0.116 0.64018 0 0.17616 0.0258 0.33083 0.0258 0.15468 0.0859 0.27068 0.0601 0.11171 0.15467 0.18046 0.0945 0.06445 0.23631 0.06445 0.11171 0 0.20624-0.03867 0.0988-0.03867 0.15897-0.09023z"/>
     <path d="m-632.54-33.725q0 0.15038 0.0387 0.21483 0.043 0.06445 0.11601 0.06445 0.0902 0 0.21053-0.04726l0.0301 0.2492q-0.0558 0.03437-0.15897 0.05586-0.0988 0.02148-0.18045 0.02148-0.16327 0-0.26639-0.09882-0.0988-0.10312-0.0988-0.35661v-2.5994h0.30935z"/>
     <path d="m-631.82-35.362h0.30935v2.1483h-0.30935zm-0.0559-0.65307q0-0.10312 0.0559-0.16756 0.0602-0.06445 0.15467-0.06445 0.0945 0 0.15468 0.06445 0.0644 0.06015 0.0644 0.16756 0 0.10312-0.0644 0.16327-0.0602 0.05586-0.15468 0.05586-0.0945 0-0.15467-0.06015-0.0559-0.06015-0.0559-0.15897z"/>
     <path d="m-629.66-33.36q-0.10312 0.09452-0.26209 0.14608-0.15897 0.05156-0.33513 0.05156-0.20194 0-0.35232-0.07734-0.14608-0.08163-0.2449-0.22772-0.0945-0.15038-0.14178-0.35661-0.043-0.20623-0.043-0.46403 0-0.54996 0.20194-0.83783 0.20193-0.28787 0.57144-0.28787 0.1203 0 0.23631 0.03008 0.1203 0.03008 0.21482 0.1203 0.0945 0.09023 0.15038 0.2535 0.0602 0.16327 0.0602 0.42536 0 0.07304-9e-3 0.15897-4e-3 0.08163-0.0129 0.17186h-1.0913q0 0.18475 0.0301 0.33513t0.0945 0.25779q0.0644 0.10312 0.16327 0.16327 0.10312 0.05586 0.25349 0.05586 0.11601 0 0.22772-0.04297 0.11601-0.04297 0.17616-0.10312zm-0.24061-1.1515q9e-3 -0.32224-0.0902-0.47262-0.0988-0.15038-0.27069-0.15038-0.19764 0-0.31364 0.15038-0.11601 0.15038-0.13749 0.47262z"/>
     <path d="m-628.07-33.214v-1.3104q0-0.32224-0.0773-0.46403-0.0731-0.14608-0.26639-0.14608-0.17186 0-0.28357 0.10312t-0.16327 0.2535v1.5639h-0.30935v-2.1483h0.22342l0.0558 0.22772h0.0129q0.0816-0.11601 0.21913-0.19764 0.14178-0.08163 0.33513-0.08163 0.13749 0 0.2406 0.03867 0.10742 0.03867 0.17616 0.13319 0.073 0.09023 0.10742 0.2449 0.0387 0.15468 0.0387 0.39099v1.3921z"/>
     <path d="m-627.5-35.362h0.26209v-0.42536l0.30935-0.09882v0.52418h0.46403v0.27928h-0.46403v1.2804q0 0.18905 0.043 0.27498 0.0473 0.08163 0.15037 0.08163 0.0859 0 0.14609-0.01719 0.0644-0.02148 0.13749-0.05156l0.0602 0.2449q-0.0945 0.04726-0.21053 0.07304-0.11171 0.03008-0.23631 0.03008-0.21483 0-0.30935-0.13749-0.0902-0.14179-0.0902-0.45543v-1.3233h-0.26209z"/>
     <path d="m-626.35-32.612h1.435v0.27928h-1.435z"/>
     <path d="m-623.48-33.321q-0.10742 0.08163-0.24491 0.1203-0.13748 0.03867-0.28786 0.03867-0.20624 0-0.34802-0.07734-0.14179-0.08163-0.23202-0.22772-0.0859-0.15038-0.12889-0.35661-0.0387-0.21053-0.0387-0.46403 0-0.54996 0.19334-0.83783 0.19764-0.28787 0.56285-0.28787 0.16756 0 0.28787 0.03008 0.1203 0.03008 0.20623 0.07734l-0.0859 0.27068q-0.17186-0.09882-0.3738-0.09882-0.23201 0-0.35231 0.20623-0.11601 0.20194-0.11601 0.64018 0 0.17616 0.0258 0.33083 0.0258 0.15468 0.0859 0.27068 0.0602 0.11171 0.15467 0.18046 0.0945 0.06445 0.23631 0.06445 0.11171 0 0.20624-0.03867 0.0988-0.03867 0.15897-0.09023z"/>
     <path d="m-623.31-34.288q0-0.58003 0.19764-0.85072 0.20194-0.27498 0.57144-0.27498 0.39528 0 0.58003 0.27928 0.18905 0.27928 0.18905 0.84642 0 0.58433-0.20194 0.85501-0.20193 0.27068-0.56714 0.27068-0.39528 0-0.58433-0.27928-0.18475-0.27928-0.18475-0.84642zm0.32224 0q0 0.18905 0.0215 0.34372 0.0258 0.15468 0.0773 0.26639 0.0559 0.11171 0.14179 0.17616 0.0859 0.06015 0.20623 0.06015 0.22342 0 0.33513-0.19764 0.11171-0.20194 0.11171-0.64878 0-0.18475-0.0258-0.33943-0.0215-0.15897-0.0773-0.27068-0.0516-0.11171-0.13749-0.17186-0.0859-0.06445-0.20623-0.06445-0.21912 0-0.33513 0.20194-0.11171 0.20194-0.11171 0.64448z"/>
     <path d="m-620.26-33.214v-1.3104q0-0.32224-0.0773-0.46403-0.073-0.14608-0.26638-0.14608-0.17187 0-0.28358 0.10312t-0.16326 0.2535v1.5639h-0.30935v-2.1483h0.22342l0.0558 0.22772h0.0129q0.0816-0.11601 0.21912-0.19764 0.14179-0.08163 0.33513-0.08163 0.13749 0 0.24061 0.03867 0.10741 0.03867 0.17616 0.13319 0.073 0.09023 0.10741 0.2449 0.0387 0.15468 0.0387 0.39099v1.3921z"/>
     <path d="m-618.37-33.214v-1.3104q0-0.32224-0.0773-0.46403-0.073-0.14608-0.26639-0.14608-0.17186 0-0.28357 0.10312t-0.16327 0.2535v1.5639h-0.30935v-2.1483h0.22342l0.0559 0.22772h0.0129q0.0816-0.11601 0.21912-0.19764 0.14179-0.08163 0.33513-0.08163 0.13749 0 0.24061 0.03867 0.10741 0.03867 0.17616 0.13319 0.073 0.09023 0.10741 0.2449 0.0387 0.15468 0.0387 0.39099v1.3921z"/>
     <path d="m-633.21-27.951q-0.10742 0.08163-0.24491 0.1203-0.13749 0.03867-0.28786 0.03867-0.20624 0-0.34802-0.07734-0.14179-0.08163-0.23202-0.22772-0.0859-0.15038-0.12889-0.35661-0.0387-0.21053-0.0387-0.46403 0-0.54996 0.19334-0.83782 0.19764-0.28787 0.56285-0.28787 0.16756 0 0.28787 0.03008 0.1203 0.03008 0.20623 0.07734l-0.0859 0.27068q-0.17186-0.09882-0.3738-0.09882-0.23201 0-0.35232 0.20623-0.116 0.20194-0.116 0.64018 0 0.17616 0.0258 0.33083 0.0258 0.15468 0.0859 0.27068 0.0601 0.11171 0.15467 0.18046 0.0945 0.06445 0.23631 0.06445 0.11171 0 0.20624-0.03867 0.0988-0.03867 0.15897-0.09023z"/>
     <path d="m-632.54-28.354q0 0.15038 0.0387 0.21483 0.043 0.06445 0.11601 0.06445 0.0902 0 0.21053-0.04726l0.0301 0.2492q-0.0558 0.03437-0.15897 0.05586-0.0988 0.02148-0.18045 0.02148-0.16327 0-0.26639-0.09882-0.0988-0.10312-0.0988-0.35661v-2.5994h0.30935z"/>
     <path d="m-631.97-28.917q0-0.58003 0.19764-0.85072 0.20194-0.27498 0.57144-0.27498 0.39529 0 0.58004 0.27928 0.18904 0.27928 0.18904 0.84642 0 0.58433-0.20193 0.85501-0.20194 0.27068-0.56715 0.27068-0.39528 0-0.58433-0.27928-0.18475-0.27928-0.18475-0.84642zm0.32224 0q0 0.18905 0.0215 0.34372 0.0258 0.15468 0.0773 0.26639 0.0559 0.11171 0.14179 0.17616 0.0859 0.06015 0.20623 0.06015 0.22342 0 0.33513-0.19764 0.11171-0.20194 0.11171-0.64878 0-0.18475-0.0258-0.33943-0.0215-0.15897-0.0773-0.27068-0.0516-0.11171-0.13749-0.17186-0.0859-0.06445-0.20624-0.06445-0.21912 0-0.33513 0.20194-0.11171 0.20194-0.11171 0.64448z"/>
     <path d="m-630.05-28.195q0.0859 0.05156 0.20193 0.09023 0.12031 0.03437 0.24491 0.03437 0.14178 0 0.2406-0.06874 0.0988-0.07304 0.0988-0.23201 0-0.13319-0.0602-0.21912-0.0602-0.08593-0.15467-0.15468-0.0902-0.06874-0.19764-0.1246-0.10742-0.06015-0.20194-0.14179-0.0902-0.08163-0.15038-0.19334-0.0601-0.11171-0.0601-0.28357 0-0.27498 0.14608-0.41247 0.15038-0.14179 0.42106-0.14179 0.17616 0 0.30506 0.03437 0.12889 0.03008 0.22342 0.08593l-0.0816 0.25779q-0.0816-0.04296-0.18905-0.06874-0.10741-0.03008-0.21912-0.03008-0.15468 0-0.22772 0.06445-0.0687 0.06445-0.0687 0.20194 0 0.10741 0.0601 0.18475 0.0602 0.07304 0.15038 0.13749 0.0945 0.06015 0.20194 0.1246 0.10741 0.06445 0.19764 0.15468 0.0945 0.08593 0.15467 0.21053 0.0602 0.1203 0.0602 0.30506 0 0.1203-0.0387 0.22772-0.0387 0.10741-0.12031 0.18905-0.0773 0.07734-0.19764 0.1246-0.11601 0.04726-0.27498 0.04726-0.18905 0-0.32653-0.03867-0.13749-0.03437-0.23202-0.09452z"/>
     <path d="m-627.28-27.989q-0.10312 0.09452-0.26209 0.14608-0.15898 0.05156-0.33513 0.05156-0.20194 0-0.35232-0.07734-0.14608-0.08163-0.2449-0.22772-0.0945-0.15038-0.14179-0.35661-0.043-0.20623-0.043-0.46403 0-0.54996 0.20193-0.83782 0.20194-0.28787 0.57144-0.28787 0.12031 0 0.23631 0.03008 0.12031 0.03008 0.21483 0.1203 0.0945 0.09023 0.15038 0.2535 0.0602 0.16327 0.0602 0.42536 0 0.07304-9e-3 0.15897-4e-3 0.08163-0.0129 0.17186h-1.0913q0 0.18475 0.0301 0.33513t0.0945 0.25779q0.0644 0.10312 0.16326 0.16327 0.10312 0.05586 0.2535 0.05586 0.11601 0 0.22772-0.04297 0.116-0.04297 0.17616-0.10312zm-0.24061-1.1515q9e-3 -0.32224-0.0902-0.47262-0.0988-0.15038-0.27068-0.15038-0.19764 0-0.31365 0.15038-0.116 0.15038-0.13749 0.47262z"/>
     <path d="m-634.42-24.492q0.1246-0.07734 0.30076-0.1203 0.18045-0.04296 0.37809-0.04296 0.18046 0 0.28787 0.05586 0.11171 0.05156 0.17186 0.14608 0.0644 0.09023 0.0816 0.21053 0.0215 0.11601 0.0215 0.2449 0 0.25779-0.0129 0.5027-9e-3 0.2449-9e-3 0.46403 0 0.16327 9e-3 0.30505 0.0129 0.13749 0.043 0.26209h-0.23631l-0.073-0.2535h-0.0172q-0.0644 0.11171-0.18905 0.19334-0.1246 0.08163-0.33513 0.08163-0.23201 0-0.38239-0.15897-0.14609-0.16327-0.14609-0.44684 0-0.18475 0.0602-0.30935 0.0644-0.1246 0.17615-0.20194 0.11601-0.07734 0.27069-0.10741 0.15897-0.03437 0.35231-0.03437 0.043 0 0.0859 0 0.043 0 0.0902 0.0043 0.0129-0.13319 0.0129-0.23631 0-0.2449-0.073-0.34372t-0.26639-0.09882q-0.1203 0-0.26209 0.03867-0.14178 0.03437-0.2363 0.09023zm0.93235 1.0398q-0.043-0.0043-0.0859-0.0043-0.043-0.0043-0.0859-0.0043-0.10312 0-0.20194 0.01719-0.0988 0.01719-0.17616 0.06015-0.0773 0.04297-0.1246 0.11601-0.043 0.07304-0.043 0.18475 0 0.17186 0.0816 0.26639 0.0859 0.09452 0.21912 0.09452 0.18046 0 0.27928-0.08593 0.0988-0.08593 0.13749-0.18905z"/>
     <path d="m-632.71-22.825q0.0859 0.05156 0.20194 0.09023 0.1203 0.03437 0.2449 0.03437 0.14179 0 0.24061-0.06874 0.0988-0.07304 0.0988-0.23201 0-0.13319-0.0602-0.21912-0.0602-0.08593-0.15468-0.15468-0.0902-0.06874-0.19764-0.1246-0.10741-0.06015-0.20194-0.14179-0.0902-0.08163-0.15037-0.19334-0.0602-0.11171-0.0602-0.28357 0-0.27498 0.14609-0.41247 0.15038-0.14179 0.42106-0.14179 0.17616 0 0.30505 0.03437 0.1289 0.03008 0.22342 0.08593l-0.0816 0.25779q-0.0816-0.04297-0.18905-0.06874-0.10741-0.03008-0.21912-0.03008-0.15468 0-0.22772 0.06445-0.0687 0.06445-0.0687 0.20194 0 0.10741 0.0602 0.18475 0.0601 0.07304 0.15038 0.13749 0.0945 0.06015 0.20193 0.1246 0.10742 0.06445 0.19764 0.15468 0.0945 0.08593 0.15468 0.21053 0.0602 0.1203 0.0602 0.30505 0 0.1203-0.0387 0.22772-0.0387 0.10741-0.1203 0.18905-0.0773 0.07734-0.19764 0.1246-0.11601 0.04726-0.27498 0.04726-0.18905 0-0.32654-0.03867-0.13749-0.03437-0.23201-0.09452z"/>
     <path d="m-630.76-23.439h-0.15897v0.96672h-0.30935v-3.0076h0.30935v1.8303l0.14178-0.06015 0.5027-0.91087h0.35661l-0.50699 0.8679-0.15038 0.13749 0.17616 0.16756 0.55425 0.97532h-0.3738z"/>
     <path d="m-629.81-21.871h1.435v0.27928h-1.435z"/>
     <path d="m-628.31-24.621h0.26209v-0.1203q0-0.40388 0.116-0.58433 0.11601-0.18046 0.39529-0.18046 0.11171 0 0.20193 0.01289 0.0902 0.01289 0.18475 0.05586l-0.0773 0.26638q-0.0773-0.03437-0.14609-0.04296-0.0644-0.01289-0.1246-0.01289-0.0859 0-0.13319 0.03437-0.0473 0.03437-0.073 0.10741-0.0215 0.07304-0.0301 0.18905-4e-3 0.11171-4e-3 0.27498h0.44684v0.27928h-0.44684v1.869h-0.30935v-1.869h-0.26209z"/>
     <path d="m-627.14-23.547q0-0.58003 0.19764-0.85072 0.20194-0.27498 0.57144-0.27498 0.39528 0 0.58003 0.27928 0.18905 0.27928 0.18905 0.84642 0 0.58433-0.20194 0.85501-0.20193 0.27068-0.56714 0.27068-0.39528 0-0.58433-0.27928-0.18475-0.27928-0.18475-0.84642zm0.32224 0q0 0.18905 0.0215 0.34372 0.0258 0.15468 0.0773 0.26639 0.0559 0.11171 0.14179 0.17616 0.0859 0.06015 0.20623 0.06015 0.22342 0 0.33513-0.19764 0.11171-0.20194 0.11171-0.64878 0-0.18475-0.0258-0.33943-0.0215-0.15897-0.0773-0.27068-0.0516-0.11171-0.13748-0.17186-0.0859-0.06445-0.20624-0.06445-0.21912 0-0.33513 0.20194-0.11171 0.20194-0.11171 0.64448z"/>
     <path d="m-625.19-24.621h0.21912l0.0559 0.22772h0.0129q0.0602-0.1246 0.15468-0.19334 0.0988-0.07304 0.23631-0.07304 0.0988 0 0.22342 0.03867l-0.0602 0.31365q-0.11171-0.03867-0.19764-0.03867-0.13749 0-0.22342 0.08163-0.0859 0.07734-0.11171 0.21053v1.5811h-0.30935z"/>
     <path d="m-624.27-21.871h1.435v0.27928h-1.435z"/>
     <path d="m-621.44-24.621 0.38239 1.2546 0.0773 0.41247h9e-3l0.0644-0.42106 0.29216-1.246h0.29217l-0.57144 2.1955h-0.17616l-0.43395-1.4093-0.0602-0.36091h-9e-3l-0.0601 0.36521-0.42106 1.405h-0.17616l-0.58862-2.1955h0.33083l0.33083 1.2503 0.0516 0.41676h9e-3l0.0773-0.42536 0.35232-1.2417z"/>
     <path d="m-620.05-24.621h0.21912l0.0559 0.22772h0.0129q0.0602-0.1246 0.15467-0.19334 0.0988-0.07304 0.23631-0.07304 0.0988 0 0.22342 0.03867l-0.0602 0.31365q-0.11171-0.03867-0.19764-0.03867-0.13749 0-0.22342 0.08163-0.0859 0.07734-0.11171 0.21053v1.5811h-0.30935z"/>
     <path d="m-618.82-24.621h0.30935v2.1483h-0.30935zm-0.0558-0.65307q0-0.10312 0.0558-0.16756 0.0602-0.06445 0.15468-0.06445 0.0945 0 0.15467 0.06445 0.0644 0.06015 0.0644 0.16756 0 0.10312-0.0644 0.16327-0.0602 0.05585-0.15467 0.05585-0.0945 0-0.15468-0.06015-0.0558-0.06015-0.0558-0.15897z"/>
     <path d="m-618.16-24.621h0.26209v-0.42536l0.30935-0.09882v0.52418h0.46403v0.27928h-0.46403v1.2804q0 0.18905 0.043 0.27498 0.0473 0.08164 0.15038 0.08164 0.0859 0 0.14608-0.01719 0.0644-0.02148 0.13749-0.05156l0.0602 0.2449q-0.0945 0.04726-0.21053 0.07304-0.11171 0.03008-0.23631 0.03008-0.21483 0-0.30935-0.13749-0.0902-0.14179-0.0902-0.45543v-1.3233h-0.26209z"/>
     <path d="m-615.51-22.619q-0.10312 0.09452-0.26209 0.14608-0.15898 0.05156-0.33513 0.05156-0.20194 0-0.35232-0.07734-0.14608-0.08163-0.2449-0.22772-0.0945-0.15038-0.14179-0.35661-0.043-0.20623-0.043-0.46403 0-0.54996 0.20193-0.83783 0.20194-0.28787 0.57144-0.28787 0.12031 0 0.23631 0.03008 0.12031 0.03008 0.21483 0.1203 0.0945 0.09023 0.15038 0.2535 0.0602 0.16327 0.0602 0.42536 0 0.07304-9e-3 0.15897-4e-3 0.08163-0.0129 0.17186h-1.0913q0 0.18475 0.0301 0.33513t0.0945 0.25779q0.0644 0.10312 0.16326 0.16327 0.10312 0.05586 0.2535 0.05586 0.11601 0 0.22772-0.04297 0.116-0.04297 0.17616-0.10312zm-0.24061-1.1515q9e-3 -0.32224-0.0902-0.47262-0.0988-0.15038-0.27068-0.15038-0.19764 0-0.31365 0.15038-0.116 0.15038-0.13749 0.47262z"/>
     <path d="m-615.04-24.492q0.1246-0.07734 0.30076-0.1203 0.18045-0.04296 0.3781-0.04296 0.18045 0 0.28786 0.05586 0.11171 0.05156 0.17187 0.14608 0.0644 0.09023 0.0816 0.21053 0.0215 0.11601 0.0215 0.2449 0 0.25779-0.0129 0.5027-9e-3 0.2449-9e-3 0.46403 0 0.16327 9e-3 0.30505 0.0129 0.13749 0.043 0.26209h-0.23631l-0.073-0.2535h-0.0172q-0.0644 0.11171-0.18905 0.19334-0.1246 0.08163-0.33513 0.08163-0.23201 0-0.38239-0.15897-0.14608-0.16327-0.14608-0.44684 0-0.18475 0.0602-0.30935 0.0644-0.1246 0.17616-0.20194 0.11601-0.07734 0.27068-0.10741 0.15897-0.03437 0.35232-0.03437 0.043 0 0.0859 0 0.043 0 0.0902 0.0043 0.0129-0.13319 0.0129-0.23631 0-0.2449-0.073-0.34372t-0.26638-0.09882q-0.12031 0-0.26209 0.03867-0.14179 0.03437-0.23631 0.09023zm0.93235 1.0398q-0.043-0.0043-0.0859-0.0043-0.043-0.0043-0.0859-0.0043-0.10312 0-0.20194 0.01719-0.0988 0.01719-0.17616 0.06015-0.0773 0.04297-0.1246 0.11601-0.043 0.07304-0.043 0.18475 0 0.17186 0.0816 0.26639 0.0859 0.09452 0.21913 0.09452 0.18045 0 0.27927-0.08593 0.0988-0.08593 0.13749-0.18905z"/>
     <path d="m-613.3-25.48h0.30935v1.0226h0.0129q0.17616-0.21483 0.46832-0.21483 0.33084 0 0.49411 0.26209 0.16756 0.26209 0.16756 0.82923 0 0.58003-0.22342 0.8636-0.21912 0.28357-0.623 0.28357-0.19764 0-0.36091-0.04297-0.16327-0.04726-0.2449-0.10741zm0.30935 2.6939q0.0602 0.03437 0.14608 0.05586 0.0902 0.01719 0.18905 0.01719 0.22342 0 0.35232-0.21053 0.13319-0.21483 0.13319-0.65737 0-0.18475-0.0258-0.33083-0.0215-0.15038-0.073-0.25779-0.0473-0.10741-0.1289-0.16327-0.0773-0.06015-0.18904-0.06015-0.15468 0-0.2578 0.09452-0.0988 0.09023-0.14608 0.2492z"/>
     <path d="m-611.11-22.984q0 0.15038 0.0387 0.21483 0.043 0.06445 0.116 0.06445 0.0902 0 0.21053-0.04726l0.0301 0.2492q-0.0559 0.03437-0.15897 0.05585-0.0988 0.02148-0.18046 0.02148-0.16327 0-0.26638-0.09882-0.0988-0.10312-0.0988-0.35661v-2.5994h0.30935z"/>
     <path d="m-609.16-22.619q-0.10312 0.09452-0.26209 0.14608-0.15897 0.05156-0.33513 0.05156-0.20194 0-0.35232-0.07734-0.14608-0.08163-0.2449-0.22772-0.0945-0.15038-0.14179-0.35661-0.043-0.20623-0.043-0.46403 0-0.54996 0.20194-0.83783 0.20193-0.28787 0.57144-0.28787 0.1203 0 0.23631 0.03008 0.1203 0.03008 0.21482 0.1203 0.0945 0.09023 0.15038 0.2535 0.0602 0.16327 0.0602 0.42536 0 0.07304-9e-3 0.15897-4e-3 0.08163-0.0129 0.17186h-1.0913q0 0.18475 0.0301 0.33513t0.0945 0.25779q0.0644 0.10312 0.16327 0.16327 0.10311 0.05586 0.25349 0.05586 0.11601 0 0.22772-0.04297 0.11601-0.04297 0.17616-0.10312zm-0.24061-1.1515q9e-3 -0.32224-0.0902-0.47262-0.0988-0.15038-0.27068-0.15038-0.19764 0-0.31364 0.15038-0.11601 0.15038-0.13749 0.47262z"/>
     <path d="m-634.43-17.454q0.0859 0.05156 0.20194 0.09023 0.1203 0.03437 0.2449 0.03437 0.14178 0 0.24061-0.06874 0.0988-0.07304 0.0988-0.23201 0-0.13319-0.0602-0.21912-0.0602-0.08593-0.15467-0.15468-0.0902-0.06874-0.19764-0.1246-0.10742-0.06015-0.20194-0.14179-0.0902-0.08163-0.15038-0.19334-0.0602-0.11171-0.0602-0.28357 0-0.27498 0.14608-0.41247 0.15038-0.14179 0.42106-0.14179 0.17616 0 0.30506 0.03437 0.12889 0.03008 0.22342 0.08593l-0.0816 0.25779q-0.0816-0.04296-0.18904-0.06874-0.10742-0.03008-0.21913-0.03008-0.15467 0-0.22771 0.06445-0.0688 0.06445-0.0688 0.20194 0 0.10741 0.0602 0.18475 0.0602 0.07304 0.15038 0.13749 0.0945 0.06015 0.20194 0.1246 0.10741 0.06445 0.19764 0.15468 0.0945 0.08593 0.15467 0.21053 0.0602 0.1203 0.0602 0.30506 0 0.1203-0.0387 0.22772-0.0387 0.10741-0.12031 0.18905-0.0773 0.07734-0.19764 0.1246-0.116 0.04726-0.27498 0.04726-0.18904 0-0.32653-0.03867-0.13749-0.03437-0.23202-0.09452z"/>
     <path d="m-631.66-17.248q-0.10312 0.09452-0.26209 0.14608-0.15897 0.05156-0.33513 0.05156-0.20194 0-0.35232-0.07734-0.14608-0.08163-0.2449-0.22772-0.0945-0.15038-0.14179-0.35661-0.043-0.20623-0.043-0.46403 0-0.54996 0.20194-0.83782 0.20193-0.28787 0.57144-0.28787 0.1203 0 0.23631 0.03008 0.1203 0.03008 0.21482 0.1203 0.0945 0.09023 0.15038 0.2535 0.0601 0.16327 0.0601 0.42536 0 0.07304-9e-3 0.15897-4e-3 0.08163-0.0129 0.17186h-1.0913q0 0.18475 0.0301 0.33513t0.0945 0.25779q0.0645 0.10312 0.16327 0.16327 0.10311 0.05586 0.25349 0.05586 0.11601 0 0.22772-0.04297 0.11601-0.04297 0.17616-0.10312zm-0.24061-1.1515q9e-3 -0.32224-0.0902-0.47262-0.0988-0.15038-0.27068-0.15038-0.19764 0-0.31365 0.15038-0.116 0.15038-0.13748 0.47262z"/>
     <path d="m-631.39-19.25h0.26209v-0.42536l0.30935-0.09882v0.52418h0.46403v0.27928h-0.46403v1.2804q0 0.18905 0.043 0.27498 0.0473 0.08163 0.15037 0.08163 0.0859 0 0.14609-0.01719 0.0644-0.02148 0.13749-0.05156l0.0602 0.2449q-0.0945 0.04726-0.21053 0.07304-0.11171 0.03008-0.23631 0.03008-0.21483 0-0.30935-0.13749-0.0902-0.14179-0.0902-0.45543v-1.3233h-0.26209z"/>
     <path d="m-630.25-16.5h1.435v0.27928h-1.435z"/>
     <path d="m-628.77-19.25h0.26209v-0.42536l0.30935-0.09882v0.52418h0.46403v0.27928h-0.46403v1.2804q0 0.18905 0.043 0.27498 0.0473 0.08163 0.15038 0.08163 0.0859 0 0.14608-0.01719 0.0645-0.02148 0.13749-0.05156l0.0602 0.2449q-0.0945 0.04726-0.21053 0.07304-0.11171 0.03008-0.23631 0.03008-0.21483 0-0.30935-0.13749-0.0902-0.14179-0.0902-0.45543v-1.3233h-0.26209z"/>
     <path d="m-627.32-19.25h0.30935v2.1483h-0.30935zm-0.0559-0.65307q0-0.10312 0.0559-0.16756 0.0602-0.06445 0.15467-0.06445 0.0945 0 0.15468 0.06445 0.0644 0.06015 0.0644 0.16756 0 0.10312-0.0644 0.16327-0.0602 0.05585-0.15468 0.05585-0.0945 0-0.15467-0.06015-0.0559-0.06015-0.0559-0.15897z"/>
     <path d="m-625.44-17.102v-1.2761q0-0.17186-0.0129-0.29216-9e-3 -0.1246-0.043-0.20194-0.0344-0.07734-0.0945-0.11171-0.0602-0.03867-0.15897-0.03867-0.14609 0-0.2492 0.11601-0.0988 0.11171-0.13749 0.25779v1.5468h-0.30935v-2.1483h0.21912l0.0559 0.22772h0.0129q0.0902-0.1246 0.21483-0.20194 0.1246-0.07734 0.31794-0.07734 0.16327 0 0.26639 0.07304 0.10741 0.06874 0.16757 0.2492 0.0773-0.15038 0.21912-0.23631 0.14608-0.08593 0.31794-0.08593 0.14179 0 0.24061 0.03867 0.10312 0.03437 0.16327 0.1289 0.0644 0.09023 0.0945 0.2449 0.0301 0.15038 0.0301 0.38239v1.405h-0.30935v-1.3663q0-0.27928-0.0559-0.41676-0.0516-0.13749-0.2449-0.13749-0.16327 0-0.26209 0.10312-0.0945 0.09882-0.13319 0.27068v1.5468z"/>
     <path d="m-622.37-17.248q-0.10312 0.09452-0.26209 0.14608-0.15897 0.05156-0.33513 0.05156-0.20194 0-0.35231-0.07734-0.14609-0.08163-0.24491-0.22772-0.0945-0.15038-0.14178-0.35661-0.043-0.20623-0.043-0.46403 0-0.54996 0.20194-0.83782 0.20194-0.28787 0.57144-0.28787 0.1203 0 0.23631 0.03008 0.1203 0.03008 0.21483 0.1203 0.0945 0.09023 0.15037 0.2535 0.0602 0.16327 0.0602 0.42536 0 0.07304-9e-3 0.15897-4e-3 0.08163-0.0129 0.17186h-1.0913q0 0.18475 0.0301 0.33513t0.0945 0.25779q0.0644 0.10312 0.16327 0.16327 0.10312 0.05586 0.2535 0.05586 0.116 0 0.22771-0.04297 0.11601-0.04297 0.17616-0.10312zm-0.24061-1.1515q9e-3 -0.32224-0.0902-0.47262-0.0988-0.15038-0.27068-0.15038-0.19765 0-0.31365 0.15038-0.11601 0.15038-0.13749 0.47262z"/>
     <path d="m-622.01-18.176q0-0.58003 0.19764-0.85072 0.20194-0.27498 0.57144-0.27498 0.39528 0 0.58003 0.27928 0.18905 0.27928 0.18905 0.84642 0 0.58433-0.20194 0.85501-0.20193 0.27068-0.56714 0.27068-0.39528 0-0.58433-0.27928-0.18475-0.27928-0.18475-0.84642zm0.32224 0q0 0.18905 0.0215 0.34372 0.0258 0.15468 0.0773 0.26638 0.0559 0.11171 0.14179 0.17616 0.0859 0.06015 0.20623 0.06015 0.22342 0 0.33513-0.19764 0.11171-0.20194 0.11171-0.64878 0-0.18475-0.0258-0.33943-0.0215-0.15897-0.0773-0.27068-0.0516-0.11171-0.13749-0.17186-0.0859-0.06445-0.20623-0.06445-0.21912 0-0.33513 0.20194-0.11171 0.20194-0.11171 0.64448z"/>
     <path d="m-619.78-19.25v1.3147q0 0.32654 0.0644 0.46832 0.0687 0.13749 0.2449 0.13749 0.0902 0 0.15897-0.03437 0.073-0.03867 0.1289-0.09882t0.0988-0.13749q0.043-0.07734 0.0688-0.15897v-1.4909h0.30935v1.5382q0 0.15468 9e-3 0.32224 0.0129 0.16327 0.0344 0.28787h-0.21912l-0.0773-0.30076h-0.0129q-0.073 0.14179-0.21053 0.2492-0.13749 0.10312-0.34372 0.10312-0.13749 0-0.24061-0.03437t-0.17616-0.1246q-0.073-0.09023-0.11171-0.2449-0.0344-0.15897-0.0344-0.40388v-1.3921z"/>
     <path d="m-618.41-19.25h0.26209v-0.42536l0.30935-0.09882v0.52418h0.46403v0.27928h-0.46403v1.2804q0 0.18905 0.043 0.27498 0.0473 0.08163 0.15038 0.08163 0.0859 0 0.14608-0.01719 0.0644-0.02148 0.13749-0.05156l0.0602 0.2449q-0.0945 0.04726-0.21053 0.07304-0.11171 0.03008-0.23631 0.03008-0.21483 0-0.30935-0.13749-0.0902-0.14179-0.0902-0.45543v-1.3233h-0.26209z"/>
     <path d="m-634.43-12.083q0.0859 0.05156 0.20194 0.09023 0.1203 0.03437 0.2449 0.03437 0.14178 0 0.24061-0.06874 0.0988-0.07304 0.0988-0.23201 0-0.13319-0.0602-0.21912-0.0602-0.08593-0.15467-0.15468-0.0902-0.06874-0.19764-0.1246-0.10742-0.06015-0.20194-0.14179-0.0902-0.08163-0.15038-0.19334-0.0602-0.11171-0.0602-0.28357 0-0.27498 0.14608-0.41247 0.15038-0.14179 0.42106-0.14179 0.17616 0 0.30506 0.03437 0.12889 0.03008 0.22342 0.08593l-0.0816 0.25779q-0.0816-0.04297-0.18904-0.06874-0.10742-0.03008-0.21913-0.03008-0.15467 0-0.22771 0.06445-0.0688 0.06445-0.0688 0.20194 0 0.10741 0.0602 0.18475 0.0602 0.07304 0.15038 0.13749 0.0945 0.06015 0.20194 0.1246 0.10741 0.06445 0.19764 0.15468 0.0945 0.08593 0.15467 0.21053 0.0602 0.1203 0.0602 0.30505 0 0.1203-0.0387 0.22772-0.0387 0.10741-0.12031 0.18905-0.0773 0.07734-0.19764 0.1246-0.116 0.04726-0.27498 0.04726-0.18904 0-0.32653-0.03867-0.13749-0.03437-0.23202-0.09452z"/>
     <path d="m-633.16-13.879h0.26209v-0.42536l0.30935-0.09882v0.52418h0.46403v0.27928h-0.46403v1.2804q0 0.18905 0.043 0.27498 0.0473 0.08163 0.15038 0.08163 0.0859 0 0.14608-0.01719 0.0644-0.02148 0.13749-0.05156l0.0602 0.2449q-0.0945 0.04726-0.21053 0.07304-0.11171 0.03008-0.23631 0.03008-0.21482 0-0.30935-0.13749-0.0902-0.14179-0.0902-0.45543v-1.3233h-0.26209z"/>
     <path d="m-631.79-13.75q0.1246-0.07734 0.30075-0.1203 0.18046-0.04297 0.3781-0.04297 0.18045 0 0.28787 0.05585 0.11171 0.05156 0.17186 0.14608 0.0644 0.09023 0.0816 0.21053 0.0215 0.11601 0.0215 0.2449 0 0.25779-0.0129 0.5027-9e-3 0.2449-9e-3 0.46403 0 0.16327 9e-3 0.30505 0.0129 0.13749 0.043 0.26209h-0.23631l-0.073-0.2535h-0.0172q-0.0644 0.11171-0.18905 0.19334-0.1246 0.08163-0.33513 0.08163-0.23202 0-0.38239-0.15897-0.14609-0.16327-0.14609-0.44684 0-0.18475 0.0602-0.30935 0.0644-0.1246 0.17616-0.20194 0.11601-0.07734 0.27068-0.10741 0.15898-0.03437 0.35232-0.03437 0.043 0 0.0859 0 0.043 0 0.0902 0.0043 0.0129-0.13319 0.0129-0.23631 0-0.2449-0.073-0.34372t-0.26639-0.09882q-0.1203 0-0.26209 0.03867-0.14178 0.03437-0.23631 0.09023zm0.93235 1.0398q-0.043-0.0043-0.0859-0.0043-0.043-0.0043-0.0859-0.0043-0.10311 0-0.20193 0.01719-0.0988 0.01719-0.17616 0.06015-0.0773 0.04297-0.1246 0.11601-0.043 0.07304-0.043 0.18475 0 0.17186 0.0816 0.26639 0.0859 0.09452 0.21912 0.09452 0.18046 0 0.27928-0.08593 0.0988-0.08593 0.13749-0.18905z"/>
     <path d="m-630.26-13.879h0.26209v-0.42536l0.30935-0.09882v0.52418h0.46402v0.27928h-0.46402v1.2804q0 0.18905 0.043 0.27498 0.0473 0.08163 0.15038 0.08163 0.0859 0 0.14608-0.01719 0.0644-0.02148 0.13749-0.05156l0.0601 0.2449q-0.0945 0.04726-0.21053 0.07304-0.11171 0.03008-0.23631 0.03008-0.21482 0-0.30935-0.13749-0.0902-0.14179-0.0902-0.45543v-1.3233h-0.26209z"/>
     <path d="m-627.61-11.877q-0.10312 0.09452-0.26209 0.14608-0.15897 0.05156-0.33513 0.05156-0.20194 0-0.35232-0.07734-0.14608-0.08163-0.2449-0.22772-0.0945-0.15038-0.14178-0.35661-0.043-0.20623-0.043-0.46403 0-0.54996 0.20194-0.83783t0.57144-0.28787q0.1203 0 0.23631 0.03008 0.1203 0.03008 0.21482 0.1203 0.0945 0.09023 0.15038 0.2535 0.0602 0.16327 0.0602 0.42536 0 0.07304-9e-3 0.15897-4e-3 0.08164-0.0129 0.17186h-1.0913q0 0.18475 0.0301 0.33513t0.0945 0.25779q0.0645 0.10312 0.16327 0.16327 0.10312 0.05585 0.2535 0.05585 0.116 0 0.22771-0.04296 0.11601-0.04297 0.17616-0.10312zm-0.24061-1.1515q9e-3 -0.32224-0.0902-0.47262-0.0988-0.15038-0.27069-0.15038-0.19764 0-0.31364 0.15038-0.11601 0.15038-0.13749 0.47262z"/>
    </g>
    <g dominant-baseline="auto" stroke-width=".10741" style="font-feature-settings:normal;font-variant-alternates:normal;font-variant-caps:normal;font-variant-ligatures:normal;font-variant-numeric:normal;font-variant-position:normal;shape-padding:0;text-decoration-color:#000000;text-decoration-line:none;text-decoration-style:solid;text-indent:0;text-orientation:mixed;text-transform:none;white-space:normal" aria-label="accept rx writeable closed heartbeat">
     <path d="m-611.51-1.7517q0.12459-0.077338 0.30075-0.1203 0.18046-0.042965 0.3781-0.042965 0.18045 0 0.28787 0.055855 0.11171 0.051559 0.17186 0.14608 0.0644 0.090227 0.0816 0.21053 0.0215 0.11601 0.0215 0.2449 0 0.25779-0.0129 0.5027-9e-3 0.2449-9e-3 0.46403 0 0.16327 9e-3 0.30505 0.0129 0.13749 0.043 0.26209h-0.23631l-0.073-0.2535h-0.0172q-0.0644 0.11171-0.18904 0.19334-0.1246 0.081634-0.33513 0.081634-0.23202 0-0.3824-0.15897-0.14608-0.16327-0.14608-0.44684 0-0.18475 0.0601-0.30935 0.0645-0.1246 0.17616-0.20194 0.11601-0.077338 0.27068-0.10741 0.15898-0.034372 0.35232-0.034372 0.043 0 0.0859 0 0.043 0 0.0902 0.004297 0.0129-0.13319 0.0129-0.23631 0-0.2449-0.073-0.34372-0.073-0.09882-0.26639-0.09882-0.1203 0-0.26209 0.038669-0.14178 0.034372-0.23631 0.090227zm0.93234 1.0398q-0.043-0.004297-0.0859-0.004297-0.043-0.004297-0.0859-0.004297-0.10311 0-0.20193 0.017186-0.0988 0.017186-0.17616 0.060152-0.0773 0.042965-0.1246 0.11601-0.043 0.073041-0.043 0.18475 0 0.17186 0.0816 0.26639 0.0859 0.094524 0.21912 0.094524 0.18045 0 0.27928-0.085931 0.0988-0.085931 0.13748-0.18905z"/>
     <path d="m-608.58 0.16027q-0.10742 0.081634-0.2449 0.1203-0.13749 0.038669-0.28787 0.038669-0.20624 0-0.34802-0.077338-0.14179-0.081634-0.23202-0.22772-0.0859-0.15038-0.12889-0.35661-0.0387-0.21053-0.0387-0.46403 0-0.54996 0.19334-0.83783 0.19764-0.28787 0.56285-0.28787 0.16757 0 0.28787 0.030076t0.20623 0.077338l-0.0859 0.27068q-0.17186-0.09882-0.3738-0.09882-0.23201 0-0.35231 0.20623-0.11601 0.20194-0.11601 0.64018 0 0.17616 0.0258 0.33083t0.0859 0.27068q0.0602 0.11171 0.15468 0.18045 0.0945 0.064448 0.2363 0.064448 0.11171 0 0.20624-0.038669 0.0988-0.038669 0.15897-0.090227z"/>
     <path d="m-607.13 0.16027q-0.10741 0.081634-0.2449 0.1203-0.13749 0.038669-0.28787 0.038669-0.20624 0-0.34802-0.077338-0.14179-0.081634-0.23202-0.22772-0.0859-0.15038-0.12889-0.35661-0.0387-0.21053-0.0387-0.46403 0-0.54996 0.19334-0.83783 0.19765-0.28787 0.56285-0.28787 0.16757 0 0.28787 0.030076t0.20623 0.077338l-0.0859 0.27068q-0.17186-0.09882-0.3738-0.09882-0.23201 0-0.35231 0.20623-0.11601 0.20194-0.11601 0.64018 0 0.17616 0.0258 0.33083t0.0859 0.27068q0.0602 0.11171 0.15468 0.18045 0.0945 0.064448 0.23631 0.064448 0.11171 0 0.20623-0.038669 0.0988-0.038669 0.15897-0.090227z"/>
     <path d="m-605.58 0.12161q-0.10312 0.094524-0.26209 0.14608t-0.33513 0.051558q-0.20194 0-0.35231-0.077338-0.14609-0.081634-0.24491-0.22772-0.0945-0.15038-0.14178-0.35661-0.043-0.20623-0.043-0.46403 0-0.54996 0.20194-0.83783t0.57144-0.28787q0.1203 0 0.23631 0.030076 0.1203 0.030076 0.21483 0.1203 0.0945 0.090227 0.15037 0.2535 0.0602 0.16327 0.0602 0.42536 0 0.073041-9e-3 0.15897-4e-3 0.081634-0.0129 0.17186h-1.0913q0 0.18475 0.0301 0.33513t0.0945 0.25779q0.0644 0.10312 0.16327 0.16327 0.10312 0.055855 0.2535 0.055855 0.116 0 0.22771-0.042965 0.11601-0.042965 0.17616-0.10312zm-0.24061-1.1515q9e-3 -0.32224-0.0902-0.47262-0.0988-0.15038-0.27068-0.15038-0.19765 0-0.31365 0.15038-0.11601 0.15038-0.13749 0.47262z"/>
     <path d="m-605.1-1.8806h0.21912l0.0473 0.23201h0.0172q0.15897-0.28357 0.4984-0.28357t0.50699 0.2535q0.17186 0.2535 0.17186 0.82923 0 0.27068-0.0558 0.48981-0.0559 0.21483-0.15897 0.3695-0.10312 0.15038-0.2535 0.23201-0.14608 0.077338-0.32654 0.077338-0.1246 0-0.19764-0.017186-0.073-0.01289-0.15897-0.060152v0.88509h-0.30935zm0.30935 1.8088q0.0602 0.051558 0.13319 0.081634 0.0773 0.030076 0.20194 0.030076 0.22772 0 0.36091-0.23201t0.13319-0.66167q0-0.18045-0.0258-0.32654-0.0215-0.14608-0.073-0.2492-0.0516-0.10741-0.13319-0.16327-0.0773-0.060152-0.19334-0.060152-0.31365 0-0.40388 0.38239z"/>
     <path d="m-603.44-1.8806h0.26209v-0.42536l0.30935-0.09882v0.52418h0.46402v0.27928h-0.46402v1.2804q0 0.18905 0.043 0.27498 0.0473 0.081634 0.15038 0.081634 0.0859 0 0.14608-0.017186 0.0644-0.021483 0.13749-0.051558l0.0602 0.2449q-0.0945 0.047262-0.21053 0.073041-0.11171 0.030076-0.23631 0.030076-0.21483 0-0.30936-0.13749-0.0902-0.14179-0.0902-0.45543v-1.3233h-0.26209z"/>
     <path d="m-604.99 3.4901h0.21913l0.0559 0.22772h0.0129q0.0602-0.1246 0.15468-0.19334 0.0988-0.073041 0.23631-0.073041 0.0988 0 0.22342 0.038669l-0.0602 0.31365q-0.11171-0.038669-0.19764-0.038669-0.13749 0-0.22342 0.081634-0.0859 0.077338-0.11171 0.21053v1.5811h-0.30935z"/>
     <path d="m-603.37 4.5384-0.56714-1.0484h0.3695l0.31795 0.61441 0.0859 0.24061 0.0902-0.24061 0.32653-0.61441h0.33943l-0.57144 1.0312 0.60581 1.1171h-0.35231l-0.36091-0.67456-0.0945-0.25779-0.0988 0.25779-0.36091 0.67456h-0.33942z"/>
     <path d="m-614.81 8.8608 0.38239 1.2546 0.0773 0.41247h9e-3l0.0645-0.42106 0.29217-1.246h0.29216l-0.57144 2.1955h-0.17616l-0.43395-1.4093-0.0602-0.36091h-9e-3l-0.0602 0.36521-0.42107 1.405h-0.17615l-0.58863-2.1955h0.33083l0.33084 1.2503 0.0516 0.41676h9e-3l0.0773-0.42536 0.35231-1.2417z"/>
     <path d="m-613.42 8.8608h0.21912l0.0559 0.22772h0.0129q0.0602-0.1246 0.15467-0.19334 0.0988-0.073041 0.23631-0.073041 0.0988 0 0.22342 0.038669l-0.0601 0.31365q-0.11171-0.038669-0.19764-0.038669-0.13749 0-0.22342 0.081634-0.0859 0.077338-0.11171 0.21053v1.5811h-0.30935z"/>
     <path d="m-612.19 8.8608h0.30935v2.1483h-0.30935zm-0.0559-0.65307q0-0.10312 0.0559-0.16757 0.0601-0.064448 0.15467-0.064448 0.0945 0 0.15468 0.064448 0.0644 0.060152 0.0644 0.16757 0 0.10312-0.0644 0.16327-0.0602 0.055855-0.15468 0.055855-0.0945 0-0.15467-0.060152-0.0559-0.060151-0.0559-0.15897z"/>
     <path d="m-611.53 8.8608h0.26209v-0.42536l0.30935-0.09882v0.52418h0.46402v0.27927h-0.46402v1.2804q0 0.18905 0.043 0.27498 0.0473 0.08163 0.15038 0.08163 0.0859 0 0.14608-0.01719 0.0645-0.02148 0.13749-0.05156l0.0602 0.2449q-0.0945 0.04726-0.21053 0.07304-0.11171 0.03008-0.23631 0.03008-0.21482 0-0.30935-0.13749-0.0902-0.14179-0.0902-0.45543v-1.3233h-0.26209z"/>
     <path d="m-608.88 10.863q-0.10312 0.09452-0.26209 0.14608-0.15897 0.05156-0.33513 0.05156-0.20194 0-0.35232-0.07734-0.14608-0.08163-0.2449-0.22772-0.0945-0.15038-0.14179-0.35661-0.043-0.20623-0.043-0.46403 0-0.54996 0.20194-0.83783 0.20193-0.28787 0.57144-0.28787 0.1203 0 0.23631 0.030076 0.1203 0.030076 0.21482 0.1203 0.0945 0.090227 0.15038 0.2535 0.0602 0.16327 0.0602 0.42536 0 0.073041-9e-3 0.15897-4e-3 0.081634-0.0129 0.17186h-1.0913q0 0.18475 0.0301 0.33513t0.0945 0.25779q0.0644 0.10312 0.16327 0.16327 0.10312 0.05585 0.25349 0.05585 0.11601 0 0.22772-0.04297 0.11601-0.04297 0.17616-0.10312zm-0.24061-1.1515q9e-3 -0.32224-0.0902-0.47262-0.0988-0.15038-0.27069-0.15038-0.19764 0-0.31364 0.15038-0.11601 0.15038-0.13749 0.47262z"/>
     <path d="m-608.42 8.9897q0.1246-0.077338 0.30075-0.1203 0.18046-0.042965 0.3781-0.042965 0.18045 0 0.28787 0.055855 0.11171 0.051559 0.17186 0.14608 0.0645 0.090227 0.0816 0.21053 0.0215 0.11601 0.0215 0.2449 0 0.25779-0.0129 0.5027-9e-3 0.2449-9e-3 0.46403 0 0.16327 9e-3 0.30506 0.0129 0.13749 0.043 0.26209h-0.23631l-0.073-0.2535h-0.0172q-0.0644 0.11171-0.18904 0.19334-0.1246 0.08163-0.33513 0.08163-0.23202 0-0.3824-0.15897-0.14608-0.16327-0.14608-0.44684 0-0.18475 0.0602-0.30935 0.0644-0.1246 0.17616-0.20194 0.11601-0.077338 0.27068-0.10741 0.15898-0.034372 0.35232-0.034372 0.043 0 0.0859 0 0.043 0 0.0902 0.0043 0.0129-0.13319 0.0129-0.23631 0-0.2449-0.073-0.34372-0.073-0.098821-0.26639-0.098821-0.1203 0-0.26209 0.038669-0.14178 0.034372-0.23631 0.090227zm0.93235 1.0398q-0.043-0.0043-0.0859-0.0043-0.043-0.0043-0.0859-0.0043-0.10311 0-0.20193 0.01719-0.0988 0.01719-0.17616 0.06015-0.0773 0.04297-0.1246 0.11601-0.043 0.07304-0.043 0.18475 0 0.17186 0.0816 0.26638 0.0859 0.09452 0.21912 0.09452 0.18046 0 0.27928-0.08593 0.0988-0.08593 0.13749-0.18905z"/>
     <path d="m-606.67 8.0015h0.30935v1.0226h0.0129q0.17616-0.21483 0.46833-0.21483 0.33083 0 0.4941 0.26209 0.16756 0.26209 0.16756 0.82923 0 0.58003-0.22342 0.86361-0.21912 0.28357-0.62299 0.28357-0.19765 0-0.36091-0.04296-0.16327-0.04726-0.24491-0.10741zm0.30935 2.6939q0.0602 0.03437 0.14609 0.05586 0.0902 0.01719 0.18904 0.01719 0.22342 0 0.35232-0.21053 0.13319-0.21483 0.13319-0.65737 0-0.18475-0.0258-0.33083-0.0215-0.15038-0.073-0.25779-0.0473-0.10741-0.12889-0.16327-0.0773-0.060151-0.18905-0.060151-0.15468 0-0.25779 0.094524-0.0988 0.090227-0.14609 0.2492z"/>
     <path d="m-604.48 10.498q0 0.15038 0.0387 0.21483 0.043 0.06445 0.11601 0.06445 0.0902 0 0.21053-0.04726l0.0301 0.2492q-0.0558 0.03437-0.15897 0.05585-0.0988 0.02148-0.18045 0.02148-0.16327 0-0.26639-0.09882-0.0988-0.10312-0.0988-0.35661v-2.5994h0.30935z"/>
     <path d="m-602.53 10.863q-0.10311 0.09452-0.26209 0.14608-0.15897 0.05156-0.33513 0.05156-0.20193 0-0.35231-0.07734-0.14608-0.08163-0.24491-0.22772-0.0945-0.15038-0.14178-0.35661-0.043-0.20623-0.043-0.46403 0-0.54996 0.20194-0.83783 0.20194-0.28787 0.57144-0.28787 0.1203 0 0.23631 0.030076 0.1203 0.030076 0.21483 0.1203 0.0945 0.090227 0.15038 0.2535 0.0602 0.16327 0.0602 0.42536 0 0.073041-9e-3 0.15897-4e-3 0.081634-0.0129 0.17186h-1.0913q0 0.18475 0.0301 0.33513t0.0945 0.25779q0.0644 0.10312 0.16327 0.16327 0.10312 0.05585 0.2535 0.05585 0.116 0 0.22771-0.04297 0.11601-0.04297 0.17616-0.10312zm-0.2406-1.1515q9e-3 -0.32224-0.0902-0.47262-0.0988-0.15038-0.27068-0.15038-0.19764 0-0.31365 0.15038t-0.13749 0.47262z"/>
     <path d="m-610.32 16.272q-0.10741 0.08163-0.2449 0.1203-0.13749 0.03867-0.28787 0.03867-0.20624 0-0.34802-0.07734-0.14179-0.08163-0.23201-0.22772-0.0859-0.15038-0.1289-0.35661-0.0387-0.21053-0.0387-0.46403 0-0.54996 0.19335-0.83783 0.19764-0.28787 0.56284-0.28787 0.16757 0 0.28787 0.03008t0.20623 0.07734l-0.0859 0.27068q-0.17186-0.09882-0.3738-0.09882-0.23201 0-0.35231 0.20623-0.11601 0.20194-0.11601 0.64018 0 0.17616 0.0258 0.33083 0.0258 0.15468 0.0859 0.27068 0.0602 0.11171 0.15468 0.18046 0.0945 0.06445 0.23631 0.06445 0.11171 0 0.20623-0.03867 0.0988-0.03867 0.15897-0.09023z"/>
     <path d="m-609.65 15.868q0 0.15038 0.0387 0.21483 0.043 0.06445 0.11601 0.06445 0.0902 0 0.21053-0.04726l0.0301 0.2492q-0.0559 0.03437-0.15898 0.05586-0.0988 0.02148-0.18045 0.02148-0.16327 0-0.26639-0.09882-0.0988-0.10312-0.0988-0.35661v-2.5994h0.30935z"/>
     <path d="m-609.08 15.306q0-0.58003 0.19764-0.85072 0.20194-0.27498 0.57144-0.27498 0.39528 0 0.58003 0.27928 0.18905 0.27928 0.18905 0.84642 0 0.58433-0.20194 0.85501t-0.56714 0.27068q-0.39528 0-0.58433-0.27928-0.18475-0.27928-0.18475-0.84642zm0.32224 0q0 0.18905 0.0215 0.34372 0.0258 0.15468 0.0773 0.26639 0.0559 0.11171 0.14178 0.17616 0.0859 0.06015 0.20624 0.06015 0.22342 0 0.33513-0.19764 0.11171-0.20194 0.11171-0.64878 0-0.18475-0.0258-0.33943-0.0215-0.15897-0.0773-0.27068-0.0516-0.11171-0.13749-0.17186-0.0859-0.06445-0.20623-0.06445-0.21913 0-0.33513 0.20194-0.11171 0.20194-0.11171 0.64448z"/>
     <path d="m-607.16 16.027q0.0859 0.05156 0.20194 0.09023 0.1203 0.03437 0.2449 0.03437 0.14179 0 0.24061-0.06874 0.0988-0.07304 0.0988-0.23201 0-0.13319-0.0602-0.21912-0.0602-0.08593-0.15468-0.15468-0.0902-0.06874-0.19764-0.1246-0.10741-0.06015-0.20194-0.14179-0.0902-0.08164-0.15038-0.19334-0.0601-0.11171-0.0601-0.28357 0-0.27498 0.14608-0.41247 0.15038-0.14179 0.42106-0.14179 0.17616 0 0.30506 0.03437 0.1289 0.03008 0.22342 0.08593l-0.0816 0.25779q-0.0816-0.04297-0.18905-0.06874-0.10742-0.03008-0.21913-0.03008-0.15467 0-0.22771 0.06445-0.0687 0.06445-0.0687 0.20194 0 0.10741 0.0601 0.18475 0.0602 0.07304 0.15038 0.13749 0.0945 0.06015 0.20194 0.1246 0.10741 0.06445 0.19764 0.15468 0.0945 0.08593 0.15468 0.21053 0.0602 0.1203 0.0602 0.30505 0 0.1203-0.0387 0.22772t-0.1203 0.18905q-0.0773 0.07734-0.19764 0.1246-0.11601 0.04726-0.27498 0.04726-0.18905 0-0.32654-0.03867-0.13749-0.03437-0.23201-0.09452z"/>
     <path d="m-604.39 16.234q-0.10312 0.09452-0.26209 0.14608-0.15897 0.05156-0.33513 0.05156-0.20194 0-0.35232-0.07734-0.14608-0.08163-0.2449-0.22772-0.0945-0.15038-0.14178-0.35661-0.043-0.20623-0.043-0.46403 0-0.54996 0.20194-0.83783 0.20193-0.28787 0.57144-0.28787 0.1203 0 0.23631 0.03008 0.1203 0.03008 0.21482 0.1203 0.0945 0.09023 0.15038 0.2535 0.0602 0.16327 0.0602 0.42536 0 0.07304-9e-3 0.15897-4e-3 0.08164-0.0129 0.17186h-1.0913q0 0.18475 0.0301 0.33513t0.0945 0.25779q0.0644 0.10312 0.16327 0.16327 0.10312 0.05586 0.25349 0.05586 0.11601 0 0.22772-0.04297 0.11601-0.04297 0.17616-0.10312zm-0.24061-1.1515q9e-3 -0.32224-0.0902-0.47262-0.0988-0.15038-0.27069-0.15038-0.19764 0-0.31364 0.15038-0.11601 0.15038-0.13749 0.47262z"/>
     <path d="m-602.55 15.641q0 0.21912 4e-3 0.39958 4e-3 0.17616 0.0301 0.34802h-0.21053l-0.0687-0.25779h-0.0172q-0.0602 0.1289-0.18905 0.21483-0.12889 0.08593-0.30935 0.08593-0.34802 0-0.51988-0.27068-0.16757-0.27068-0.16757-0.85072 0-0.54996 0.20624-0.83353 0.21053-0.28357 0.57574-0.28357 0.12459 0 0.19764 0.01719 0.073 0.01289 0.15897 0.04726v-0.88509h0.30935zm-0.30935-1.0698q-0.0601-0.05156-0.13749-0.07304-0.073-0.02578-0.19764-0.02578-0.22772 0-0.35662 0.20623-0.12459 0.20623-0.12459 0.63589 0 0.18905 0.0215 0.34372 0.0258 0.15038 0.073 0.26209 0.0516 0.11171 0.1289 0.17186 0.0816 0.06015 0.19764 0.06015 0.30935 0 0.39528-0.36521z"/>
     <path d="m-615.32 21.75v-1.3061q0-0.30076-0.073-0.45543-0.0687-0.15897-0.27927-0.15897-0.15038 0-0.27498 0.10741-0.1203 0.10741-0.16327 0.27068v1.5425h-0.30935v-3.0076h0.30935v1.0612h0.0129q0.0859-0.11171 0.21053-0.18045 0.1289-0.07304 0.31795-0.07304 0.14178 0 0.2449 0.03867 0.10741 0.03867 0.17616 0.13319 0.0687 0.09452 0.10311 0.2535 0.0344 0.15468 0.0344 0.38669v1.3878z"/>
     <path d="m-613.24 21.604q-0.10311 0.09452-0.26208 0.14608-0.15898 0.05156-0.33513 0.05156-0.20194 0-0.35232-0.07734-0.14608-0.08163-0.2449-0.22772-0.0945-0.15038-0.14179-0.35661-0.043-0.20623-0.043-0.46403 0-0.54996 0.20193-0.83782 0.20194-0.28787 0.57144-0.28787 0.12031 0 0.23631 0.03008 0.12031 0.03008 0.21483 0.1203 0.0945 0.09023 0.15038 0.2535 0.0602 0.16327 0.0602 0.42536 0 0.07304-9e-3 0.15897-4e-3 0.08163-0.0129 0.17186h-1.0913q0 0.18475 0.0301 0.33513t0.0945 0.25779q0.0644 0.10312 0.16326 0.16327 0.10312 0.05586 0.2535 0.05586 0.11601 0 0.22772-0.04297 0.116-0.04297 0.17615-0.10312zm-0.2406-1.1515q9e-3 -0.32224-0.0902-0.47262-0.0988-0.15038-0.27068-0.15038-0.19764 0-0.31365 0.15038-0.116 0.15038-0.13749 0.47262z"/>
     <path d="m-612.78 19.731q0.1246-0.07734 0.30076-0.1203 0.18045-0.04296 0.37809-0.04296 0.18046 0 0.28787 0.05585 0.11171 0.05156 0.17186 0.14608 0.0644 0.09023 0.0816 0.21053 0.0215 0.11601 0.0215 0.2449 0 0.25779-0.0129 0.5027-9e-3 0.2449-9e-3 0.46403 0 0.16327 9e-3 0.30506 0.0129 0.13749 0.043 0.26209h-0.23631l-0.073-0.2535h-0.0172q-0.0644 0.11171-0.18905 0.19334-0.1246 0.08163-0.33513 0.08163-0.23201 0-0.38239-0.15897-0.14608-0.16327-0.14608-0.44684 0-0.18475 0.0602-0.30935 0.0644-0.1246 0.17616-0.20194 0.116-0.07734 0.27068-0.10741 0.15897-0.03437 0.35232-0.03437 0.043 0 0.0859 0 0.043 0 0.0902 0.0043 0.0129-0.13319 0.0129-0.23631 0-0.2449-0.073-0.34372-0.073-0.09882-0.26638-0.09882-0.12031 0-0.26209 0.03867-0.14179 0.03437-0.23631 0.09023zm0.93235 1.0398q-0.043-0.0043-0.0859-0.0043-0.043-0.0043-0.0859-0.0043-0.10312 0-0.20194 0.01719-0.0988 0.01719-0.17616 0.06015-0.0773 0.04296-0.1246 0.11601-0.043 0.07304-0.043 0.18475 0 0.17186 0.0816 0.26638 0.0859 0.09452 0.21913 0.09452 0.18045 0 0.27927-0.08593 0.0988-0.08593 0.13749-0.18905z"/>
     <path d="m-611.04 19.602h0.21912l0.0559 0.22772h0.0129q0.0602-0.1246 0.15467-0.19334 0.0988-0.07304 0.23631-0.07304 0.0988 0 0.22342 0.03867l-0.0601 0.31365q-0.11171-0.03867-0.19764-0.03867-0.13749 0-0.22342 0.08163-0.0859 0.07734-0.11171 0.21053v1.5811h-0.30935z"/>
     <path d="m-609.98 19.602h0.26209v-0.42536l0.30935-0.09882v0.52418h0.46402v0.27928h-0.46402v1.2804q0 0.18905 0.043 0.27498 0.0473 0.08163 0.15038 0.08163 0.0859 0 0.14608-0.01719 0.0645-0.02148 0.13749-0.05156l0.0602 0.2449q-0.0945 0.04726-0.21054 0.07304-0.11171 0.03008-0.23631 0.03008-0.21482 0-0.30935-0.13749-0.0902-0.14179-0.0902-0.45543v-1.3233h-0.26209z"/>
     <path d="m-608.58 18.743h0.30935v1.0226h0.0129q0.17616-0.21483 0.46833-0.21483 0.33083 0 0.4941 0.26209 0.16756 0.26209 0.16756 0.82923 0 0.58003-0.22342 0.8636-0.21912 0.28357-0.623 0.28357-0.19764 0-0.36091-0.04297-0.16326-0.04726-0.2449-0.10741zm0.30935 2.6939q0.0602 0.03437 0.14609 0.05586 0.0902 0.01719 0.18904 0.01719 0.22342 0 0.35232-0.21053 0.13319-0.21483 0.13319-0.65737 0-0.18475-0.0258-0.33083-0.0215-0.15038-0.073-0.25779-0.0473-0.10741-0.12889-0.16327-0.0773-0.06015-0.18905-0.06015-0.15468 0-0.25779 0.09452-0.0988 0.09023-0.14609 0.2492z"/>
     <path d="m-605.43 21.604q-0.10312 0.09452-0.26209 0.14608-0.15897 0.05156-0.33513 0.05156-0.20194 0-0.35231-0.07734-0.14609-0.08163-0.24491-0.22772-0.0945-0.15038-0.14178-0.35661-0.043-0.20623-0.043-0.46403 0-0.54996 0.20194-0.83782 0.20194-0.28787 0.57144-0.28787 0.1203 0 0.23631 0.03008 0.1203 0.03008 0.21483 0.1203 0.0945 0.09023 0.15037 0.2535 0.0602 0.16327 0.0602 0.42536 0 0.07304-9e-3 0.15897-4e-3 0.08163-0.0129 0.17186h-1.0913q0 0.18475 0.0301 0.33513t0.0945 0.25779q0.0644 0.10312 0.16327 0.16327 0.10312 0.05586 0.2535 0.05586 0.116 0 0.22771-0.04297 0.11601-0.04297 0.17616-0.10312zm-0.24061-1.1515q9e-3 -0.32224-0.0902-0.47262-0.0988-0.15038-0.27068-0.15038-0.19765 0-0.31365 0.15038-0.11601 0.15038-0.13749 0.47262z"/>
     <path d="m-604.97 19.731q0.1246-0.07734 0.30076-0.1203 0.18045-0.04296 0.37809-0.04296 0.18046 0 0.28787 0.05585 0.11171 0.05156 0.17186 0.14608 0.0645 0.09023 0.0816 0.21053 0.0215 0.11601 0.0215 0.2449 0 0.25779-0.0129 0.5027-9e-3 0.2449-9e-3 0.46403 0 0.16327 9e-3 0.30506 0.0129 0.13749 0.043 0.26209h-0.23631l-0.073-0.2535h-0.0172q-0.0645 0.11171-0.18905 0.19334-0.1246 0.08163-0.33513 0.08163-0.23201 0-0.38239-0.15897-0.14609-0.16327-0.14609-0.44684 0-0.18475 0.0602-0.30935 0.0644-0.1246 0.17615-0.20194 0.11601-0.07734 0.27069-0.10741 0.15897-0.03437 0.35231-0.03437 0.043 0 0.0859 0 0.043 0 0.0902 0.0043 0.0129-0.13319 0.0129-0.23631 0-0.2449-0.073-0.34372-0.073-0.09882-0.26639-0.09882-0.1203 0-0.26209 0.03867-0.14178 0.03437-0.23631 0.09023zm0.93235 1.0398q-0.043-0.0043-0.0859-0.0043-0.043-0.0043-0.0859-0.0043-0.10312 0-0.20194 0.01719-0.0988 0.01719-0.17616 0.06015-0.0773 0.04296-0.1246 0.11601-0.043 0.07304-0.043 0.18475 0 0.17186 0.0816 0.26638 0.0859 0.09452 0.21912 0.09452 0.18046 0 0.27928-0.08593 0.0988-0.08593 0.13749-0.18905z"/>
     <path d="m-603.44 19.602h0.26209v-0.42536l0.30935-0.09882v0.52418h0.46402v0.27928h-0.46402v1.2804q0 0.18905 0.043 0.27498 0.0473 0.08163 0.15038 0.08163 0.0859 0 0.14609-0.01719 0.0644-0.02148 0.13748-0.05156l0.0602 0.2449q-0.0945 0.04726-0.21053 0.07304-0.11171 0.03008-0.23631 0.03008-0.21483 0-0.30936-0.13749-0.0902-0.14179-0.0902-0.45543v-1.3233h-0.26209z"/>
    </g>
    <g dominant-baseline="auto" stroke-width=".19164" style="font-feature-settings:normal;font-variant-alternates:normal;font-variant-caps:normal;font-variant-ligatures:normal;font-variant-numeric:normal;font-variant-position:normal;shape-padding:0;text-decoration-color:#000000;text-decoration-line:none;text-decoration-style:solid;text-indent:0;text-orientation:mixed;text-transform:none;white-space:normal" aria-label="Abstract Transport">
     <path d="m-662.1-36.928h-1.5178l-0.42927 1.5024h-0.56725l1.6174-5.4502h0.31429l1.6174 5.4502h-0.59792zm-1.3645-0.51359h1.2265l-0.46759-1.6558-0.14565-0.80488h-0.0153l-0.14565 0.82021z"/>
     <path d="m-660.58-40.792h0.55192v1.8244h0.023q0.31429-0.38328 0.83555-0.38328 0.59025 0 0.88154 0.4676 0.29895 0.4676 0.29895 1.4795 0 1.0348-0.39861 1.5408-0.39094 0.50593-1.1115 0.50593-0.35262 0-0.64391-0.07666-0.29129-0.08432-0.43693-0.19164zm0.55192 4.8063q0.10731 0.06132 0.26062 0.09965 0.16098 0.03066 0.33729 0.03066 0.39861 0 0.62857-0.37561 0.23764-0.38328 0.23764-1.1728 0-0.32962-0.046-0.59025-0.0383-0.26829-0.13031-0.45993-0.0843-0.19164-0.22997-0.29129-0.13798-0.10732-0.33728-0.10732-0.27596 0-0.45994 0.16864-0.1763 0.16098-0.26062 0.4446z"/>
     <path d="m-657.32-36.054q0.15331 0.09199 0.36028 0.16098 0.21463 0.06132 0.43694 0.06132 0.25296 0 0.42927-0.12265 0.1763-0.13031 0.1763-0.41394 0-0.23763-0.10731-0.39094-0.10732-0.15331-0.27596-0.27596-0.16098-0.12265-0.35262-0.2223-0.19164-0.10732-0.36028-0.25296-0.16098-0.14564-0.26829-0.34495-0.10732-0.1993-0.10732-0.50593 0-0.4906 0.26063-0.73589 0.26829-0.25296 0.75122-0.25296 0.31429 0 0.54426 0.06132 0.22996 0.05366 0.3986 0.15331l-0.14564 0.45993q-0.14565-0.07666-0.33729-0.12265-0.19163-0.05366-0.39094-0.05366-0.27596 0-0.40627 0.11498-0.12265 0.11498-0.12265 0.36028 0 0.19164 0.10732 0.32962 0.10731 0.13032 0.26829 0.2453 0.16864 0.10732 0.36028 0.2223 0.19164 0.11498 0.35262 0.27596 0.16864 0.15331 0.27596 0.37561 0.10731 0.21464 0.10731 0.54425 0 0.21464-0.069 0.40627-0.069 0.19164-0.21463 0.33728-0.13798 0.13798-0.35262 0.2223-0.20697 0.08432-0.49059 0.08432-0.33729 0-0.58258-0.06899-0.2453-0.06132-0.41394-0.16864z"/>
     <path d="m-655.05-39.259h0.4676v-0.75889l0.55192-0.17631v0.9352h0.82788v0.49826h-0.82788v2.2843q0 0.33728 0.0767 0.4906 0.0843 0.14565 0.26829 0.14565 0.15331 0 0.26063-0.03066 0.11499-0.03833 0.2453-0.09199l0.10732 0.43694q-0.16864 0.08432-0.37561 0.13032-0.19931 0.05366-0.42161 0.05366-0.38328 0-0.55192-0.2453-0.16098-0.25296-0.16098-0.81255v-2.361h-0.4676z"/>
     <path d="m-652.56-39.259h0.39095l0.0996 0.40627h0.023q0.10731-0.2223 0.27596-0.34495 0.1763-0.13031 0.4216-0.13031 0.17631 0 0.39861 0.06899l-0.10732 0.55958q-0.1993-0.06899-0.35261-0.06899-0.2453 0-0.39861 0.14565-0.15331 0.13798-0.19931 0.37561v2.8209h-0.55192z"/>
     <path d="m-650.5-39.029q0.2223-0.13798 0.53659-0.21464 0.32195-0.07666 0.67457-0.07666 0.32195 0 0.51359 0.09965 0.1993 0.09199 0.30662 0.26063 0.11498 0.16098 0.14565 0.37561 0.0383 0.20697 0.0383 0.43694 0 0.45993-0.023 0.89687-0.0153 0.43694-0.0153 0.82788 0 0.29129 0.0153 0.54426 0.023 0.2453 0.0766 0.4676h-0.4216l-0.13032-0.45227h-0.0307q-0.11498 0.1993-0.33728 0.34495-0.22231 0.14564-0.59792 0.14564-0.41394 0-0.68223-0.28362-0.26063-0.29129-0.26063-0.79722 0-0.32962 0.10732-0.55192 0.11498-0.2223 0.31428-0.36028 0.20697-0.13798 0.48293-0.19164 0.28363-0.06132 0.62858-0.06132 0.0767 0 0.15331 0 0.0767 0 0.16098 0.0077 0.023-0.23763 0.023-0.4216 0-0.43694-0.13031-0.61324t-0.47526-0.17631q-0.21464 0-0.4676 0.06899-0.25297 0.06132-0.42161 0.16098zm1.6634 1.8551q-0.0766-0.0077-0.15331-0.0077-0.0767-0.0077-0.15331-0.0077-0.18397 0-0.36028 0.03066t-0.31429 0.10732q-0.13798 0.07665-0.2223 0.20697-0.0766 0.13031-0.0766 0.32962 0 0.30662 0.14564 0.47526 0.15331 0.16864 0.39094 0.16864 0.32196 0 0.49827-0.15331 0.1763-0.15331 0.24529-0.33728z"/>
     <path d="m-645.28-35.617q-0.19164 0.14564-0.43694 0.21464t-0.51359 0.06899q-0.36795 0-0.62091-0.13798-0.25297-0.14564-0.41394-0.40627-0.15331-0.2683-0.22997-0.63624-0.069-0.37561-0.069-0.82788 0-0.98119 0.34495-1.4948 0.35262-0.51359 1.0042-0.51359 0.29896 0 0.51359 0.05366 0.21464 0.05366 0.36795 0.13798l-0.15331 0.48293q-0.30663-0.17631-0.66691-0.17631-0.41394 0-0.62857 0.36795-0.20697 0.36028-0.20697 1.1422 0 0.31429 0.046 0.59025t0.15331 0.48293q0.10732 0.1993 0.27596 0.32195 0.16864 0.11498 0.42161 0.11498 0.1993 0 0.36794-0.06899 0.17631-0.06899 0.28363-0.16098z"/>
     <path d="m-645.05-39.259h0.4676v-0.75889l0.55192-0.17631v0.9352h0.82788v0.49826h-0.82788v2.2843q0 0.33728 0.0766 0.4906 0.0843 0.14565 0.2683 0.14565 0.15331 0 0.26063-0.03066 0.11498-0.03833 0.2453-0.09199l0.10731 0.43694q-0.16864 0.08432-0.37561 0.13032-0.1993 0.05366-0.4216 0.05366-0.38328 0-0.55192-0.2453-0.16098-0.25296-0.16098-0.81255v-2.361h-0.4676z"/>
     <path d="m-661.34-30.681h-1.3185v4.837h-0.57491v-4.837h-1.3185v-0.52892h3.2119z"/>
     <path d="m-661.43-29.677h0.39095l0.0996 0.40628h0.023q0.10731-0.2223 0.27596-0.34495 0.1763-0.13032 0.4216-0.13032 0.17631 0 0.39861 0.06899l-0.10732 0.55959q-0.1993-0.06899-0.35261-0.06899-0.2453 0-0.39861 0.14565-0.15331 0.13798-0.19931 0.37561v2.8209h-0.55192z"/>
     <path d="m-659.38-29.447q0.2223-0.13798 0.53659-0.21464 0.32195-0.07666 0.67456-0.07666 0.32196 0 0.5136 0.09965 0.1993 0.09199 0.30662 0.26063 0.11498 0.16098 0.14564 0.37561 0.0383 0.20697 0.0383 0.43694 0 0.45993-0.023 0.89687-0.0153 0.43694-0.0153 0.82788 0 0.29129 0.0153 0.54426 0.023 0.2453 0.0766 0.4676h-0.4216l-0.13032-0.45227h-0.0307q-0.11498 0.1993-0.33729 0.34495-0.2223 0.14564-0.59791 0.14564-0.41394 0-0.68223-0.28362-0.26063-0.29129-0.26063-0.79722 0-0.32962 0.10732-0.55192 0.11498-0.2223 0.31428-0.36028 0.20697-0.13798 0.48293-0.19164 0.28363-0.06133 0.62858-0.06133 0.0766 0 0.15331 0 0.0767 0 0.16098 0.0077 0.023-0.23763 0.023-0.42161 0-0.43694-0.13031-0.61324-0.13032-0.17631-0.47527-0.17631-0.21463 0-0.46759 0.06899-0.25297 0.06133-0.42161 0.16098zm1.6634 1.8551q-0.0767-0.0077-0.15331-0.0077-0.0766-0.0077-0.15331-0.0077-0.18397 0-0.36028 0.03066t-0.31429 0.10732q-0.13798 0.07665-0.2223 0.20697-0.0767 0.13031-0.0767 0.32962 0 0.30662 0.14565 0.47526 0.15331 0.16864 0.39094 0.16864 0.32196 0 0.49826-0.15331 0.17631-0.15331 0.2453-0.33728z"/>
     <path d="m-654.31-25.844v-2.338q0-0.57492-0.13798-0.82788-0.13031-0.26063-0.47526-0.26063-0.30662 0-0.50593 0.18397-0.1993 0.18397-0.29129 0.45227v2.7903h-0.55192v-3.8328h0.39861l0.0996 0.40628h0.023q0.14564-0.20697 0.39094-0.35262 0.25297-0.14564 0.59792-0.14564 0.24529 0 0.42927 0.06899 0.19164 0.06899 0.31428 0.23763 0.13032 0.16098 0.19164 0.43694 0.069 0.27596 0.069 0.69756v2.4836z"/>
     <path d="m-652.96-26.472q0.15331 0.09199 0.36028 0.16098 0.21464 0.06132 0.43694 0.06132 0.25296 0 0.42927-0.12265 0.17631-0.13031 0.17631-0.41394 0-0.23763-0.10732-0.39094t-0.27596-0.27596q-0.16098-0.12265-0.35262-0.2223-0.19164-0.10732-0.36028-0.25296-0.16098-0.14564-0.26829-0.34495-0.10732-0.1993-0.10732-0.50593 0-0.4906 0.26063-0.73589 0.26829-0.25296 0.75122-0.25296 0.31429 0 0.54426 0.06132 0.22996 0.05366 0.39861 0.15331l-0.14565 0.45993q-0.14565-0.07666-0.33728-0.12265-0.19164-0.05366-0.39095-0.05366-0.27596 0-0.40627 0.11498-0.12265 0.11498-0.12265 0.36028 0 0.19164 0.10732 0.32962 0.10731 0.13032 0.26829 0.2453 0.16864 0.10732 0.36028 0.2223 0.19164 0.11498 0.35262 0.27596 0.16864 0.15331 0.27596 0.37561 0.10732 0.21464 0.10732 0.54425 0 0.21464-0.069 0.40627-0.069 0.19164-0.21464 0.33728-0.13798 0.13798-0.35262 0.2223-0.20697 0.08432-0.49059 0.08432-0.33729 0-0.58258-0.06899-0.2453-0.06132-0.41394-0.16864z"/>
     <path d="m-650.31-29.677h0.39095l0.0843 0.41394h0.0307q0.28362-0.50593 0.8892-0.50593t0.90454 0.45227q0.30662 0.45227 0.30662 1.4795 0 0.48293-0.0996 0.87387-0.0996 0.38328-0.28363 0.65924-0.18397 0.2683-0.45226 0.41394-0.26063 0.13798-0.58259 0.13798-0.2223 0-0.35261-0.03066-0.13032-0.023-0.28363-0.10732v1.5791h-0.55192zm0.55192 3.2272q0.10732 0.09199 0.23763 0.14564 0.13798 0.05366 0.36029 0.05366 0.40627 0 0.6439-0.41394t0.23763-1.1805q0-0.32195-0.046-0.58258-0.0383-0.26063-0.13031-0.4446-0.092-0.19164-0.23764-0.29129-0.13798-0.10732-0.34495-0.10732-0.55958 0-0.72056 0.68223z"/>
     <path d="m-647.14-27.76q0-1.0348 0.35261-1.5178 0.36029-0.4906 1.0195-0.4906 0.70523 0 1.0348 0.49826 0.33729 0.49826 0.33729 1.5101 0 1.0425-0.36028 1.5254t-1.0119 0.48293q-0.70523 0-1.0425-0.49826-0.32962-0.49826-0.32962-1.5101zm0.57492 0q0 0.33728 0.0383 0.61324 0.046 0.27596 0.13798 0.47526 0.0997 0.1993 0.25297 0.31429 0.15331 0.10732 0.36794 0.10732 0.39861 0 0.59792-0.35262 0.1993-0.36028 0.1993-1.1575 0-0.32962-0.046-0.60558-0.0383-0.28363-0.13798-0.48293-0.092-0.1993-0.2453-0.30662-0.15331-0.11498-0.36795-0.11498-0.39094 0-0.59791 0.36028-0.1993 0.36028-0.1993 1.1498z"/>
     <path d="m-643.66-29.677h0.39094l0.0996 0.40628h0.023q0.10732-0.2223 0.27596-0.34495 0.17631-0.13032 0.4216-0.13032 0.17631 0 0.39861 0.06899l-0.10731 0.55959q-0.19931-0.06899-0.35262-0.06899-0.2453 0-0.39861 0.14565-0.15331 0.13798-0.1993 0.37561v2.8209h-0.55192z"/>
     <path d="m-641.77-29.677h0.4676v-0.75889l0.55192-0.17631v0.9352h0.82788v0.49826h-0.82788v2.2843q0 0.33728 0.0767 0.4906 0.0843 0.14564 0.26829 0.14564 0.15331 0 0.26063-0.03066 0.11498-0.03833 0.2453-0.09199l0.10732 0.43694q-0.16865 0.08432-0.37562 0.13032-0.1993 0.05366-0.4216 0.05366-0.38328 0-0.55192-0.2453-0.16098-0.25296-0.16098-0.81255v-2.361h-0.4676z"/>
    </g>
    <g dominant-baseline="auto" stroke-width=".19164" style="font-feature-settings:normal;font-variant-alternates:normal;font-variant-caps:normal;font-variant-ligatures:normal;font-variant-numeric:normal;font-variant-position:normal;shape-padding:0;text-decoration-color:#000000;text-decoration-line:none;text-decoration-style:solid;text-indent:0;text-orientation:mixed;text-transform:none;white-space:normal" aria-label="Abstract Protocol">
     <path d="m-589.74-1.0224h-1.5178l-0.42927 1.5024h-0.56725l1.6174-5.4502h0.31429l1.6174 5.4502h-0.59791zm-1.3645-0.51359h1.2265l-0.4676-1.6558-0.14564-0.80488h-0.0153l-0.14565 0.82021z"/>
     <path d="m-588.22-4.8858h0.55192v1.8244h0.023q0.31429-0.38328 0.83554-0.38328 0.59025 0 0.88154 0.4676 0.29896 0.4676 0.29896 1.4795 0 1.0349-0.39861 1.5408-0.39094 0.50593-1.1115 0.50593-0.35262 0-0.64391-0.076656-0.29129-0.084321-0.43694-0.19164zm0.55192 4.8063q0.10732 0.061324 0.26063 0.099652 0.16098 0.030662 0.33729 0.030662 0.3986 0 0.62857-0.37561 0.23763-0.38328 0.23763-1.1728 0-0.32962-0.046-0.59025-0.0383-0.26829-0.13031-0.45993-0.0843-0.19164-0.22997-0.29129-0.13798-0.10732-0.33729-0.10732-0.27596 0-0.45993 0.16864-0.17631 0.16098-0.26063 0.4446z"/>
     <path d="m-584.96-0.1485q0.15332 0.091987 0.36029 0.16098 0.21463 0.061324 0.43693 0.061324 0.25297 0 0.42927-0.12265 0.17631-0.13031 0.17631-0.41394 0-0.23763-0.10732-0.39094-0.10731-0.15331-0.27596-0.27596-0.16097-0.12265-0.35261-0.2223-0.19164-0.10732-0.36028-0.25296-0.16098-0.14565-0.2683-0.34495-0.10732-0.1993-0.10732-0.50593 0-0.4906 0.26063-0.73589 0.2683-0.25296 0.75123-0.25296 0.31429 0 0.54425 0.061324 0.22997 0.053659 0.39861 0.15331l-0.14564 0.45993q-0.14565-0.076656-0.33729-0.12265-0.19164-0.053659-0.39094-0.053659-0.27596 0-0.40628 0.11498-0.12265 0.11498-0.12265 0.36028 0 0.19164 0.10732 0.32962 0.10732 0.13031 0.2683 0.2453 0.16864 0.10732 0.36028 0.2223t0.35261 0.27596q0.16865 0.15331 0.27596 0.37561 0.10732 0.21464 0.10732 0.54425 0 0.21464-0.069 0.40627t-0.21463 0.33728q-0.13798 0.13798-0.35262 0.2223-0.20697 0.084321-0.4906 0.084321-0.33728 0-0.58258-0.06899-0.2453-0.061324-0.41394-0.16864z"/>
     <path d="m-582.69-3.3527h0.4676v-0.75889l0.55192-0.17631v0.9352h0.82788v0.49826h-0.82788v2.2843q0 0.33728 0.0767 0.4906 0.0843 0.14565 0.2683 0.14565 0.15331 0 0.26063-0.030662 0.11498-0.038328 0.2453-0.091987l0.10731 0.43694q-0.16864 0.084321-0.37561 0.13031-0.1993 0.053659-0.4216 0.053659-0.38328 0-0.55192-0.2453-0.16098-0.25296-0.16098-0.81255v-2.361h-0.4676z"/>
     <path d="m-580.19-3.3527h0.39094l0.0997 0.40627h0.023q0.10732-0.2223 0.27596-0.34495 0.17631-0.13031 0.42161-0.13031 0.17631 0 0.39861 0.06899l-0.10732 0.55959q-0.1993-0.06899-0.35262-0.06899-0.24529 0-0.3986 0.14565-0.15332 0.13798-0.19931 0.37561v2.8209h-0.55192z"/>
     <path d="m-578.14-3.1227q0.2223-0.13798 0.53659-0.21464 0.32196-0.076656 0.67457-0.076656 0.32195 0 0.51359 0.099652 0.19931 0.091987 0.30663 0.26063 0.11498 0.16098 0.14564 0.37561 0.0383 0.20697 0.0383 0.43694 0 0.45993-0.023 0.89687-0.0153 0.43694-0.0153 0.82788 0 0.29129 0.0153 0.54425 0.023 0.2453 0.0767 0.4676h-0.42161l-0.13031-0.45227h-0.0307q-0.11499 0.1993-0.33729 0.34495-0.2223 0.14565-0.59791 0.14565-0.41394 0-0.68224-0.28363-0.26063-0.29129-0.26063-0.79722 0-0.32962 0.10732-0.55192 0.11499-0.2223 0.31429-0.36028 0.20697-0.13798 0.48293-0.19164 0.28363-0.061325 0.62858-0.061325 0.0766 0 0.15331 0 0.0767 0 0.16097 0.00767 0.023-0.23763 0.023-0.42161 0-0.43694-0.13031-0.61324-0.13032-0.17631-0.47527-0.17631-0.21463 0-0.4676 0.06899-0.25296 0.061325-0.4216 0.16098zm1.6634 1.8551q-0.0767-0.00767-0.15331-0.00767-0.0767-0.00767-0.15331-0.00767-0.18398 0-0.36028 0.030662-0.17631 0.030662-0.31429 0.10732-0.13798 0.076655-0.2223 0.20697-0.0767 0.13031-0.0767 0.32962 0 0.30662 0.14565 0.47526 0.15331 0.16864 0.39094 0.16864 0.32195 0 0.49826-0.15331t0.2453-0.33728z"/>
     <path d="m-572.91 0.28844q-0.19164 0.14565-0.43693 0.21464-0.2453 0.06899-0.5136 0.06899-0.36794 0-0.62091-0.13798-0.25296-0.14565-0.41394-0.40627-0.15331-0.26829-0.22996-0.63624-0.069-0.37561-0.069-0.82788 0-0.98119 0.34495-1.4948 0.35261-0.51359 1.0042-0.51359 0.29896 0 0.5136 0.053659 0.21463 0.053659 0.36794 0.13798l-0.15331 0.48293q-0.30662-0.17631-0.6669-0.17631-0.41394 0-0.62858 0.36795-0.20697 0.36028-0.20697 1.1422 0 0.31429 0.046 0.59025 0.046 0.27596 0.15331 0.48293 0.10732 0.1993 0.27596 0.32195 0.16864 0.11498 0.4216 0.11498 0.19931 0 0.36795-0.06899 0.17631-0.06899 0.28363-0.16098z"/>
     <path d="m-572.69-3.3527h0.46759v-0.75889l0.55192-0.17631v0.9352h0.82788v0.49826h-0.82788v2.2843q0 0.33728 0.0767 0.4906 0.0843 0.14565 0.26829 0.14565 0.15332 0 0.26063-0.030662 0.11499-0.038328 0.2453-0.091987l0.10732 0.43694q-0.16864 0.084321-0.37561 0.13031-0.19931 0.053659-0.42161 0.053659-0.38328 0-0.55192-0.2453-0.16098-0.25296-0.16098-0.81255v-2.361h-0.46759z"/>
     <path d="m-591.85 4.7498q0.2453-0.06899 0.52126-0.091987t0.54425-0.022997q0.30663 0 0.60558 0.06899 0.29896 0.06899 0.53659 0.25296 0.2453 0.18397 0.39094 0.50593 0.15332 0.32195 0.15332 0.82021 0 0.48293-0.14565 0.82021-0.13798 0.33728-0.37561 0.55192-0.22997 0.20697-0.53659 0.30662-0.29896 0.091987-0.62091 0.091987-0.0307 0-0.0996 0-0.069 0-0.14565 0-0.0767-0.00767-0.15331-0.015331-0.069-0.00767-0.0996-0.015331v2.039h-0.57492zm1.0962 0.41394q-0.15332 0-0.29896 0.015331-0.13798 0.00767-0.2223 0.030662v2.2843q0.0307 0.015331 0.092 0.022997 0.069 0 0.13798 0.00767 0.069 0 0.13032 0 0.069 0 0.0996 0 0.21464 0 0.41394-0.053659 0.19931-0.053659 0.35262-0.19164 0.15331-0.14565 0.24529-0.38328 0.0997-0.2453 0.0997-0.61324 0-0.32195-0.092-0.53659-0.0843-0.21464-0.22997-0.34495-0.13798-0.13031-0.32962-0.18397-0.19163-0.053659-0.3986-0.053659z"/>
     <path d="m-588.64 6.2292h0.39094l0.0997 0.40627h0.023q0.10732-0.2223 0.27596-0.34495 0.17631-0.13031 0.42161-0.13031 0.17631 0 0.39861 0.06899l-0.10732 0.55959q-0.1993-0.06899-0.35262-0.06899-0.24529 0-0.3986 0.14565-0.15332 0.13798-0.19931 0.37561v2.8209h-0.55192z"/>
     <path d="m-586.71 8.1456q0-1.0349 0.35262-1.5178 0.36028-0.4906 1.0195-0.4906 0.70524 0 1.0348 0.49826 0.33729 0.49826 0.33729 1.5101 0 1.0425-0.36028 1.5254-0.36028 0.48293-1.0119 0.48293-0.70523 0-1.0425-0.49826-0.32962-0.49826-0.32962-1.5101zm0.57492 0q0 0.33728 0.0383 0.61324 0.046 0.27596 0.13798 0.47526 0.0997 0.1993 0.25297 0.31429 0.15331 0.10732 0.36794 0.10732 0.39861 0 0.59792-0.35262 0.1993-0.36028 0.1993-1.1575 0-0.32962-0.046-0.60558-0.0383-0.28363-0.13798-0.48293-0.092-0.1993-0.2453-0.30662-0.15331-0.11498-0.36795-0.11498-0.39094 0-0.59791 0.36028-0.1993 0.36028-0.1993 1.1498z"/>
     <path d="m-583.62 6.2292h0.4676v-0.75889l0.55192-0.17631v0.9352h0.82788v0.49826h-0.82788v2.2843q0 0.33728 0.0766 0.4906 0.0843 0.14565 0.2683 0.14565 0.15331 0 0.26063-0.030662 0.11498-0.038328 0.2453-0.091987l0.10731 0.43694q-0.16864 0.084321-0.37561 0.13031-0.1993 0.05366-0.4216 0.05366-0.38328 0-0.55192-0.2453-0.16098-0.25296-0.16098-0.81255v-2.361h-0.4676z"/>
     <path d="m-581.35 8.1456q0-1.0349 0.35262-1.5178 0.36028-0.4906 1.0195-0.4906 0.70524 0 1.0348 0.49826 0.33729 0.49826 0.33729 1.5101 0 1.0425-0.36028 1.5254-0.36028 0.48293-1.0119 0.48293-0.70523 0-1.0425-0.49826-0.32962-0.49826-0.32962-1.5101zm0.57492 0q0 0.33728 0.0383 0.61324 0.046 0.27596 0.13798 0.47526 0.0997 0.1993 0.25297 0.31429 0.15331 0.10732 0.36794 0.10732 0.39861 0 0.59792-0.35262 0.1993-0.36028 0.1993-1.1575 0-0.32962-0.046-0.60558-0.0383-0.28363-0.13798-0.48293-0.092-0.1993-0.2453-0.30662-0.15331-0.11498-0.36795-0.11498-0.39094 0-0.59791 0.36028-0.1993 0.36028-0.1993 1.1498z"/>
     <path d="m-575.76 9.8704q-0.19164 0.14565-0.43694 0.21464-0.24529 0.06899-0.51359 0.06899-0.36794 0-0.62091-0.13798-0.25296-0.14565-0.41394-0.40627-0.15331-0.26829-0.22996-0.63624-0.069-0.37561-0.069-0.82788 0-0.98119 0.34495-1.4948 0.35261-0.51359 1.0042-0.51359 0.29896 0 0.5136 0.053659 0.21463 0.053659 0.36794 0.13798l-0.15331 0.48293q-0.30662-0.17631-0.6669-0.17631-0.41394 0-0.62858 0.36795-0.20697 0.36028-0.20697 1.1422 0 0.31429 0.046 0.59025t0.15331 0.48293q0.10731 0.1993 0.27596 0.32195 0.16864 0.11498 0.4216 0.11498 0.19931 0 0.36795-0.06899 0.17631-0.06899 0.28362-0.16098z"/>
     <path d="m-575.45 8.1456q0-1.0349 0.35261-1.5178 0.36028-0.4906 1.0195-0.4906 0.70523 0 1.0348 0.49826 0.33728 0.49826 0.33728 1.5101 0 1.0425-0.36028 1.5254-0.36028 0.48293-1.0118 0.48293-0.70523 0-1.0425-0.49826-0.32961-0.49826-0.32961-1.5101zm0.57491 0q0 0.33728 0.0383 0.61324 0.046 0.27596 0.13798 0.47526 0.0996 0.1993 0.25296 0.31429 0.15331 0.10732 0.36795 0.10732 0.39861 0 0.59791-0.35262 0.19931-0.36028 0.19931-1.1575 0-0.32962-0.046-0.60558-0.0383-0.28363-0.13798-0.48293-0.092-0.1993-0.24529-0.30662-0.15331-0.11498-0.36795-0.11498-0.39094 0-0.59791 0.36028-0.19931 0.36028-0.19931 1.1498z"/>
     <path d="m-571.38 9.1498q0 0.26829 0.069 0.38328 0.0767 0.11498 0.20697 0.11498 0.16098 0 0.37561-0.084321l0.0537 0.4446q-0.0996 0.06132-0.28362 0.09965-0.17631 0.03833-0.32196 0.03833-0.29129 0-0.47526-0.17631-0.17631-0.18397-0.17631-0.63624v-4.6377h0.55192z"/>
    </g>
   </g>
  </g>
  <path d="m-666.95-5.8436h18.161v5.8389h-18.161z" fill="#999" stroke="#999" stroke-width=".053718"/>
  <path d="m-666.95 1.9049h18.161v5.8389h-18.161z" fill="#999" stroke="#999" stroke-width=".053718"/>
  <g stroke-width=".062942" aria-label="lws_token_map_t">
   <path d="m-667.03 10.818q0 0.08812 0.0227 0.12588 0.0252 0.03777 0.068 0.03777 0.0529 0 0.12336-0.02769l0.0176 0.14602q-0.0327 0.02014-0.0932 0.03273-0.0579 0.01259-0.10574 0.01259-0.0957 0-0.15609-0.05791-0.0579-0.06042-0.0579-0.20897v-1.5232h0.18127z"/>
   <path d="m-665.97 9.8583 0.22407 0.73516 0.0453 0.2417h5e-3l0.0378-0.24673 0.1712-0.73012h0.1712l-0.33485 1.2865h-0.10322l-0.25429-0.82579-0.0352-0.21148h-5e-3l-0.0353 0.214-0.24673 0.82328h-0.10322l-0.34492-1.2865h0.19386l0.19386 0.73264 0.0302 0.24421h5e-3l0.0453-0.24925 0.20645-0.72761z"/>
   <path d="m-665.17 10.911q0.0504 0.03021 0.11833 0.05287 0.0705 0.02014 0.14351 0.02014 0.0831 0 0.14099-0.04028 0.0579-0.0428 0.0579-0.13595 0-0.07805-0.0352-0.1284-0.0352-0.05035-0.0906-0.09064-0.0529-0.04028-0.11581-0.07301-0.063-0.03525-0.11833-0.08308-0.0529-0.04784-0.0881-0.1133-0.0353-0.06546-0.0353-0.16617 0-0.16113 0.0856-0.2417 0.0881-0.083083 0.24673-0.083083 0.10323 0 0.17876 0.020141 0.0755 0.017624 0.13092 0.050353l-0.0478 0.15106q-0.0478-0.02518-0.11078-0.04028-0.0629-0.017623-0.1284-0.017623-0.0906 0-0.13344 0.037764-0.0403 0.03777-0.0403 0.11833 0 0.06294 0.0353 0.10826 0.0353 0.0428 0.0881 0.08057 0.0554 0.03525 0.11833 0.07301 0.0629 0.03777 0.11581 0.09064 0.0554 0.05035 0.0906 0.12337 0.0352 0.07049 0.0352 0.17875 0 0.07049-0.0226 0.13344-0.0227 0.06294-0.0705 0.11078-0.0453 0.04532-0.11581 0.07301-0.068 0.02769-0.16113 0.02769-0.11078 0-0.19135-0.02266-0.0806-0.02014-0.13595-0.05539z"/>
   <path d="m-664.45 11.47h0.8409v0.16365h-0.8409z"/>
   <path d="m-663.59 9.8583h0.15358v-0.24925l0.18127-0.057906v0.30716h0.27191v0.16365h-0.27191v0.75026q0 0.11078 0.0252 0.16113 0.0277 0.04784 0.0881 0.04784 0.0503 0 0.0856-0.01007 0.0378-0.01259 0.0806-0.03021l0.0353 0.14351q-0.0554 0.02769-0.12336 0.0428-0.0655 0.01762-0.13848 0.01762-0.12588 0-0.18127-0.08057-0.0529-0.08308-0.0529-0.26687v-0.77544h-0.15358z"/>
   <path d="m-662.84 10.488q0-0.33988 0.11581-0.4985 0.11833-0.16113 0.33485-0.16113 0.23163 0 0.33989 0.16365 0.11078 0.16365 0.11078 0.49598 0 0.3424-0.11833 0.50102-0.11834 0.15861-0.33234 0.15861-0.23162 0-0.3424-0.16365-0.10826-0.16365-0.10826-0.49598zm0.18883 0q0 0.11078 0.0126 0.20141 0.0151 0.09064 0.0453 0.1561 0.0327 0.06546 0.0831 0.10322 0.0503 0.03525 0.12084 0.03525 0.13092 0 0.19638-0.11581 0.0655-0.11833 0.0655-0.38017 0-0.10826-0.0151-0.1989-0.0126-0.09315-0.0453-0.15861-0.0302-0.06546-0.0806-0.10071-0.0503-0.037764-0.12085-0.037764-0.1284 0-0.19637 0.11833-0.0655 0.11833-0.0655 0.37765z"/>
   <path d="m-661.43 10.551h-0.0931v0.56648h-0.18127v-1.7624h0.18127v1.0725l0.0831-0.03525 0.29457-0.53374h0.20896l-0.29708 0.50857-0.0881 0.08057 0.10323 0.09819 0.32478 0.57151h-0.21904z"/>
   <path d="m-660 11.032q-0.0604 0.05539-0.15358 0.0856-0.0931 0.03021-0.19638 0.03021-0.11833 0-0.20645-0.04532-0.0856-0.04784-0.1435-0.13344-0.0554-0.08812-0.0831-0.20897-0.0252-0.12085-0.0252-0.27191 0-0.32226 0.11833-0.49095 0.11833-0.16868 0.33485-0.16868 0.0705 0 0.13847 0.017624 0.0705 0.017624 0.12588 0.070495 0.0554 0.052871 0.0881 0.14854 0.0353 0.09567 0.0353 0.24925 0 0.0428-5e-3 0.09315-3e-3 0.04784-8e-3 0.10071h-0.63949q0 0.10826 0.0176 0.19638 0.0176 0.08812 0.0554 0.15106 0.0378 0.06042 0.0957 0.09567 0.0604 0.03273 0.14854 0.03273 0.068 0 0.13343-0.02518 0.068-0.02518 0.10323-0.06042zm-0.14099-0.67473q5e-3 -0.18882-0.0529-0.27694-0.0579-0.088119-0.15862-0.088119-0.11581 0-0.18378 0.088119-0.068 0.08812-0.0806 0.27694z"/>
   <path d="m-659.07 11.117v-0.76789q0-0.18882-0.0453-0.27191-0.0428-0.0856-0.15609-0.0856-0.10071 0-0.16617 0.060423-0.0655 0.06042-0.0957 0.14854v0.91643h-0.18127v-1.2588h0.13092l0.0327 0.13344h8e-3q0.0478-0.067977 0.1284-0.11581 0.0831-0.047836 0.19638-0.047836 0.0806 0 0.14099 0.022659 0.0629 0.022659 0.10322 0.078048 0.0428 0.052871 0.0629 0.14351 0.0227 0.09064 0.0227 0.22911v0.81572z"/>
   <path d="m-658.75 11.47h0.8409v0.16365h-0.8409z"/>
   <path d="m-657.17 11.117v-0.74775q0-0.10071-8e-3 -0.1712-5e-3 -0.07301-0.0252-0.11833-0.0201-0.04532-0.0554-0.06546-0.0352-0.022658-0.0932-0.022658-0.0856 0-0.14603 0.067976-0.0579 0.06546-0.0806 0.15106v0.90636h-0.18127v-1.2588h0.1284l0.0327 0.13344h8e-3q0.0529-0.073012 0.12588-0.11833 0.073-0.045318 0.18631-0.045318 0.0957 0 0.1561 0.0428 0.0629 0.040283 0.0982 0.14602 0.0453-0.088118 0.1284-0.13847 0.0856-0.050353 0.1863-0.050353 0.0831 0 0.14099 0.022659 0.0604 0.020141 0.0957 0.07553 0.0378 0.052871 0.0554 0.14351 0.0176 0.08812 0.0176 0.22407v0.82328h-0.18128v-0.80062q0-0.16365-0.0327-0.24421-0.0302-0.080565-0.14351-0.080565-0.0957 0-0.15358 0.060423-0.0554 0.05791-0.078 0.15861v0.90636z"/>
   <path d="m-656.14 9.9339q0.073-0.045318 0.17623-0.070495 0.10574-0.025177 0.22156-0.025177 0.10574 0 0.16868 0.03273 0.0655 0.030212 0.10071 0.085601 0.0378 0.052871 0.0478 0.12337 0.0126 0.06798 0.0126 0.14351 0 0.15106-8e-3 0.29457-5e-3 0.14351-5e-3 0.27191 0 0.09567 5e-3 0.17875 8e-3 0.08057 0.0252 0.15358h-0.13847l-0.0428-0.14854h-0.0101q-0.0378 0.06546-0.11078 0.1133-0.073 0.04784-0.19637 0.04784-0.13596 0-0.22408-0.09315-0.0856-0.09567-0.0856-0.26184 0-0.10826 0.0353-0.18127 0.0378-0.07301 0.10323-0.11833 0.068-0.04532 0.15861-0.06294 0.0932-0.02014 0.20645-0.02014 0.0252 0 0.0503 0 0.0252 0 0.0529 0.0025 8e-3 -0.07805 8e-3 -0.13847 0-0.14351-0.0428-0.20141-0.0428-0.05791-0.15609-0.05791-0.0705 0-0.15358 0.02266-0.0831 0.02014-0.13847 0.05287zm0.54633 0.60927q-0.0252-0.0025-0.0503-0.0025-0.0252-0.0025-0.0504-0.0025-0.0604 0-0.11833 0.01007-0.0579 0.01007-0.10322 0.03525-0.0453 0.02518-0.073 0.06798-0.0252 0.0428-0.0252 0.10826 0 0.10071 0.0478 0.1561 0.0504 0.05539 0.12841 0.05539 0.10574 0 0.16364-0.05035t0.0806-0.11078z"/>
   <path d="m-655.12 9.8583h0.1284l0.0277 0.13595h0.0101q0.0932-0.16617 0.29205-0.16617 0.19889 0 0.29708 0.14854 0.10071 0.14854 0.10071 0.48591 0 0.15861-0.0327 0.28701-0.0327 0.12588-0.0932 0.21652-0.0604 0.08812-0.14855 0.13595-0.0856 0.04532-0.19134 0.04532-0.073 0-0.11581-0.01007-0.0428-0.0076-0.0932-0.03525v0.51864h-0.18127zm0.18127 1.0599q0.0353 0.03021 0.0781 0.04784 0.0453 0.01762 0.11833 0.01762 0.13344 0 0.21149-0.13595 0.078-0.13595 0.078-0.38772 0-0.10574-0.0151-0.19134-0.0126-0.0856-0.0428-0.14602-0.0302-0.06294-0.078-0.09567-0.0453-0.035247-0.11329-0.035247-0.18379 0-0.23667 0.22407z"/>
   <path d="m-654.17 11.47h0.8409v0.16365h-0.8409z"/>
   <path d="m-653.31 9.8583h0.15358v-0.24925l0.18127-0.057906v0.30716h0.27191v0.16365h-0.27191v0.75026q0 0.11078 0.0252 0.16113 0.0277 0.04784 0.0881 0.04784 0.0503 0 0.0856-0.01007 0.0378-0.01259 0.0806-0.03021l0.0353 0.14351q-0.0554 0.02769-0.12337 0.0428-0.0655 0.01762-0.13847 0.01762-0.12588 0-0.18127-0.08057-0.0529-0.08308-0.0529-0.26687v-0.77544h-0.15358z"/>
  </g>
  <path d="m-658.06-4.436v-9.2604" fill="none" marker-end="url(#Arrow1Send)" stroke="#000" stroke-width="1.565"/>
  <g dominant-baseline="auto" stroke-width=".11071" style="font-feature-settings:normal;font-variant-alternates:normal;font-variant-caps:normal;font-variant-ligatures:normal;font-variant-numeric:normal;font-variant-position:normal;shape-padding:0;text-decoration-color:#000000;text-decoration-line:none;text-decoration-style:solid;text-indent:0;text-orientation:mixed;text-transform:none;white-space:normal" aria-label="Specify transport- specific details">
   <path d="m-667.19 15.959q0.0841 0.05757 0.2347 0.11071 0.155 0.04871 0.34985 0.04871 0.24799 0 0.40298-0.11957 0.155-0.124 0.155-0.38527 0-0.17271-0.0886-0.30113-0.0886-0.12842-0.22142-0.23471-0.13285-0.11071-0.28785-0.21256-0.15057-0.10628-0.28342-0.23028-0.13285-0.12842-0.22142-0.29228-0.0886-0.16385-0.0886-0.39413 0-0.37199 0.22142-0.54912 0.22585-0.18156 0.58456-0.18156 0.22142 0 0.39413 0.03986 0.1727 0.03986 0.27899 0.10185l-0.10629 0.29228q-0.0797-0.04871-0.23027-0.08857-0.14614-0.03986-0.34099-0.03986-0.23914 0-0.35428 0.11957-0.11514 0.11514-0.11514 0.29228 0 0.155 0.0886 0.27456 0.0886 0.11957 0.22142 0.22585 0.13286 0.10628 0.28342 0.21699 0.155 0.10628 0.28785 0.23913 0.13285 0.13285 0.22142 0.30113 0.0886 0.16828 0.0886 0.39856 0 0.3897-0.23028 0.61112-0.23028 0.22142-0.65098 0.22142-0.2657 0-0.43841-0.04871-0.16828-0.04871-0.27013-0.11071z"/>
   <path d="m-665.3 14.156h0.22585l0.0487 0.23914h0.0177q0.16385-0.29228 0.5137-0.29228 0.34984 0 0.52255 0.26128 0.17714 0.26128 0.17714 0.85469 0 0.27899-0.0576 0.50484-0.0576 0.22142-0.16385 0.38084-0.10629 0.155-0.26128 0.23914-0.15057 0.07971-0.33656 0.07971-0.12842 0-0.20371-0.01771-0.0753-0.01328-0.16385-0.062v0.91226h-0.31885zm0.31885 1.8644q0.062 0.05314 0.13728 0.08414 0.0797 0.031 0.20814 0.031 0.2347 0 0.37198-0.23914 0.13729-0.23913 0.13729-0.68198 0-0.18599-0.0266-0.33656-0.0222-0.15057-0.0753-0.25685-0.0531-0.11071-0.13728-0.16828-0.0797-0.062-0.19928-0.062-0.32327 0-0.41627 0.39413z"/>
   <path d="m-662.04 16.22q-0.10628 0.09743-0.27014 0.15057-0.16385 0.05314-0.34541 0.05314-0.20814 0-0.36313-0.07971-0.15057-0.08414-0.25242-0.23471-0.0974-0.155-0.14614-0.36756-0.0443-0.21256-0.0443-0.47827 0-0.56684 0.20814-0.86354 0.20814-0.2967 0.58898-0.2967 0.124 0 0.24356 0.031 0.124 0.031 0.22142 0.124 0.0974 0.093 0.155 0.26128 0.062 0.16828 0.062 0.43841 0 0.07528-9e-3 0.16385-4e-3 0.08414-0.0133 0.17714h-1.1248q0 0.19042 0.031 0.34542t0.0974 0.26571q0.0664 0.10628 0.16828 0.16828 0.10628 0.05757 0.26128 0.05757 0.11956 0 0.2347-0.04428 0.11957-0.04428 0.18157-0.10628zm-0.24799-1.1868q9e-3 -0.33213-0.093-0.48713-0.10185-0.15499-0.27899-0.15499-0.20371 0-0.32328 0.15499-0.11956 0.155-0.14171 0.48713z"/>
   <path d="m-660.35 16.26q-0.11071 0.08414-0.25242 0.124-0.14171 0.03986-0.2967 0.03986-0.21257 0-0.35871-0.07971-0.14613-0.08414-0.23913-0.23471-0.0886-0.155-0.13285-0.36756-0.0399-0.21699-0.0399-0.47827 0-0.56684 0.19928-0.86354 0.20371-0.2967 0.58012-0.2967 0.17271 0 0.29671 0.031 0.12399 0.031 0.21256 0.07971l-0.0886 0.27899q-0.17713-0.10185-0.38527-0.10185-0.23913 0-0.36313 0.21256-0.11957 0.20814-0.11957 0.65984 0 0.18156 0.0266 0.34099 0.0266 0.15942 0.0886 0.27899 0.062 0.11514 0.15943 0.18599 0.0974 0.06643 0.24356 0.06643 0.11514 0 0.21256-0.03986 0.10186-0.03986 0.16385-0.093z"/>
   <path d="m-659.95 14.156h0.31885v2.2142h-0.31885zm-0.0576-0.67312q0-0.10628 0.0576-0.17271 0.062-0.06643 0.15943-0.06643 0.0974 0 0.15942 0.06643 0.0664 0.062 0.0664 0.17271 0 0.10628-0.0664 0.16828-0.062 0.05757-0.15942 0.05757-0.0974 0-0.15943-0.062-0.0576-0.062-0.0576-0.16385z"/>
   <path d="m-659.23 14.156h0.27013v-0.124q0-0.41627 0.11957-0.60226t0.40742-0.18599q0.11513 0 0.20813 0.01329 0.093 0.01328 0.19042 0.05757l-0.0797 0.27456q-0.0797-0.03543-0.15056-0.04428-0.0664-0.01328-0.12843-0.01328-0.0886 0-0.13728 0.03543-0.0487 0.03543-0.0753 0.11071-0.0221 0.07528-0.031 0.19485-4e-3 0.11514-4e-3 0.28342h0.46056v0.28785h-0.46056v1.9264h-0.31885v-1.9264h-0.27013z"/>
   <path d="m-657.35 15.587 0.093 0.42956h0.0221l0.0664-0.42956 0.33656-1.4304h0.32328l-0.52698 1.9884q-0.062 0.23914-0.124 0.44727t-0.13728 0.3587q-0.0709 0.155-0.16385 0.23914-0.0886 0.08857-0.21257 0.08857-0.12399 0-0.21699-0.03986l0.0531-0.30113q0.062 0.02214 0.124 0.0089 0.062-0.01328 0.11514-0.07528 0.0576-0.062 0.10185-0.18599 0.0487-0.11957 0.0841-0.31442l-0.7174-2.2142h0.36313z"/>
   <path d="m-667.41 18.585h0.27014v-0.43841l0.31884-0.10185v0.54027h0.47827v0.28785h-0.47827v1.3197q0 0.19485 0.0443 0.28342 0.0487 0.08414 0.15499 0.08414 0.0886 0 0.15057-0.01771 0.0664-0.02214 0.14171-0.05314l0.062 0.25242q-0.0974 0.04871-0.217 0.07528-0.11513 0.031-0.24356 0.031-0.22142 0-0.31885-0.14171-0.093-0.14614-0.093-0.46941v-1.364h-0.27014z"/>
   <path d="m-665.97 18.585h0.22585l0.0576 0.23471h0.0133q0.062-0.12842 0.15942-0.19928 0.10185-0.07528 0.24356-0.07528 0.10186 0 0.23028 0.03986l-0.062 0.32328q-0.11514-0.03986-0.20371-0.03986-0.1417 0-0.23027 0.08414-0.0886 0.07971-0.11514 0.21699v1.6297h-0.31885z"/>
   <path d="m-664.78 18.718q0.12842-0.07971 0.30999-0.124 0.18599-0.04428 0.3897-0.04428 0.18599 0 0.2967 0.05757 0.11514 0.05314 0.17714 0.15057 0.0664 0.093 0.0841 0.21699 0.0221 0.11957 0.0221 0.25242 0 0.2657-0.0133 0.51812-9e-3 0.25242-9e-3 0.47827 0 0.16828 9e-3 0.31442 0.0133 0.14171 0.0443 0.27013h-0.24356l-0.0753-0.26128h-0.0177q-0.0664 0.11514-0.19485 0.19928-0.12843 0.08414-0.34542 0.08414-0.23913 0-0.39413-0.16385-0.15056-0.16828-0.15056-0.46056 0-0.19042 0.062-0.31885 0.0664-0.12842 0.18157-0.20814 0.11957-0.07971 0.27899-0.11071 0.16385-0.03543 0.36313-0.03543 0.0443 0 0.0886 0t0.093 0.0044q0.0133-0.13728 0.0133-0.24356 0-0.25242-0.0753-0.35427-0.0753-0.10185-0.27456-0.10185-0.124 0-0.27014 0.03986-0.14614 0.03543-0.24356 0.093zm0.96096 1.0717q-0.0443-0.0044-0.0886-0.0044-0.0443-0.0044-0.0886-0.0044-0.10629 0-0.20814 0.01771t-0.18156 0.062q-0.0797 0.04428-0.12843 0.11957-0.0443 0.07528-0.0443 0.19042 0 0.17714 0.0841 0.27456 0.0886 0.09743 0.22585 0.09743 0.18599 0 0.28784-0.08857 0.10186-0.08857 0.14171-0.19485z"/>
   <path d="m-661.85 20.799v-1.3507q0-0.33213-0.0797-0.47827-0.0753-0.15057-0.27456-0.15057-0.17714 0-0.29228 0.10628t-0.16828 0.26128v1.6119h-0.31884v-2.2142h0.23028l0.0576 0.23471h0.0133q0.0841-0.11957 0.22585-0.20371 0.14614-0.08414 0.34542-0.08414 0.14171 0 0.24799 0.03985 0.11071 0.03986 0.18156 0.13728 0.0753 0.093 0.11071 0.25242 0.0399 0.15942 0.0399 0.40299v1.4348z"/>
   <path d="m-661.08 20.436q0.0886 0.05314 0.20814 0.093 0.124 0.03543 0.25242 0.03543 0.14614 0 0.24799-0.07086 0.10186-0.07528 0.10186-0.23914 0-0.13728-0.062-0.22585-0.062-0.08857-0.15943-0.15942-0.093-0.07085-0.2037-0.12842-0.11071-0.062-0.20814-0.14614-0.093-0.08414-0.15499-0.19928-0.062-0.11514-0.062-0.29228 0-0.28342 0.15056-0.42513 0.155-0.14614 0.43399-0.14614 0.18157 0 0.31442 0.03543 0.13285 0.031 0.23028 0.08857l-0.0841 0.2657q-0.0841-0.04428-0.19485-0.07085-0.11072-0.031-0.22585-0.031-0.15943 0-0.23471 0.06643-0.0709 0.06643-0.0709 0.20814 0 0.11071 0.062 0.19042 0.062 0.07528 0.155 0.14171 0.0974 0.062 0.20813 0.12842 0.11071 0.06643 0.20371 0.15942 0.0974 0.08857 0.15942 0.21699 0.062 0.124 0.062 0.31442 0 0.124-0.0399 0.23471-0.0399 0.11071-0.124 0.19485-0.0797 0.07971-0.20371 0.12842-0.11956 0.04871-0.28342 0.04871-0.19485 0-0.33656-0.03986-0.14171-0.03543-0.23913-0.09743z"/>
   <path d="m-659.54 18.585h0.22585l0.0487 0.23914h0.0177q0.16385-0.29228 0.5137-0.29228 0.34984 0 0.52255 0.26128 0.17714 0.26128 0.17714 0.85468 0 0.27899-0.0576 0.50484-0.0576 0.22142-0.16385 0.38084-0.10629 0.15499-0.26128 0.23913-0.15057 0.07971-0.33656 0.07971-0.12842 0-0.20371-0.01771-0.0753-0.01328-0.16385-0.062v0.91226h-0.31885zm0.31885 1.8644q0.062 0.05314 0.13728 0.08414 0.0797 0.031 0.20814 0.031 0.2347 0 0.37198-0.23914 0.13729-0.23914 0.13729-0.68198 0-0.18599-0.0266-0.33656-0.0221-0.15057-0.0753-0.25685-0.0531-0.11071-0.13728-0.16828-0.0797-0.062-0.19928-0.062-0.32327 0-0.41627 0.39413z"/>
   <path d="m-657.71 19.692q0-0.59784 0.20371-0.87683 0.20814-0.28342 0.58898-0.28342 0.40742 0 0.59784 0.28785 0.19485 0.28785 0.19485 0.8724 0 0.60227-0.20814 0.88126-0.20813 0.27899-0.58455 0.27899-0.40741 0-0.60226-0.28785-0.19043-0.28785-0.19043-0.8724zm0.33214 0q0 0.19485 0.0221 0.35427 0.0266 0.15942 0.0797 0.27456 0.0576 0.11514 0.14614 0.18157 0.0886 0.062 0.21256 0.062 0.23028 0 0.34542-0.20371 0.11514-0.20814 0.11514-0.66869 0-0.19042-0.0266-0.34984-0.0221-0.16385-0.0797-0.27899-0.0531-0.11514-0.14171-0.17714-0.0886-0.06643-0.21257-0.06643-0.22585 0-0.34542 0.20814-0.11513 0.20814-0.11513 0.66426z"/>
   <path d="m-655.7 18.585h0.22585l0.0576 0.23471h0.0133q0.062-0.12842 0.15942-0.19928 0.10186-0.07528 0.24357-0.07528 0.10185 0 0.23027 0.03986l-0.062 0.32328q-0.11514-0.03986-0.20371-0.03986-0.14171 0-0.23028 0.08414-0.0886 0.07971-0.11514 0.21699v1.6297h-0.31884z"/>
   <path d="m-654.61 18.585h0.27014v-0.43841l0.31884-0.10185v0.54027h0.47827v0.28785h-0.47827v1.3197q0 0.19485 0.0443 0.28342 0.0487 0.08414 0.15499 0.08414 0.0886 0 0.15057-0.01771 0.0664-0.02214 0.14171-0.05314l0.062 0.25242q-0.0974 0.04871-0.217 0.07528-0.11514 0.031-0.24356 0.031-0.22142 0-0.31885-0.14171-0.093-0.14614-0.093-0.46941v-1.364h-0.27014z"/>
   <path d="m-653.33 19.382h0.8724v0.30556h-0.8724z"/>
   <path d="m-667.22 24.864q0.0886 0.05314 0.20813 0.093 0.124 0.03543 0.25242 0.03543 0.14614 0 0.248-0.07086 0.10185-0.07528 0.10185-0.23914 0-0.13728-0.062-0.22585-0.062-0.08857-0.15942-0.15942-0.093-0.07085-0.20371-0.12842-0.11071-0.062-0.20814-0.14614-0.093-0.08414-0.15499-0.19928-0.062-0.11514-0.062-0.29228 0-0.28342 0.15057-0.42513 0.15499-0.14614 0.43398-0.14614 0.18157 0 0.31442 0.03543 0.13285 0.031 0.23028 0.08857l-0.0841 0.2657q-0.0841-0.04428-0.19485-0.07085-0.11071-0.031-0.22585-0.031-0.15942 0-0.23471 0.06643-0.0709 0.06643-0.0709 0.20814 0 0.11071 0.062 0.19042 0.062 0.07528 0.15499 0.14171 0.0974 0.062 0.20814 0.12842 0.11071 0.06643 0.2037 0.15942 0.0974 0.08857 0.15943 0.21699 0.062 0.124 0.062 0.31442 0 0.124-0.0399 0.23471t-0.124 0.19485q-0.0797 0.07971-0.2037 0.12842-0.11957 0.04871-0.28342 0.04871-0.19485 0-0.33656-0.03986-0.14171-0.03543-0.23914-0.09743z"/>
   <path d="m-665.69 23.013h0.22585l0.0487 0.23914h0.0177q0.16386-0.29228 0.5137-0.29228 0.34985 0 0.52255 0.26128 0.17714 0.26128 0.17714 0.85469 0 0.27899-0.0576 0.50484-0.0576 0.22142-0.16385 0.38084-0.10628 0.155-0.26128 0.23914-0.15056 0.07971-0.33656 0.07971-0.12842 0-0.2037-0.01771-0.0753-0.01328-0.16386-0.062v0.91226h-0.31884zm0.31884 1.8644q0.062 0.05314 0.13729 0.08414 0.0797 0.031 0.20813 0.031 0.23471 0 0.37199-0.23914t0.13728-0.68198q0-0.18599-0.0266-0.33656-0.0221-0.15057-0.0753-0.25685-0.0532-0.11071-0.13729-0.16828-0.0797-0.062-0.19927-0.062-0.32328 0-0.41628 0.39413z"/>
   <path d="m-662.44 25.077q-0.10628 0.09743-0.27013 0.15057-0.16385 0.05314-0.34542 0.05314-0.20813 0-0.36313-0.07971-0.15057-0.08414-0.25242-0.23471-0.0974-0.155-0.14614-0.36756-0.0443-0.21256-0.0443-0.47827 0-0.56684 0.20813-0.86354 0.20814-0.2967 0.58898-0.2967 0.124 0 0.24357 0.031 0.12399 0.031 0.22142 0.124 0.0974 0.093 0.15499 0.26128 0.062 0.16828 0.062 0.43841 0 0.07528-9e-3 0.16385-4e-3 0.08414-0.0133 0.17714h-1.1248q0 0.19042 0.031 0.34542t0.0974 0.2657q0.0664 0.10628 0.16828 0.16828 0.10629 0.05757 0.26128 0.05757 0.11957 0 0.23471-0.04428 0.11956-0.04428 0.18156-0.10628zm-0.24799-1.1868q9e-3 -0.33213-0.093-0.48713-0.10185-0.15499-0.27899-0.15499-0.2037 0-0.32327 0.15499-0.11957 0.155-0.14171 0.48713z"/>
   <path d="m-660.75 25.117q-0.11071 0.08414-0.25242 0.124-0.14171 0.03986-0.29671 0.03986-0.21256 0-0.3587-0.07971-0.14614-0.08414-0.23914-0.23471-0.0886-0.155-0.13285-0.36756-0.0399-0.21699-0.0399-0.47827 0-0.56684 0.19927-0.86354 0.20371-0.2967 0.58013-0.2967 0.17271 0 0.2967 0.031 0.124 0.031 0.21257 0.07971l-0.0886 0.27899q-0.17714-0.10185-0.38527-0.10185-0.23914 0-0.36314 0.21256-0.11956 0.20814-0.11956 0.65984 0 0.18156 0.0266 0.34099 0.0266 0.15942 0.0886 0.27899 0.062 0.11514 0.15942 0.18599 0.0974 0.06643 0.24356 0.06643 0.11514 0 0.21257-0.03986 0.10185-0.03986 0.16385-0.093z"/>
   <path d="m-660.35 23.013h0.31884v2.2142h-0.31884zm-0.0576-0.67312q0-0.10628 0.0576-0.17271 0.062-0.06643 0.15942-0.06643 0.0974 0 0.15942 0.06643 0.0664 0.062 0.0664 0.17271 0 0.10628-0.0664 0.16828-0.062 0.05757-0.15942 0.05757-0.0974 0-0.15942-0.062-0.0576-0.062-0.0576-0.16385z"/>
   <path d="m-658.04 23.013v2.2142h-0.31884v-1.9264h-0.68641v1.9264h-0.31884v-1.9264h-0.27014v-0.28785h0.27014v-0.124q0-0.41627 0.16828-0.60226 0.16828-0.19042 0.49155-0.19042 0.21699 0 0.37642 0.04428 0.16385 0.03986 0.2657 0.093l-0.10185 0.2657q-0.10628-0.062-0.23914-0.08857-0.12842-0.02657-0.27013-0.02657-0.124 0-0.19928 0.04428-0.0708 0.03986-0.11071 0.124-0.0399 0.07971-0.0531 0.19928-9e-3 0.11514-9e-3 0.26128z"/>
   <path d="m-656.28 25.117q-0.11071 0.08414-0.25242 0.124-0.14171 0.03986-0.2967 0.03986-0.21256 0-0.3587-0.07971-0.14614-0.08414-0.23914-0.23471-0.0886-0.155-0.13285-0.36756-0.0399-0.21699-0.0399-0.47827 0-0.56684 0.19928-0.86354 0.20371-0.2967 0.58013-0.2967 0.1727 0 0.2967 0.031t0.21256 0.07971l-0.0886 0.27899q-0.17714-0.10185-0.38528-0.10185-0.23913 0-0.36313 0.21256-0.11956 0.20814-0.11956 0.65984 0 0.18156 0.0266 0.34099 0.0266 0.15942 0.0886 0.27899 0.062 0.11514 0.15943 0.18599 0.0974 0.06643 0.24356 0.06643 0.11514 0 0.21257-0.03986 0.10185-0.03986 0.16385-0.093z"/>
   <path d="m-665.79 28.894q0 0.22585 4e-3 0.41184 4e-3 0.18156 0.031 0.3587h-0.217l-0.0708-0.26571h-0.0177q-0.062 0.13285-0.19485 0.22142-0.13285 0.08857-0.31884 0.08857-0.3587 0-0.53584-0.27899-0.17271-0.27899-0.17271-0.87683 0-0.56684 0.21256-0.85911 0.217-0.29228 0.59341-0.29228 0.12843 0 0.20371 0.01771 0.0753 0.01329 0.16385 0.04871v-0.91226h0.31885zm-0.31885-1.1027q-0.062-0.05314-0.14171-0.07528-0.0753-0.02657-0.2037-0.02657-0.23471 0-0.36756 0.21256-0.12843 0.21256-0.12843 0.65541 0 0.19485 0.0221 0.35427 0.0266 0.155 0.0753 0.27013 0.0531 0.11514 0.13285 0.17714 0.0841 0.062 0.20371 0.062 0.31884 0 0.40741-0.37642z"/>
   <path d="m-663.95 29.505q-0.10628 0.09743-0.27013 0.15057-0.16386 0.05314-0.34542 0.05314-0.20814 0-0.36313-0.07971-0.15057-0.08414-0.25242-0.23471-0.0974-0.155-0.14614-0.36756-0.0443-0.21256-0.0443-0.47827 0-0.56684 0.20813-0.86354 0.20814-0.2967 0.58898-0.2967 0.124 0 0.24357 0.031 0.12399 0.031 0.22142 0.124 0.0974 0.093 0.15499 0.26128 0.062 0.16828 0.062 0.43841 0 0.07528-9e-3 0.16385-4e-3 0.08414-0.0133 0.17714h-1.1248q0 0.19042 0.031 0.34542 0.031 0.15499 0.0974 0.2657 0.0664 0.10628 0.16828 0.16828 0.10628 0.05757 0.26128 0.05757 0.11957 0 0.23471-0.04428 0.11956-0.04428 0.18156-0.10628zm-0.24799-1.1868q9e-3 -0.33213-0.093-0.48713-0.10185-0.155-0.27899-0.155-0.20371 0-0.32327 0.155-0.11957 0.155-0.14171 0.48713z"/>
   <path d="m-663.67 27.441h0.27013v-0.43841l0.31885-0.10185v0.54027h0.47826v0.28785h-0.47826v1.3197q0 0.19485 0.0443 0.28342 0.0487 0.08414 0.15499 0.08414 0.0886 0 0.15057-0.01771 0.0664-0.02214 0.14171-0.05314l0.062 0.25242q-0.0974 0.04871-0.21699 0.07528-0.11514 0.031-0.24357 0.031-0.22142 0-0.31884-0.14171-0.093-0.14614-0.093-0.46941v-1.364h-0.27013z"/>
   <path d="m-662.25 27.574q0.12842-0.07971 0.30999-0.124 0.18599-0.04428 0.3897-0.04428 0.18599 0 0.29671 0.05757 0.11513 0.05314 0.17713 0.15057 0.0664 0.093 0.0841 0.21699 0.0221 0.11957 0.0221 0.25242 0 0.2657-0.0133 0.51812-9e-3 0.25242-9e-3 0.47827 0 0.16828 9e-3 0.31442 0.0133 0.14171 0.0443 0.27013h-0.24356l-0.0753-0.26128h-0.0177q-0.0664 0.11514-0.19485 0.19928-0.12842 0.08414-0.34541 0.08414-0.23914 0-0.39413-0.16385-0.15057-0.16828-0.15057-0.46056 0-0.19042 0.062-0.31885 0.0664-0.12842 0.18156-0.20814 0.11957-0.07971 0.27899-0.11071 0.16386-0.03543 0.36313-0.03543 0.0443 0 0.0886 0t0.093 0.0044q0.0133-0.13728 0.0133-0.24356 0-0.25242-0.0753-0.35427-0.0753-0.10185-0.27456-0.10185-0.124 0-0.27013 0.03986-0.14614 0.03543-0.24357 0.093zm0.96097 1.0717q-0.0443-0.0044-0.0886-0.0044-0.0443-0.0044-0.0886-0.0044-0.10628 0-0.20813 0.01771-0.10186 0.01771-0.18157 0.062-0.0797 0.04428-0.12842 0.11957-0.0443 0.07528-0.0443 0.19042 0 0.17714 0.0841 0.27456 0.0886 0.09743 0.22585 0.09743 0.18599 0 0.28785-0.08857 0.10185-0.08857 0.14171-0.19485z"/>
   <path d="m-660.4 27.441h0.31885v2.2142h-0.31885zm-0.0576-0.67312q0-0.10628 0.0576-0.17271 0.062-0.06643 0.15943-0.06643 0.0974 0 0.15942 0.06643 0.0664 0.062 0.0664 0.17271 0 0.10628-0.0664 0.16828-0.062 0.05757-0.15942 0.05757-0.0974 0-0.15943-0.062-0.0576-0.062-0.0576-0.16385z"/>
   <path d="m-659.15 29.129q0 0.15499 0.0399 0.22142 0.0443 0.06643 0.11957 0.06643 0.093 0 0.21699-0.04871l0.031 0.25685q-0.0576 0.03543-0.16385 0.05757-0.10185 0.02214-0.18599 0.02214-0.16828 0-0.27456-0.10185-0.10186-0.10628-0.10186-0.36756v-2.6792h0.31885z"/>
   <path d="m-658.5 29.293q0.0886 0.05314 0.20814 0.093 0.124 0.03543 0.25242 0.03543 0.14614 0 0.24799-0.07085 0.10186-0.07528 0.10186-0.23914 0-0.13728-0.062-0.22585-0.062-0.08857-0.15943-0.15942-0.093-0.07085-0.2037-0.12842-0.11071-0.062-0.20814-0.14614-0.093-0.08414-0.15499-0.19928-0.062-0.11514-0.062-0.29228 0-0.28342 0.15056-0.42513 0.155-0.14614 0.43399-0.14614 0.18157 0 0.31442 0.03543 0.13285 0.031 0.23028 0.08857l-0.0841 0.26571q-0.0841-0.04428-0.19485-0.07085-0.11072-0.031-0.22585-0.031-0.15943 0-0.23471 0.06643-0.0709 0.06643-0.0709 0.20814 0 0.11071 0.062 0.19042 0.062 0.07528 0.155 0.14171 0.0974 0.062 0.20813 0.12842 0.11071 0.06643 0.20371 0.15942 0.0974 0.08857 0.15942 0.21699 0.062 0.124 0.062 0.31442 0 0.124-0.0399 0.23471-0.0399 0.11071-0.124 0.19485-0.0797 0.07971-0.20371 0.12842-0.11956 0.04871-0.28342 0.04871-0.19485 0-0.33656-0.03986-0.14171-0.03543-0.23913-0.09742z"/>
  </g>
 </g>
</svg>
