<?xml version="1.0" encoding="UTF-8"?>
<svg width="171.61mm" height="209.9mm" version="1.1" viewBox="0 0 171.61372 209.89664" xmlns="http://www.w3.org/2000/svg">
	<defs>
		<filter id="a" x="-.068968" y="-.055005" width="1.1379" height="1.11" color-interpolation-filters="sRGB">
			<feGaussianBlur stdDeviation="15.814675"/>
		</filter>
	</defs>
	<g transform="translate(503.09 509.47)">
		<rect transform="matrix(.27404 0 0 .27404 -943.39 -698.21)" x="1644.6" y="726.68" width="550.33" height="690.03" fill-opacity=".93307" filter="url(#a)"/>
		<rect x="-496.75" y="-503.13" width="150.81" height="189.09" fill="#fff" fill-opacity=".99606"/>
		<path d="m-478.17-461.61h23.075c3.3599 0.0747 5.5257 3.5038 5.4557 5.6978s-1.697 5.9145-5.3019 6.0545c-5.0352-0.0508-18.547 0.0709-23.582 0.0206-2.2582-0.0882-4.5671-3.0397-4.5533-6.2647 0.014-3.225 2.6009-5.4327 4.9065-5.5082z" fill="#fff" stroke="#000" stroke-width="1.2058"/>
		<g>
			<rect x="-413.06" y="-406.97" width="1.4355" height="26.25"/>
			<rect transform="rotate(90)" x="-412.46" y="381.78" width="1.4355" height="72.606"/>
			<rect x="-466.58" y="-449.89" width="1.4355" height="100.28"/>
		</g>
		<g fill="#000000" font-family="'Open Sans'" letter-spacing="0px" text-anchor="middle" word-spacing="0px">
			<text x="-465.56778" y="-337.15268" dominant-baseline="auto" font-size="4.8637px" stroke-width=".30398" text-align="center" style="font-feature-settings:normal;font-variant-alternates:normal;font-variant-caps:normal;font-variant-ligatures:normal;font-variant-numeric:normal;font-variant-position:normal;line-height:1.25;shape-padding:0;text-decoration-color:#000000;text-decoration-line:none;text-decoration-style:solid;text-indent:0;text-orientation:mixed;text-transform:none;white-space:normal" xml:space="preserve"><tspan x="-465.56778" y="-337.15268">http</tspan><tspan x="-465.56778" y="-331.07309">processing</tspan></text>
			<text x="-467.32571" y="-454.26376" dominant-baseline="auto" font-size="4.8637px" stroke-width=".30398" text-align="center" style="font-feature-settings:normal;font-variant-alternates:normal;font-variant-caps:normal;font-variant-ligatures:normal;font-variant-numeric:normal;font-variant-position:normal;line-height:1.25;shape-padding:0;text-decoration-color:#000000;text-decoration-line:none;text-decoration-style:solid;text-indent:0;text-orientation:mixed;text-transform:none;white-space:normal" xml:space="preserve"><tspan x="-467.32571" y="-454.26376" stroke-width=".30398">Connection</tspan></text>
			<text x="-365.37674" y="-415.41953" dominant-baseline="auto" font-size="4.6404px" stroke-width=".10461" text-align="center" style="font-feature-settings:normal;font-variant-alternates:normal;font-variant-caps:normal;font-variant-ligatures:normal;font-variant-numeric:normal;font-variant-position:normal;line-height:1.25;shape-padding:0;text-decoration-color:#000000;text-decoration-line:none;text-decoration-style:solid;text-indent:0;text-orientation:mixed;text-transform:none;white-space:normal" xml:space="preserve"><tspan x="-365.37674" y="-415.41953">Fallback</tspan><tspan x="-365.37674" y="-409.61908">role +</tspan><tspan x="-365.37674" y="-403.81863">protocol</tspan></text>
		</g>
		<path d="m-460.22-350.48h-11.894l6.2548 6.2549z" stroke="#000" stroke-width=".072506px"/>
		<g>
			<path d="m-465.22-424.63-21.47 12.396 22.038 12.723 20.338-11.742z" fill="#fff" stroke="#000" stroke-width="1.0961"/>
			<text x="-464.97501" y="-413.11075" dominant-baseline="auto" fill="#000000" font-family="'Open Sans'" font-size="3.4092px" letter-spacing="0px" stroke-width=".21307" text-align="center" text-anchor="middle" word-spacing="0px" style="font-feature-settings:normal;font-variant-alternates:normal;font-variant-caps:normal;font-variant-ligatures:normal;font-variant-numeric:normal;font-variant-position:normal;line-height:1.25;shape-padding:0;text-decoration-color:#000000;text-decoration-line:none;text-decoration-style:solid;text-indent:0;text-orientation:mixed;text-transform:none;white-space:normal" xml:space="preserve"><tspan x="-464.97501" y="-413.11075">Invalid Method</tspan><tspan x="-464.97501" y="-408.8493">in "http header"</tspan></text>
			<path d="m-412.77-423.89-21.47 12.396 22.038 12.723 20.748-12.767z" fill="#fff" stroke="#000" stroke-width="1.0961"/>
			<text x="-412.72952" y="-413.60532" dominant-baseline="auto" fill="#000000" font-family="'Open Sans'" font-size="3.4092px" letter-spacing="0px" stroke-width=".21307" text-align="center" text-anchor="middle" word-spacing="0px" style="font-feature-settings:normal;font-variant-alternates:normal;font-variant-caps:normal;font-variant-ligatures:normal;font-variant-numeric:normal;font-variant-position:normal;line-height:1.25;shape-padding:0;text-decoration-color:#000000;text-decoration-line:none;text-decoration-style:solid;text-indent:0;text-orientation:mixed;text-transform:none;white-space:normal" xml:space="preserve"><tspan x="-412.72952" y="-413.60532">Fallback</tspan><tspan x="-412.72952" y="-409.34387">set and enabled</tspan><tspan x="-412.72952" y="-405.08243">on vhost?</tspan></text>
		</g>
		<path d="m-382.23-417.61v11.894l6.2549-6.2548z" stroke="#000" stroke-width=".072506px"/>
		<path d="m-423.88-381.11h23.075c3.36 0.0746 5.5257 3.5038 5.4558 5.6978-0.07 2.194-1.697 5.9145-5.3019 6.0545-5.0352-0.0508-18.547 0.0709-23.582 0.0205-2.2583-0.0882-4.5671-3.0397-4.5533-6.2647 0.014-3.225 2.6009-5.4327 4.9065-5.5082z" fill="#fff" stroke="#000" stroke-width="1.2058"/>
		<g fill="#000000" font-family="'Open Sans'" letter-spacing="0px" text-anchor="middle" word-spacing="0px">
			<text x="-413.17911" y="-373.47064" dominant-baseline="auto" font-size="4.8637px" stroke-width=".30398" text-align="center" style="font-feature-settings:normal;font-variant-alternates:normal;font-variant-caps:normal;font-variant-ligatures:normal;font-variant-numeric:normal;font-variant-position:normal;line-height:1.25;shape-padding:0;text-decoration-color:#000000;text-decoration-line:none;text-decoration-style:solid;text-indent:0;text-orientation:mixed;text-transform:none;white-space:normal" xml:space="preserve"><tspan x="-413.17911" y="-373.47064" stroke-width=".30398">Error</tspan></text>
			<text x="-442.51761" y="-413.80447" dominant-baseline="auto" font-size="3.0936px" stroke-width=".072506" text-align="center" style="font-feature-settings:normal;font-variant-alternates:normal;font-variant-caps:normal;font-variant-ligatures:normal;font-variant-numeric:normal;font-variant-position:normal;line-height:1.25;shape-padding:0;text-decoration-color:#000000;text-decoration-line:none;text-decoration-style:solid;text-indent:0;text-orientation:mixed;text-transform:none;white-space:normal" xml:space="preserve"><tspan x="-442.51761" y="-413.80447" stroke-width=".072506">Yes</tspan></text>
			<text x="-389.51834" y="-413.87546" dominant-baseline="auto" font-size="3.0936px" stroke-width=".072506" text-align="center" style="font-feature-settings:normal;font-variant-alternates:normal;font-variant-caps:normal;font-variant-ligatures:normal;font-variant-numeric:normal;font-variant-position:normal;line-height:1.25;shape-padding:0;text-decoration-color:#000000;text-decoration-line:none;text-decoration-style:solid;text-indent:0;text-orientation:mixed;text-transform:none;white-space:normal" xml:space="preserve"><tspan x="-389.51834" y="-413.87546" stroke-width=".072506">Yes</tspan></text>
		</g>
		<g>
			<text x="-387.27786" y="-423.98447" dominant-baseline="auto" fill="#0000ff" font-family="'Open Sans'" font-size="2.3761px" letter-spacing="0px" stroke-width=".012375" text-align="center" text-anchor="middle" word-spacing="0px" style="font-feature-settings:normal;font-variant-alternates:normal;font-variant-caps:normal;font-variant-ligatures:normal;font-variant-numeric:normal;font-variant-position:normal;line-height:1.25;shape-padding:0;text-decoration-color:#000000;text-decoration-line:none;text-decoration-style:solid;text-indent:0;text-orientation:mixed;text-transform:none;white-space:normal" xml:space="preserve"><tspan x="-387.27786" y="-423.98447">LWS_SERVER_OPTION_FALLBACK_TO_</tspan><tspan x="-387.27786" y="-421.01437">APPLY_LISTEN_ACCEPT_CONFIG</tspan></text>
			<text x="-420.85062" y="-484.34042" dominant-baseline="auto" fill="#000000" font-family="'Open Sans'" font-size="13.921px" letter-spacing="0px" stroke-width=".072506" text-align="center" text-anchor="middle" word-spacing="0px" style="font-feature-settings:normal;font-variant-alternates:normal;font-variant-caps:normal;font-variant-ligatures:normal;font-variant-numeric:normal;font-variant-position:normal;line-height:1.25;shape-padding:0;text-decoration-color:#000000;text-decoration-line:none;text-decoration-style:solid;text-indent:0;text-orientation:mixed;text-transform:none;white-space:normal" xml:space="preserve"><tspan x="-420.85062" y="-484.34042" stroke-width=".072506">plain http port</tspan></text>
			<path d="m-435.14-458.75c1.9501-3.293 3.8701-6.6043 5.8395-9.8856 0.2398-0.54978 0.8983-0.73811 1.3075-0.10105 0.3564 0.71254 0.6543 1.2038 0.9661 1.8124 1.5622 2.7051 3.1244 5.4102 4.6866 8.1153 0.2615 0.57459 0.2121 1.1772-0.3114 1.4642-0.6619 0.10273-1.0636 0.0238-1.6073 0.0453-3.3541-0.0106-6.7088 0.0256-10.063 0.0135-0.5994 0.042-1.205-0.57336-0.9833-1.1331 0.055-0.11037 0.1104-0.22075 0.1656-0.3311z" fill="#f00"/>
			<path d="m-433.59-459.48c1.4834-2.5049 2.9439-5.0238 4.442-7.5197 0.1824-0.41821 0.6833-0.56147 0.9946-0.0769 0.2711 0.54201 0.4977 0.91574 0.7349 1.3787 1.1884 2.0577 2.3768 4.1154 3.565 6.1731 0.199 0.43709 0.1614 0.89546-0.2369 1.1138-0.5035 0.0781-0.809 0.0181-1.2225 0.0344-2.5515-8e-3 -5.1034 0.0195-7.655 0.0103-0.456 0.0319-0.9167-0.43614-0.7481-0.86193 0.042-0.084 0.084-0.16791 0.126-0.25186z" fill="#fff"/>
			<path d="m-429.31-461.54c-0.1016-1.1244-0.2033-2.2489-0.3049-3.3733 0-0.53087 0.5275-0.97852 1.05-0.80555 0.5428 0.0382 0.767 0.61271 0.6514 1.0873-0.192 1.0861-0.287 2.1887-0.5181 3.2682-0.1472 0.45794-0.879 0.39062-0.86-0.12605l-0.019-0.0506z"/>
			<circle cx="-428.86" cy="-459.79" r=".69563"/>
			<text x="-399.48111" y="-466.21732" dominant-baseline="auto" fill="#000000" font-family="'Open Sans'" font-size="3.0161px" letter-spacing="0px" stroke-width=".10282" text-align="center" text-anchor="middle" word-spacing="0px" style="font-feature-settings:normal;font-variant-alternates:normal;font-variant-caps:normal;font-variant-ligatures:normal;font-variant-numeric:normal;font-variant-position:normal;line-height:1.25;shape-padding:0;text-decoration-color:#000000;text-decoration-line:none;text-decoration-style:solid;text-indent:0;text-orientation:mixed;text-transform:none;white-space:normal" xml:space="preserve"><tspan x="-399.48111" y="-466.21732">This flow happens</tspan><tspan x="-399.48111" y="-462.4472">before any Host: headers.</tspan><tspan x="-399.48111" y="-458.67709">Indeed there are no Host:</tspan><tspan x="-399.48111" y="-454.90701">headers if the connection</tspan><tspan x="-399.48111" y="-451.1369">is not actually http.</tspan><tspan x="-399.48111" y="-447.36679">Therefore it occurs on the</tspan><tspan x="-399.48111" y="-443.59668" font-weight="bold">first vhost that listens</tspan><tspan x="-399.48111" y="-439.82657" font-weight="bold">on the connection port.</tspan></text>
		</g>
	</g>
</svg>
