<?xml version="1.0" encoding="UTF-8"?>
<svg width="164.9mm" height="100.87mm" version="1.1" viewBox="0 0 164.89519 100.87298" xmlns="http://www.w3.org/2000/svg" xmlns:xlink="http://www.w3.org/1999/xlink">
	<defs>
		<linearGradient id="e" x1="1000.2" x2="993.99" y1="928.57" y2="992.97" gradientTransform="matrix(-2.4177 .34689 .34689 2.4177 -1517.1 -4018.7)" gradientUnits="userSpaceOnUse" xlink:href="#a"/>
		<linearGradient id="a">
			<stop stop-color="#e9ddaf" offset="0"/>
			<stop stop-color="#504416" offset="1"/>
		</linearGradient>
		<marker id="c" overflow="visible" orient="auto">
			<path transform="matrix(-.3 0 0 -.3 .69 0)" d="m8.7186 4.0337-10.926-4.0177 10.926-4.0177c-1.7455 2.3721-1.7354 5.6175-6e-7 8.0354z" fill="#37abc8" fill-rule="evenodd" stroke="#37abc8" stroke-linejoin="round" stroke-width=".625"/>
		</marker>
		<marker id="d" overflow="visible" orient="auto">
			<path transform="matrix(-.3 0 0 -.3 .69 0)" d="m8.7186 4.0337-10.926-4.0177 10.926-4.0177c-1.7455 2.3721-1.7354 5.6175-6e-7 8.0354z" fill="#37abc8" fill-rule="evenodd" stroke="#37abc8" stroke-linejoin="round" stroke-width=".625"/>
		</marker>
		<marker id="b" overflow="visible" orient="auto">
			<path transform="matrix(-.2 0 0 -.2 -1.2 0)" d="m0 0 5-5-17.5 5 17.5 5z" fill-rule="evenodd" stroke="#000" stroke-width="1pt"/>
		</marker>
		<linearGradient id="f" x1="1000.2" x2="993.99" y1="928.57" y2="992.97" gradientTransform="matrix(-.19888 .028535 .028535 .19888 114.31 -54.733)" gradientUnits="userSpaceOnUse" xlink:href="#a"/>
		<filter id="h" x="-.060394" y="-.055053" width="1.1208" height="1.1101" color-interpolation-filters="sRGB">
			<feGaussianBlur stdDeviation="0.44336333"/>
		</filter>
		<filter id="g" x="-.043551" y="-.075357" width="1.0871" height="1.1507" color-interpolation-filters="sRGB">
			<feGaussianBlur stdDeviation="33.460433"/>
		</filter>
	</defs>
	<g transform="translate(128.75 -106.61)">
		<rect transform="matrix(.08226 0 0 .08226 192.06 201.56)" x="-3819.6" y="-1074" width="1843.9" height="1065.7" filter="url(#g)"/>
		<rect x="-123.62" y="111.49" width="151.68" height="87.661" fill="#fff"/>
		<path d="m-20.36 149.04 26.893-21.631 3.0902 3.6749-26.225 21.631z" fill="#000080" stroke="#000" stroke-width=".014764px"/>
		<rect x="-92.228" y="172.34" width="90.911" height="5.7258" fill-opacity=".91732"/>
		<path d="m-53.606 173.46 39.644-31.888 4.5555 5.4172-38.66 31.888z" fill="#00f" stroke="#000" stroke-width=".021765px"/>
		<g transform="matrix(.08226 0 0 .08226 213.19 239.53)" fill-opacity=".91732">
			<circle cx="-3207.7" cy="-780.43" r="82.55"/>
			<circle cx="-3208.3" cy="-781.05" r="52.917" fill="#fff"/>
		</g>
		<circle cx="-55.383" cy="166.82" r="5.6635" fill="#fff" fill-opacity=".9375"/>
		<path transform="matrix(-.75166 .10785 .10785 .75166 -2076.2 667.54)" d="m-2725.9-287.4c-0.4737 0.0104-0.7327 0.29435-0.9193 0.61443-2.45 4.2318-6.125 10.579-7.35 12.695-0.6344 1.3127 0.5828 2.8675 1.0263 3.5972 0.5853 0.7769 0.802 1.1542 1.8469 1.882 1.1717 0.46167 2.3507 0.56335 2.8066 0.53435s2.7265 0.26464 4.5434-1.3364c1.1317-2.0971 4.6213-8.6717 6.8848-12.866 0.2058-0.37197 0.6954-0.86583-0.1364-1.3663-2.8286-1.2472-5.6572-2.4941-8.4858-3.7414-0.077-0.0104-0.1488-0.0149-0.2165-0.0134zm-4.2607 15.885a1.1359 1.0667 0 0 1 1.1358 1.0666 1.1359 1.0667 0 0 1 -1.1358 1.0666 1.1359 1.0667 0 0 1 -1.1359 -1.0666 1.1359 1.0667 0 0 1 1.1359 -1.0666z" filter="url(#h)" stroke="#000" stroke-width=".26458px"/>
		<path d="m-58.242 157.26c0.3572-0.0434 0.5825 0.14222 0.7573 0.36267 2.298 2.9166 5.7448 7.2913 6.8938 8.7496 0.6184 0.9183-0.1288 2.2187-0.3834 2.815-0.3561 0.64707-0.4784 0.95367-1.1854 1.6135-0.8309 0.47338-1.7057 0.67687-2.0515 0.70426-0.3458 0.0273-2.0213 0.49302-3.5596-0.51442-1.0769-1.4542-4.409-6.0198-6.5627-8.9283-0.1948-0.25743-0.616-0.57542-0.045-1.0414 1.9918-1.2426 3.9833-2.4852 5.9749-3.7278 0.057-0.0161 0.1104-0.0268 0.1615-0.0332zm4.9158 11.48a0.81001 0.86256 81.835 0 0 -0.7389 0.92424 0.81001 0.86256 81.835 0 0 0.9689 0.67923 0.81001 0.86256 81.835 0 0 0.7387 -0.92424 0.81001 0.86256 81.835 0 0 -0.9687 -0.67923z" fill="url(#f)" stroke="#000" stroke-width=".20091px"/>
		<g fill="none" stroke="#540" stroke-opacity=".18182" stroke-width=".20123">
			<path d="m-58.885 158.72 6.3982 8.4694"/>
			<path d="m-62.699 161.06 6.4416 8.7713"/>
			<path d="m-60.813 159.94 6.4288 8.5557"/>
		</g>
		<text x="-74.86644" y="177.05612" dominant-baseline="auto" fill="#ffffff" font-family="'Open Sans'" font-size="6.5983px" letter-spacing="0px" stroke-width=".034366" text-align="center" text-anchor="middle" word-spacing="0px" style="font-feature-settings:normal;font-variant-alternates:normal;font-variant-caps:normal;font-variant-ligatures:normal;font-variant-numeric:normal;font-variant-position:normal;line-height:1.25;shape-padding:0;text-decoration-color:#000000;text-decoration-line:none;text-decoration-style:solid;text-indent:0;text-orientation:mixed;text-transform:none;white-space:normal" xml:space="preserve"><tspan x="-74.86644" y="177.05612" fill="#ffffff" stroke-width=".034366">master</tspan></text>
		<g fill-opacity=".91732">
			<circle cx="5.1449" cy="175.15" r="2.8446"/>
			<circle cx="11.712" cy="175.19" r="2.8446" opacity=".742"/>
			<circle cx="18.174" cy="175.33" r="2.8446" opacity=".497"/>
			<circle cx="-111.77" cy="174.85" r="2.8446" opacity=".522"/>
			<circle cx="-105.2" cy="174.88" r="2.8446" opacity=".73"/>
			<circle cx="-98.738" cy="175.02" r="2.8446"/>
			<circle cx="-92.17" cy="175.16" r="2.8446"/>
			<circle cx="-1.422" cy="175.16" r="2.8446"/>
		</g>
		<text transform="rotate(30.874)" x="34.972202" y="172.26613" dominant-baseline="auto" fill="#ffff00" font-family="'Open Sans Condensed'" font-size="5.3499px" letter-spacing="0px" stroke-width=".027864" text-align="center" text-anchor="middle" word-spacing="0px" style="font-feature-settings:normal;font-variant-alternates:normal;font-variant-caps:normal;font-variant-ligatures:normal;font-variant-numeric:normal;font-variant-position:normal;line-height:1.25;shape-padding:0;text-decoration-color:#000000;text-decoration-line:none;text-decoration-style:solid;text-indent:0;text-orientation:mixed;text-transform:none;white-space:normal" xml:space="preserve"><tspan x="34.972202" y="172.26613" fill="#ffff00" font-family="'Open Sans Condensed'" stroke-width=".027864">v3.0.0</tspan></text>
		<text transform="rotate(-39.355)" x="-123.39997" y="98.293953" dominant-baseline="auto" fill="#000000" font-family="'Open Sans'" font-size="5.5255px" letter-spacing="0px" stroke-width=".028779" text-align="center" text-anchor="middle" word-spacing="0px" style="font-feature-settings:normal;font-variant-alternates:normal;font-variant-caps:normal;font-variant-ligatures:normal;font-variant-numeric:normal;font-variant-position:normal;line-height:1.25;shape-padding:0;text-decoration-color:#000000;text-decoration-line:none;text-decoration-style:solid;text-indent:0;text-orientation:mixed;text-transform:none;white-space:normal" xml:space="preserve"><tspan x="-123.39997" y="98.293953" fill="#000000" stroke-width=".028779">v3.0-stable</tspan></text>
		<g fill="none">
			<path d="m-107.13 186.94h118.75" marker-end="url(#b)" stroke="#000" stroke-width=".8444"/>
			<path d="m-12.364 175.18c8.1388-4.7778 0.6439-14.481-7.2258-19.849" marker-end="url(#d)" stroke="#37abc8" stroke-width=".8226"/>
			<path d="m-22.502 175.27c6.0493-5.3436 1.0792-10.607-3.5694-14.321" marker-end="url(#c)" stroke="#37abc8" stroke-width=".8226"/>
		</g>
		<g transform="matrix(.050194 0 0 .050194 151.08 182.99)" fill-opacity=".91732">
			<circle cx="-3207.7" cy="-780.43" r="82.55"/>
			<circle cx="-3208.3" cy="-781.05" r="52.917" fill="#fff"/>
		</g>
		<g fill="#000080" fill-opacity=".91732">
			<circle cx="8.2638" cy="129.27" r="2.4824"/>
			<circle cx="12.955" cy="125.83" r="2.4824" opacity=".764"/>
			<circle cx="17.553" cy="122.32" r="2.4824" opacity=".508"/>
		</g>
		<circle cx="-14.407" cy="137.61" r="5.6635" fill="#fff" fill-opacity=".9375"/>
		<g transform="matrix(.08226 0 0 .08226 279.87 246.65)">
			<circle cx="-3580" cy="-1325.4" r="68.849" fill="#fff" fill-opacity=".9375"/>
			<path d="m-3614.7-1441.7c4.3421-0.526 7.081 1.7291 9.2058 4.4092 27.935 35.456 69.837 88.636 83.805 106.36 7.518 11.163-1.5651 26.971-4.661 34.22-4.3288 7.8664-5.8149 11.594-14.409 19.614-10.101 5.7546-20.736 8.2287-24.94 8.5614-4.2039 0.3328-24.572 5.9937-43.273-6.2536-13.092-17.678-53.598-73.18-79.78-108.54-2.3674-3.1292-7.4889-6.9953-0.5444-12.659 24.212-15.106 48.423-30.212 72.634-45.318 0.6899-0.196 1.3417-0.3268 1.9623-0.4019zm59.758 139.56a9.847 10.486 81.835 0 0 -8.9811 11.236 9.847 10.486 81.835 0 0 11.778 8.2569 9.847 10.486 81.835 0 0 8.9802 -11.235 9.847 10.486 81.835 0 0 -11.777 -8.2571z" fill="url(#e)" stroke="#000" stroke-width="2.4424px"/>
			<g fill="none" stroke="#540" stroke-opacity=".18182" stroke-width="2.4463">
				<path d="m-3622.5-1423.9 77.78 102.96"/>
				<path d="m-3668.9-1395.4 78.307 106.63"/>
				<path d="m-3646-1409 78.152 104.01"/>
			</g>
		</g>
		<text transform="rotate(30.874)" x="55.154636" y="126.17037" dominant-baseline="auto" fill="#ffff00" font-family="'Open Sans Condensed'" font-size="5.3499px" letter-spacing="0px" stroke-width=".027864" text-align="center" text-anchor="middle" word-spacing="0px" style="font-feature-settings:normal;font-variant-alternates:normal;font-variant-caps:normal;font-variant-ligatures:normal;font-variant-numeric:normal;font-variant-position:normal;line-height:1.25;shape-padding:0;text-decoration-color:#000000;text-decoration-line:none;text-decoration-style:solid;text-indent:0;text-orientation:mixed;text-transform:none;white-space:normal" xml:space="preserve"><tspan x="55.154636" y="126.17037" fill="#ffff00" font-family="'Open Sans Condensed'" stroke-width=".027864">v3.0.1</tspan></text>
		<text x="-75.360199" y="127.00266" dominant-baseline="auto" fill="#000000" font-family="'Open Sans'" font-size="4.1788px" letter-spacing="0px" stroke-width=".021765" text-align="center" text-anchor="middle" word-spacing="0px" style="font-feature-settings:normal;font-variant-alternates:normal;font-variant-caps:normal;font-variant-ligatures:normal;font-variant-numeric:normal;font-variant-position:normal;line-height:1.25;shape-padding:0;text-decoration-color:#000000;text-decoration-line:none;text-decoration-style:solid;text-indent:0;text-orientation:mixed;text-transform:none;white-space:normal" xml:space="preserve"><tspan x="-75.360199" y="127.00266">Periodically new point releases on</tspan><tspan x="-75.360199" y="132.22618">the -stable branch are tagged out,</tspan><tspan x="-75.360199" y="137.44971">with backports that didn't</tspan><tspan x="-75.360199" y="142.67323">generate any problems on</tspan><tspan x="-75.360199" y="147.89676">-stable.</tspan></text>
	</g>
</svg>
