<?xml version="1.0" encoding="UTF-8"?>
<svg width="258.28mm" height="107.81mm" version="1.1" viewBox="0 0 258.28 107.81" xmlns="http://www.w3.org/2000/svg">
	<defs>
		<marker id="a" overflow="visible" orient="auto">
			<path transform="matrix(.2 0 0 .2 1.2 0)" d="m0 0 5-5-17.5 5 17.5 5z" fill-rule="evenodd" stroke="#000" stroke-width="1pt"/>
		</marker>
		<marker id="e" overflow="visible" orient="auto">
			<path transform="matrix(-.3 0 0 -.3 .69 0)" d="m8.7186 4.0337-10.926-4.0177 10.926-4.0177c-1.7455 2.3721-1.7354 5.6175-6e-7 8.0354z" fill-rule="evenodd" stroke="#000" stroke-linejoin="round" stroke-width=".625"/>
		</marker>
		<marker id="b" overflow="visible" orient="auto">
			<path transform="matrix(.2 0 0 .2 1.2 0)" d="m0 0 5-5-17.5 5 17.5 5z" fill-rule="evenodd" stroke="#000" stroke-width="1pt"/>
		</marker>
		<marker id="f" overflow="visible" orient="auto">
			<path transform="matrix(-.3 0 0 -.3 .69 0)" d="m8.7186 4.0337-10.926-4.0177 10.926-4.0177c-1.7455 2.3721-1.7354 5.6175-6e-7 8.0354z" fill-rule="evenodd" stroke="#000" stroke-linejoin="round" stroke-width=".625"/>
		</marker>
		<marker id="c" overflow="visible" orient="auto">
			<path transform="matrix(.2 0 0 .2 1.2 0)" d="m0 0 5-5-17.5 5 17.5 5z" fill-rule="evenodd" stroke="#000" stroke-width="1pt"/>
		</marker>
		<marker id="g" overflow="visible" orient="auto">
			<path transform="matrix(-.3 0 0 -.3 .69 0)" d="m8.7186 4.0337-10.926-4.0177 10.926-4.0177c-1.7455 2.3721-1.7354 5.6175-6e-7 8.0354z" fill-rule="evenodd" stroke="#000" stroke-linejoin="round" stroke-width=".625"/>
		</marker>
		<filter id="d" x="-.03148" y="-.082687" width="1.063" height="1.1654" color-interpolation-filters="sRGB">
			<feGaussianBlur stdDeviation="1.2468962"/>
		</filter>
	</defs>
	<g transform="translate(751.29 58.975)">
		<g>
			<rect transform="matrix(2.5561 0 0 2.5561 1169.1 91.771)" x="-748.3" y="-55.983" width="95.061" height="36.191" filter="url(#d)"/>
			<rect x="-744.61" y="-52.171" width="242.99" height="92.508" fill="#fff"/>
			<circle cx="-715.52" cy="-2.6399" r="13.375" fill="#d4aa00"/>
			<text x="-715.49457" y="-0.013140791" dominant-baseline="auto" fill="#000000" font-family="'Open Sans Condensed'" font-size="9.0174px" letter-spacing="0px" stroke-width=".6763" text-align="center" text-anchor="middle" word-spacing="0px" style="font-feature-settings:normal;font-variant-alternates:normal;font-variant-caps:normal;font-variant-ligatures:normal;font-variant-numeric:normal;font-variant-position:normal;line-height:1.25;shape-padding:0;text-decoration-color:#000000;text-decoration-line:none;text-decoration-style:solid;text-indent:0;text-orientation:mixed;text-transform:none;white-space:normal" xml:space="preserve"><tspan x="-715.49457" y="-0.013140791" stroke-width=".6763">sqlite</tspan></text>
			<circle cx="-671.6" cy="-2.9116" r="13.375" fill="#b3b3b3"/>
			<text x="-671.56494" y="-0.28489438" dominant-baseline="auto" fill="#000000" font-family="'Open Sans Condensed'" font-size="9.0174px" letter-spacing="0px" stroke-width=".6763" text-align="center" text-anchor="middle" word-spacing="0px" style="font-feature-settings:normal;font-variant-alternates:normal;font-variant-caps:normal;font-variant-ligatures:normal;font-variant-numeric:normal;font-variant-position:normal;line-height:1.25;shape-padding:0;text-decoration-color:#000000;text-decoration-line:none;text-decoration-style:solid;text-indent:0;text-orientation:mixed;text-transform:none;white-space:normal" xml:space="preserve"><tspan x="-671.56494" y="-0.28489438" stroke-width=".6763">C structs</tspan></text>
			<circle cx="-627.82" cy="-2.67" r="13.375" fill="#aad400"/>
		</g>
		<g fill="#000000" font-family="'Open Sans Condensed'" font-size="9.0174px" letter-spacing="0px" stroke-width=".6763" text-anchor="middle" word-spacing="0px">
			<text x="-627.78656" y="-0.043329135" dominant-baseline="auto" text-align="center" style="font-feature-settings:normal;font-variant-alternates:normal;font-variant-caps:normal;font-variant-ligatures:normal;font-variant-numeric:normal;font-variant-position:normal;line-height:1.25;shape-padding:0;text-decoration-color:#000000;text-decoration-line:none;text-decoration-style:solid;text-indent:0;text-orientation:mixed;text-transform:none;white-space:normal" xml:space="preserve"><tspan x="-627.78656" y="-0.043329135" stroke-width=".6763">JSON</tspan></text>
			<text x="-627.64801" y="21.166273" dominant-baseline="auto" text-align="center" style="font-feature-settings:normal;font-variant-alternates:normal;font-variant-caps:normal;font-variant-ligatures:normal;font-variant-numeric:normal;font-variant-position:normal;line-height:1.25;shape-padding:0;text-decoration-color:#000000;text-decoration-line:none;text-decoration-style:solid;text-indent:0;text-orientation:mixed;text-transform:none;white-space:normal" xml:space="preserve"><tspan x="-627.64801" y="21.166273" stroke-width=".6763">transit</tspan></text>
			<text x="-716.26086" y="21.211004" dominant-baseline="auto" text-align="center" style="font-feature-settings:normal;font-variant-alternates:normal;font-variant-caps:normal;font-variant-ligatures:normal;font-variant-numeric:normal;font-variant-position:normal;line-height:1.25;shape-padding:0;text-decoration-color:#000000;text-decoration-line:none;text-decoration-style:solid;text-indent:0;text-orientation:mixed;text-transform:none;white-space:normal" xml:space="preserve"><tspan x="-716.26086" y="21.211004" stroke-width=".6763">storage</tspan></text>
			<text x="-672.80682" y="20.817616" dominant-baseline="auto" text-align="center" style="font-feature-settings:normal;font-variant-alternates:normal;font-variant-caps:normal;font-variant-ligatures:normal;font-variant-numeric:normal;font-variant-position:normal;line-height:1.25;shape-padding:0;text-decoration-color:#000000;text-decoration-line:none;text-decoration-style:solid;text-indent:0;text-orientation:mixed;text-transform:none;white-space:normal" xml:space="preserve"><tspan x="-672.80682" y="20.817616" stroke-width=".6763">processing</tspan></text>
		</g>
		<g fill="none" stroke="#000" stroke-width="1.7147">
			<path d="m-699.88-2.5175 13.015-0.1388" marker-end="url(#g)" marker-start="url(#c)" stroke-dasharray="3.42934834, 1.71467418"/>
			<path d="m-655.78-2.6715 13.015-0.1388" marker-end="url(#f)" marker-start="url(#b)"/>
			<path d="m-611.7-3.5168 13.015-0.1388" marker-end="url(#e)" marker-start="url(#a)"/>
		</g>
		<g transform="matrix(.98084 0 0 .98084 -621.3 237.27)" fill="#000080" opacity=".244">
			<path d="m41.881-252.66c-0.74224 2.5432-0.89347 6.2107 2.3684 9.2701"/>
			<path d="m53.529-227.18c6.6092-4.0094 3.4326-11.99-0.99884-13.439-1.8556-0.60663-5.8343 0.0294-7.9178 3.1773-0.58269 0.88034-2.1307 3.9439-0.48031 5.5996 2.9809 2.6693 5.6161 0.56537 5.3608-1.4101-0.21066-1.6304-2.5195-2.2246-3.5161-0.16091-0.25975-2.8413 3.6465-3.1988 4.5934-2.4826 3.041 2.3001 1.5823 6.4615 1.0276 7.1414-0.73173 0.89688-3.6971 3.6214-8.2393 0.56437-6.8298-5.655-0.13193-11.313 3.866-12.476 6.1028-2.0341 9.0102 1.5223 10.671 3.6144 3.6868 4.6452 1.9809 8.9627 5.3505 13.525 1.9595 3.128 7.9821 3.7261 11.158 0.60173 5.5288-6.1445 3.3332-13.229-1.2516-13.479-0.22801-0.0125-2.9101-0.63086-4.4241 2.3627-1.0649 2.794 4e-3 3.8072 0.81726 4.1078 2.9088 0.79976 4.5016-5.174 0.82228-3.1128 4.8236-4.2183 5.2182 0.96693 5.0018 2.2308-0.80165 5.564-9.3442 7.4818-10.819 2.8668-0.35205-0.62503-1.4338-5.0762 3.9067-8.1954 5.5765-3.6326 13.211 5.2134 17.982 5.8918 10.106 1.6835 14.307-6.6479 10.856-12.582-1.2554-1.7669-2.8684-3.5441-5.7068-3.7758-6.1109-0.17391-9.2141 3.4739-7.9593 8.2436 1.3959 2.9346 4.6564 2.9335 5.6551 2.6689 10.271-4.9733-4.2693-8.9086-0.87901-1.2245-4.8802-3.8972 0.63964-7.5993 4.4048-6.1991 0.96063 0.35724 5.1803 5.0648-0.05897 9.3556-1.1663 0.95517-4.5269 2.2051-8.0004 0.28109-3.3694-1.8664-3.5338-5.8701-2.477-9.261 1.0569-3.3909 5.3014-5.0232 8.3812-4.6644 6.7277 0.78392 8.7315 5.091 9.5955 7.5454 2.4366 6.9213-4.6408 13.804-8.902 13.4-4.2109 0.0282-8.4677 0.21333-12.52-6.2854 2.1202 3.9189 2.0498 12.14-3.7631 14.191-4.5313 1.8257-11.466 2.5989-16.992-3.7837-8.6613 4.8198-20.705 1.566-24.156-7.0006-0.92495-2.578-0.47339-6.8624 0.24474-9.4071-7.6693 1.5897-10.613-4.3062-9.6483-8.4011 0.91606-4.9175 6.1951-6.9841 9.8568-7.0428 1.5425-0.0247 4.6646-0.23374 6.5237 1.4445 0.91307 0.82426 0.56096-3.1566 4.8371-7.1831 1.0571-1.2067 4.9098-4.4309 6.8716-4.0876 2.9444 0.51523 6.0699-5.719 15.148-4.942 3.6186 0.30968 11.982 4.7173 15.123 5.2824 6.4081 1.1531 11.088-2.2 14.812 1.3207 2.1216 2.0055 4.2287 8.5906 1.9089 12.056-3.3431 5.2297 0.78824 7.9425 0.71094 11.137-0.41729 1.0853-2.8169-2.0166-3.8145-6.0592-0.12602-0.51067-1.1007-2.262-2.1876-2.0061 5.211-1.0111 1.7392-4.8923 3.8526-5.3799-1.3772 2.9802-4.6943 6.3834-11.832 6.001 2.3202-2.0058 7.0672-2.1803 9.3859-7.409 1.4893-3.3583-1.1162-6.6918-1.6409-7.4946-1.7761-2.7172-9.3712-0.53945-10.376 0.18939-1.5682 1.1375-2.5616 5.9494-0.43858 6.8512 0.54995 0.23361 1.794 0.56034 3.5295 0.0399 0.50862-0.15251 2.2807-1.4805 1.5209-3.1415-0.75989-1.661-4.1817-1.9196-3.2935 2.0787-2.4306-2.4398 0.42917-5.7946 3.2902-5.3916 0.79279 0.11167 2.0901 0.64339 2.7036 1.9892 0.7832 1.7182 0.04247 9.0743-6.3208 9.7095-2.5704-0.23817-4.933-1.0036-6.0081-4.2173-1.0894-3.2565-0.34649-6.6133 3.6075-8.8417-10.088-5.6172-13.564-5.3423-14.931-5.3234-3.5985 0.0499-11.415 2.2097-12.233 6.9656-2.0539 9.4145 6.0196 15.718 11.313 13.869 2.0435-0.71404 5.3178-3.0132 6.2069-5.7695 1.1253-2.7161 0.52067-9.2257-3.7502-9.8187-7.5674-1.0507-7.4178 5.1207-7.3467 5.7392 0.43169 3.7568 3.3857 3.0344 3.6417 2.0547 0.95883-3.6692-2.0573-0.28653-1.6915-1.0436 0.46602-0.96437 3.7458-4.2325 5.2541-0.60127 1.7856 4.2987-2.9558 7.0032-5.6537 6.3922-4.4526-1.0083-5.5626-5.3976-4.766-8.0601 2.1592-7.2172 11.062-5.6806 12.605-5.1024 5.4016 2.0239 6.2208 7.6173 5.5996 10.861-0.49155 2.5665-2.0196 9.0474-10.012 9.7885-4.1054 0.38065-9.5771-2.4666-11.216-5.3882-2.0253-3.6104-3.5546-6.4056-1.5183-12.344 0.49778-1.4517-0.80522-2.6114-2.1376-2.7358-1.8908-0.17651-7.8322 5.0017-8.3951 12.347-0.0049 0.0687 0.16434 3.8731 1.508 5.7369 1.0084 1.3987 1.5571 1.0966 3.0688 0.64569-0.50956 1.6452-2.9656 3.1932-5.2687 0.96907-1.1202-1.0819-1.4076-4.8291-2.1762-7.3776-0.52918-1.7545-1.3818-2.0825-1.8102-2.3238-10.206-1.1153-13.561 6.2269-9.7615 11.16 1.0884 1.2644 4.3886 2.667 7.0879-0.23624 0.9211-1.4945 1.569-5.634-2.188-6.2928-2.8126-0.35877-4.3231 2.5961-2.3307 4.1754 0.37764 0.29935 2.4183 0.24252 2.3959-1.3755 2.2889 2.8495-1.3845 4.3098-3.6108 2.018-1.7839-2.9588 1.0791-5.2149 3.1674-5.1311-0.18791-0.022 5.895-0.84785 4.9726 6.1419-4.9602 11.939 4.7226 21.559 15.224 15.13z"/>
			<path d="m49.624-251.08c4.0745-1.5884-4.5287-6.9179-2.0933 1.9722 3.3605 7.6759 16.386 13.929 25.972 10.856 6.2802-2.3279 6.422-8.3769 11.798-9.3185-1.4058 0.498-3.0762-0.99605-8.0373 3.492 2.7673-2.8522 0.46911-8.4801 0.5153-10.38 0.81305 6.522-3.3474 14.573-10.648 15.099-9.1475-0.20557-17.567-6.4219-18.317-10.157-1.3969-3.3934 1.9255-4.3416 0.80968-1.5631z"/>
			<path d="m65.991-266.93c-3.2975 0.0765-7.0461 1.7511-9.1722 4.3069-1.4452 1.8513-1.5312 4.3552-1.5178 6.6306 0.40978 2.9471 0.52755-2.4046 1.0549-3.2704 0.79541-3.0328-0.05729 1.3697 0.19279 2.5077-3e-3 1.4284 0.62634 4.1837 0.98556 4.6393-0.36808-2.9118-0.83127-5.9611-0.0089-8.831 1.1023-1.717-1.0043 5.3378-0.05502 2.4936 0.4507-2.5768 3.4798-4.9071 5.958-5.5887 1.9113-0.44792 3.8363 0.0423 5.7521 0.13584-1.5893-1.1774-4.5231-0.98014-5.3358-0.94935 1.9261-0.94969 4.1318-0.0705 6.1133 0.25724 0.92665 0.28009 6.1313 2.5542 3.7244 1.4918-2.7444-2.1779-4.7658-2.532-8.0506-2.962 2.403-0.17544 4.792 0.0365 7.8314 1.5548 1.0265 0.36413 3.0918 2.8212 3.2862 2.578-1.2943-1.7886-1.656-2.829-5.0375-4.2074-2.3484-0.68646-3.2712-0.65201-5.7213-0.78692z"/>
			<path d="m58.364-238.03c0.82342 0.96459 1.6468 1.9292 2.4703 2.8938 0.7972 4.0979 0.99109 8.6917 3.935 11.943 1.529 1.3148 3.8631 1.8335 5.5898 0.94221-1.6708 0.0763-3.301-0.33307-4.7173-1.19-1.0351-0.45373-2.6418-3.7051-0.93718-1.5735 1.7152 1.2122 3.8589 2.519 6.0318 1.776 1.6617-0.48301 3.0361-1.5936 3.9635-3.0436 0.658-0.86497-1.5494 1.0574-2.0538 1.3326-1.8192 1.5865-4.345 0.99565-6.3502 0.16388-1.5572-1.0506-3.0636-2.5037-3.4345-4.4401-0.53767-2.1605 0.98445-4.2317 2.4081-5.6982 1.6672-1.9048-2.3171 0.34388-2.1141 1.6664-1.0943 2.7953-0.80067-1.9094 0.29333-2.6286 1.0637-1.4519-1.4052-0.44253-1.242 0.76276-0.18207 0.78531-0.7779 2.569-0.75391 0.63336 0.26016-2.0878-1.6642-2.6196-3.0889-3.5399z"/>
			<path d="m28.156-247.06c0.92848-3.4966 5.0287-4.4196 8.1746-4.5432 2.7482-0.098 3.9609 2.5301 3.7359 4.9102 1.2078 1.8932 1.8939 5.2494 4.7221 5.2123 1.2565-0.038 4.8122-0.79982 1.7535 0.0858-1.4333 0.12222-3.256 0.27432-3.2963 0.71318-2.8124-0.78131-1.9305 3.4262-3.2886 4.988-0.84011 2.5666 0.06825 5.4727 1.5198 7.6219-2.1035-1.442-2.5373-4.3132-2.6564-6.6511-1.0429 0.61507 0.02588 3.9157-0.70499 1.3105-0.96281-3.0077 0.12061-6.1571 1.2057-8.9638-0.28831 1.356-1.0953 5.2215-0.54995 4.9051 0.17316-2.8227 2.8539-6.6846 0.33375-8.8214-0.47624-1.622-3.5311-2.5422-3.7271-2.9056 1.0824-0.19259 4.4689 1.1444 2.3851-0.89256-1.7961-1.5634-4.5102-0.71819-6.2136 0.55886-0.92245 1.0856-0.90091 1.8597-1.0907 0.0721-0.8937 0.11462-1.6812 1.692-2.3029 2.3998z"/>
			<path d="m45.236-235.2c1.4188-1.2781 3.3971-2.7545 5.3421-1.602 2.2217 0.66519 3.4478 3.1534 2.884 5.3536-0.35111 2.2009-1.6599 4.5037-3.921 5.1553 2.5987-0.48934 4.4214-2.8736 4.7078-5.4242 0.1482-0.77718 0.32924-3.0423 0.40115-1.0554 0.12287 1.4282 0.10405 3.0167-0.82412 4.1993 1.4662-1.0739 2.0707-2.9731 1.5762-4.6908-0.45478-0.93908-0.35002-2.0493 0.21589-0.60058 0.29431 0.77353 0.85771 2.5136 0.68046 0.59142 0.10183-2.1526-1.1589-3.992-2.5783-5.468-1.6545-1.5072-4.1397-1.0272-6.0679-0.40689-0.86995 0.3702-2.6266 1.5015-2.405 2.1681 1.5976-1.3604 3.7768-2.0397 5.8513-2.0223 1.1343 0.0526 1.9047 0.93003 0.30213 0.39937-1.4706-0.39468-4.1193 0.64258-4.5509 1.1895 1.2514-0.73692 2.9324-1.0773 4.2523-0.52456-2.0155 0.32148-4.9769-2e-3 -5.7173 2.462z"/>
			<path d="m86.737-261.88c2.7563-0.85852 6.3293-0.86997 7.8693 2.0772 2.368 3.7758-0.10823 8.4824-3.8369 10.086-1.0758 0.54064-4.9583 2.5338-2.4181 1.0435 1.7273-0.88976 5.7959-3.6731 5.9537-6.6596-1.5209 2.8566-5.3829 6.2444-5.4944 5.5818 2.2515-1.9622 5.7254-6.7355 4.4017-8.798-0.18086 2.3574-0.74912 3.2298-1.9174 4.6555 1.3091-2.3149 1.4959-5.674-1.6939-7.182-1.3411-0.35708-2.2776-0.17587-3.6745-0.07 3.191-1.0558 7.3728 0.49056 7.9763 1.8864-0.45062-2.8257-4.689-2.7438-7.1658-2.621z"/>
			<path d="m75.47-237.09c2.803 1.1663 5.3876 2.75 7.7894 4.5827 1.9392 1.5512 4.4316 2.1984 6.8793 1.8021 2.3819-0.15037 4.6177-1.2797 6.0384-3.2205 1.9103-1.8401 1.691-4.7936 1.1326-7.1714-0.72217-1.5912-1.5238-3.4197-3.1792-4.1842-2.4435-1.655-5.9834-0.92278-8.0631 1.0117-1.5923 0.92202-2.2122 4.5642-1.4908 5.0768-0.0885-1.1957 0.49061-4.0393 1.2515-3.838-0.37329 1.783-0.92585 4.5926 0.50945 5.5734-0.8281-2.4749-0.42119-5.6188 1.6709-7.3533 1.916-0.69165 1.3727 0.0971 0.05383 0.82066-1.0229 0.84309-0.97413 1.8974 0.2291 0.57914 1.6494-1.1529 5.0885-1.3778 6.0631 0.19933-0.90007-0.28761-2.911-1.116-1.022-0.0561 1.9922 0.71869 2.4199 2.8623 2.6766 4.5463 1.1651-3.0198-1.5306-6.5592-4.7208-6.464 2.0653-0.70343 4.5676 1.3093 5.1924 3.4456 0.99083 2.0816 0.44235 4.4699-0.78661 6.3162-0.28779 1.164-3.2359 3.5234-0.83706 1.7868 1.0288-0.62561 1.9327-3.8066 2.276-3.4672-0.62049 2.3505-2.1836 4.9718-4.8418 5.2318-1.685-1.3884-3.9146 1.1436-5.6327 0.0106 1.0791 1.0606 3.711-0.21206 4.0259 0.49175-2.1714 0.97677-4.6633 0.0758-6.5161-1.1913-2.1407-0.61396-3.3669-2.5051-3.7891-4.5991-0.80372-1.169 0.05018-4.2871 0.01116-4.1904-1.3934 1.8704-0.77804 4.5464 0.15394 6.3709-1.4526-1.2408-3.2863-1.6076-5.0744-2.1103z"/>
			<path d="m50.816-260.85c-4.7428 2.3195-7.1531 8.0201-6.1682 13.101 0.39021 3.199 4.0638 3.4365 5.7719 5.5891 1.5389 0.65182 2.9375 0.63553 0.71682-0.17495-1.5715-1.7161-4.12-3.0931-5.145-4.8013 1.783-0.2772 4.1569 3.8232 4.4273 3.0339-1.8386-2.4567-5.1454-4.5752-4.3129-8.1415-0.08179-1.1106 1.0497 5.0564 0.75955 1.2857-1.2383-2.9507 0.76703-6.6915 3.6364-3.2944 2.2856 2.3184-1.7431 5.7349 1.4032 7.6768 2.9709 2.6687 6.3811 5.045 10.377 5.8104-2.8244-1.2674-8.8144-4.4477-8.8341-5.6956 3.7202 2.8569 8.0143 5.1295 12.555 6.2946 1.903 0.41675 5.1739-0.28816 5.8167-1.6201-1.0633 0.93888-7.2765 1.5085-3.2054 0.5499 2.3524 0.0776 6.2515-3.239 5.786-3.926-3.7911 3.7293-9.9662 4.6807-14.649 2.0879-2.5619-1.4337-5.342-2.8518-7.136-5.2375-1.3113-2.369 3.214 2.47 0.93224-0.61762-1.1318-2.9407-2.6594-5.4934-4.4296-8.0667 0.12899-2.4985 1.7215-1.6882 1.3476 0.44799 1.3267 0.61265 1.9866 5.1062 2.2629 4.4024 3e-3 -2.2907-2.4535-5.7724-1.0966-7.2729 0.70538 5.5047 2.2634-4.336-0.81591-1.4309z"/>
			<path d="m64.434-258.85c0.50641-2.0361 2.6105-3.0205 4.9975-2.1045 2.2245 1.1612 3.1451 4.1428 2.485 6.4831-0.36288 1.6369-0.91876 2.8077-1.8397 4.0217 0.91276-2.6109 2.182-5.7102 0.3283-7.932 0.69965 1.4755 0.09798 4.4636-0.42959 6.0267-0.42961 1.2118-1.9816 2.8979-2.5725 3.3358 1.3169-1.5756 2.7659-3.31 2.7069-5.3954 0.55889-1.9106-0.70491-5.1142-3.0272-4.5658-1.0129 0.0956-3.4269 2.0908-3.4554 1.7915 1.0397-1.6217 3.2371-2.8233 5.0618-2.6442-0.69423-1.545-3.1889-0.0781-4.0742 0.84006z"/>
		</g>
		<text x="-696.14355" y="-27.217051" dominant-baseline="auto" fill="#000000" font-family="'Open Sans Condensed'" font-size="20.244px" letter-spacing="0px" stroke-width="1.5183" text-align="center" text-anchor="middle" word-spacing="0px" style="font-feature-settings:normal;font-variant-alternates:normal;font-variant-caps:normal;font-variant-ligatures:normal;font-variant-numeric:normal;font-variant-position:normal;line-height:1.25;shape-padding:0;text-decoration-color:#000000;text-decoration-line:none;text-decoration-style:solid;text-indent:0;text-orientation:mixed;text-transform:none;white-space:normal" xml:space="preserve"><tspan x="-696.14355" y="-27.217051" stroke-width="1.5183">lws_struct</tspan></text>
	</g>
</svg>
