<?xml version="1.0" encoding="UTF-8"?>
<svg width="187.8mm" height="80.752mm" version="1.1" viewBox="0 0 187.79663 80.752144" xmlns="http://www.w3.org/2000/svg">
	<defs>
		<filter id="a" x="-.014418" y="-.034864" width="1.0288" height="1.0697" color-interpolation-filters="sRGB">
			<feGaussianBlur stdDeviation="1.5466839"/>
		</filter>
	</defs>
	<g transform="translate(-161.61 156.88)">
		<g>
			<g stroke="#666" stroke-linejoin="round">
				<rect transform="matrix(.709 0 0 .709 167.83 -486.38)" x="-5.0609" y="468.46" width="257.45" height="106.47" ry="0" filter="url(#a)" stroke-width=".24551"/>
				<rect x="163.71" y="-154.85" width="182.53" height="75.489" ry="0" fill="#f2f2f2" stroke-width=".17406"/>
				<rect x="171.7" y="-140.36" width="30.952" height="50.082" fill="#808080" stroke-width=".40058"/>
				<rect x="172.68" y="-139.06" width="28.784" height="6.4996" fill="#a00" stroke-width=".11698"/>
				<rect x="172.74" y="-131.83" width="28.784" height="40.39" fill="#c4c8b7" stroke-width=".11698"/>
			</g>
			<text x="181.33067" y="-136.13423" fill="#ffffff" font-family="'Open Sans'" font-size="3.1742px" letter-spacing="0px" stroke-width=".39677" text-align="center" text-anchor="middle" word-spacing="0px" style="font-feature-settings:normal;font-variant-caps:normal;font-variant-ligatures:normal;font-variant-numeric:normal;line-height:1.25" xml:space="preserve"><tspan x="181.33067" y="-136.13423" fill="#ffffff" font-family="'Open Sans'" font-size="2.8222px" stroke-width=".39677">struct lwsac</tspan></text>
			<text x="184.53554" y="-92.850395" fill="#000000" font-family="'Open Sans'" font-size="3.1742px" letter-spacing="0px" stroke-width=".39677" text-align="center" text-anchor="middle" word-spacing="0px" style="font-feature-settings:normal;font-variant-caps:normal;font-variant-ligatures:normal;font-variant-numeric:normal;line-height:1.25" xml:space="preserve"><tspan x="184.53554" y="-92.850395" font-family="'Open Sans'" stroke-width=".39677">allocated area</tspan></text>
			<path d="m206.96-138.6 1.5352 0.74171-1.4119 0.76078-0.0812-0.34638-6.239-0.0174c0.0635-0.40246-0.0214-0.51522 0.0725-0.82588l6.136 5e-3z" fill="#2a7fff"/>
			<rect x="172" y="-150.67" width="26.156" height="4.4025" fill="#500" stroke="#666" stroke-linejoin="round" stroke-width=".091779"/>
			<text x="185.17738" y="-147.67433" fill="#ffffff" font-family="'Open Sans'" font-size="3.1742px" letter-spacing="0px" stroke-width=".39677" text-align="center" text-anchor="middle" word-spacing="0px" style="font-feature-settings:normal;font-variant-caps:normal;font-variant-ligatures:normal;font-variant-numeric:normal;line-height:1.25" xml:space="preserve"><tspan x="185.17738" y="-147.67433" fill="#ffffff" font-family="'Open Sans'" font-size="2.8222px" stroke-width=".39677">struct lwsac *head</tspan></text>
			<text x="198.1916" y="-137.38612" fill="#ffffff" font-family="'Open Sans'" font-size="1.5007px" letter-spacing="0px" stroke-width=".18759" text-align="center" text-anchor="middle" word-spacing="0px" style="font-feature-settings:normal;font-variant-caps:normal;font-variant-ligatures:normal;font-variant-numeric:normal;line-height:1.25" xml:space="preserve"><tspan x="198.1916" y="-137.38612">next</tspan><tspan x="198.1916" y="-135.51024">head</tspan><tspan x="198.1916" y="-133.63435">curr</tspan></text>
			<path d="m174.55-138.71-0.74171 2.0619-0.76078-1.8964 0.34638-0.10906 0.0174-8.3796c0.40246 0.0853 0.51522-0.0288 0.82587 0.0974l-5e-3 8.2413z" fill="#2a7fff"/>
			<text x="188.84824" y="-135.46999" fill="#ffffff" font-family="'Open Sans'" font-size="1.5007px" letter-spacing="0px" stroke-width=".18759" text-align="center" word-spacing="0px" style="font-feature-settings:normal;font-variant-caps:normal;font-variant-ligatures:normal;font-variant-numeric:normal;line-height:1.25" xml:space="preserve"><tspan x="188.84824" y="-135.46999" text-align="start">ofs</tspan><tspan x="188.84824" y="-133.5941" text-align="start">alloc_size</tspan></text>
			<path d="m195.91-144.71-0.7417-2.0619-0.76078 1.8964 0.34637 0.10906-0.0412 9.1651c0.24984 0.0323 0.88518-0.0192 1.5658-0.0156 0.0711-0.0968 0.0691-0.46205 0.015-0.82619-0.45397 2e-3 -0.78488-5e-3 -0.69634-0.0411l-5e-3 -8.2413z" fill="#2a7fff"/>
		</g>
		<path d="m201.26-131.89-2.3876 2.1223-0.13265 35.947 2.7855 2.255" fill="none" stroke="#000" stroke-dasharray="0.5627649, 0.1875883" stroke-width=".18759"/>
		<path d="m191.97-133.09 6.8975 7.6934" fill="none" stroke="#000" stroke-dasharray="0.37517659, 0.1875883" stroke-width=".18759"/>
		<path d="m174.12-132.51-1.5352 0.7417 1.4119 0.76078 0.0812-0.34638 2.127 0.0157c-0.0635-0.40245 0.0214-0.54838-0.0725-0.85903l-2.024 5e-3z"/>
		<path d="m176.09-131.63 5.7037 0.0664 6.2343-3.913 0.66323-0.0995" fill="none" stroke="#000" stroke-dasharray="0.37517659, 0.1875883" stroke-width=".18759"/>
		<g>
			<rect x="220.5" y="-140.05" width="30.952" height="50.082" fill="#808080" stroke="#666" stroke-linejoin="round" stroke-width=".40058"/>
			<rect x="221.48" y="-138.74" width="28.784" height="6.4996" fill="#a00" stroke="#666" stroke-linejoin="round" stroke-width=".11698"/>
			<text x="226.27528" y="-118.77273" fill="#000000" font-family="'Open Sans'" font-size="1.5007px" letter-spacing="0px" stroke-width=".18759" text-align="center" text-anchor="middle" word-spacing="0px" style="font-feature-settings:normal;font-variant-caps:normal;font-variant-ligatures:normal;font-variant-numeric:normal;line-height:1.25" xml:space="preserve"><tspan x="226.27528" y="-118.77273" font-family="'Open Sans'" stroke-width=".18759">ptr aligned</tspan></text>
			<rect x="221.54" y="-131.51" width="28.784" height="40.39" fill="#c4c8b7" stroke="#666" stroke-linejoin="round" stroke-width=".11698"/>
			<text x="230.13133" y="-135.82219" fill="#ffffff" font-family="'Open Sans'" font-size="3.1742px" letter-spacing="0px" stroke-width=".39677" text-align="center" text-anchor="middle" word-spacing="0px" style="font-feature-settings:normal;font-variant-caps:normal;font-variant-ligatures:normal;font-variant-numeric:normal;line-height:1.25" xml:space="preserve"><tspan x="230.13133" y="-135.82219" fill="#ffffff" font-family="'Open Sans'" font-size="2.8222px" stroke-width=".39677">struct lwsac</tspan></text>
			<text x="233.3362" y="-92.538383" fill="#000000" font-family="'Open Sans'" font-size="3.1742px" letter-spacing="0px" stroke-width=".39677" text-align="center" text-anchor="middle" word-spacing="0px" style="font-feature-settings:normal;font-variant-caps:normal;font-variant-ligatures:normal;font-variant-numeric:normal;line-height:1.25" xml:space="preserve"><tspan x="233.3362" y="-92.538383" font-family="'Open Sans'" stroke-width=".39677">allocated area</tspan></text>
			<path d="m255.76-138.29 1.5352 0.74171-1.4119 0.76078-0.0812-0.34638-6.239-0.0174c0.0635-0.40246-0.0214-0.51522 0.0725-0.82588l6.136 5e-3z" fill="#2a7fff"/>
			<rect x="220.8" y="-150.36" width="26.156" height="4.4025" fill="#500" stroke="#666" stroke-linejoin="round" stroke-width=".091779"/>
			<text x="233.97806" y="-147.36229" fill="#ffffff" font-family="'Open Sans'" font-size="3.1742px" letter-spacing="0px" stroke-width=".39677" text-align="center" text-anchor="middle" word-spacing="0px" style="font-feature-settings:normal;font-variant-caps:normal;font-variant-ligatures:normal;font-variant-numeric:normal;line-height:1.25" xml:space="preserve"><tspan x="233.97806" y="-147.36229" fill="#ffffff" font-family="'Open Sans'" font-size="2.8222px" stroke-width=".39677">struct lwsac *head</tspan></text>
			<text x="246.99228" y="-137.07408" fill="#ffffff" font-family="'Open Sans'" font-size="1.5007px" letter-spacing="0px" stroke-width=".18759" text-align="center" text-anchor="middle" word-spacing="0px" style="font-feature-settings:normal;font-variant-caps:normal;font-variant-ligatures:normal;font-variant-numeric:normal;line-height:1.25" xml:space="preserve"><tspan x="246.99228" y="-137.07408">next</tspan><tspan x="246.99228" y="-135.1982">head</tspan><tspan x="246.99228" y="-133.32231">curr</tspan></text>
			<path d="m223.35-138.4-0.74171 2.0619-0.76078-1.8964 0.34638-0.10905 0.0174-8.3796c0.40246 0.0853 0.51522-0.0288 0.82588 0.0974l-5e-3 8.2413z" fill="#2a7fff"/>
			<text x="237.64891" y="-135.15791" fill="#ffffff" font-family="'Open Sans'" font-size="1.5007px" letter-spacing="0px" stroke-width=".18759" text-align="center" word-spacing="0px" style="font-feature-settings:normal;font-variant-caps:normal;font-variant-ligatures:normal;font-variant-numeric:normal;line-height:1.25" xml:space="preserve"><tspan x="237.64891" y="-135.15791" text-align="start">ofs</tspan><tspan x="237.64891" y="-133.28203" text-align="start">alloc_size</tspan></text>
			<path d="m244.71-144.39-0.74171-2.0619-0.76078 1.8964 0.34638 0.10906-0.0412 9.1651c0.24984 0.0323 0.88518-0.0192 1.5658-0.0156 0.0711-0.0968 0.0691-0.46205 0.015-0.82618-0.45397 2e-3 -0.78488-5e-3 -0.69634-0.0411l-5e-3 -8.2413z" fill="#2a7fff"/>
			<rect x="221.98" y="-130.85" width="27.712" height="7.4313" fill="#ff8080" stroke="#666" stroke-linejoin="round" stroke-width=".14463"/>
			<rect x="221.97" y="-121.59" width="27.712" height="7.4313" fill="#ff8080" stroke="#666" stroke-linejoin="round" stroke-width=".14463"/>
		</g>
		<path d="m250.06-131.58-2.3876 2.1223-0.13265 35.947 2.7855 2.255" fill="none" stroke="#000" stroke-dasharray="0.56276491, 0.1875883" stroke-width=".18759"/>
		<path d="m240.78-132.77 6.8975 7.6934" fill="none" stroke="#000" stroke-dasharray="0.37517659, 0.1875883" stroke-width=".18759"/>
		<text x="235.9016" y="-126.22051" fill="#ffffff" font-family="'Open Sans'" font-size="2.5582px" letter-spacing="0px" stroke-width=".31977" text-align="center" text-anchor="middle" word-spacing="0px" style="font-feature-settings:normal;font-variant-caps:normal;font-variant-ligatures:normal;font-variant-numeric:normal;line-height:1.25" xml:space="preserve"><tspan x="235.9016" y="-126.22051" fill="#ffffff" font-family="'Open Sans'" stroke-width=".31977">lwsac_use area</tspan></text>
		<path d="m223.49-112.72-1.5352 0.7417 1.4119 0.76079 0.0812-0.34638 2.127 0.0157c-0.0635-0.40245 0.0214-0.54838-0.0725-0.85903l-2.024 5e-3z"/>
		<path d="m225.29-112.13 8.31 0.0664 3.0298-2.9076 0.20032-20.194 0.66323-0.0995" fill="none" stroke="#000" stroke-dasharray="0.37517659, 0.1875883" stroke-width=".18759"/>
		<g>
			<text x="177.42035" y="-129.76131" fill="#000000" font-family="'Open Sans'" font-size="1.5007px" letter-spacing="0px" stroke-width=".18759" text-align="center" text-anchor="middle" word-spacing="0px" style="font-feature-settings:normal;font-variant-caps:normal;font-variant-ligatures:normal;font-variant-numeric:normal;line-height:1.25" xml:space="preserve"><tspan x="177.42035" y="-129.76131" font-family="'Open Sans'" stroke-width=".18759">ptr aligned</tspan></text>
			<text x="235.79298" y="-122.17254" fill="#000000" font-family="'Open Sans'" font-size="1.0364px" letter-spacing="0px" stroke-width=".12956" text-align="center" text-anchor="middle" word-spacing="0px" style="font-feature-settings:normal;font-variant-caps:normal;font-variant-ligatures:normal;font-variant-numeric:normal;line-height:1.25" xml:space="preserve"><tspan x="235.79298" y="-122.17254" font-family="'Open Sans'" stroke-width=".12956">alignment padding</tspan></text>
			<path d="m220.64-131.26 1.5352 0.7417-1.4119 0.76079-0.0812-0.34638-2.127 0.0157c0.0635-0.40246-0.0214-0.54838 0.0725-0.85903l2.024 5e-3z"/>
			<g font-family="'Open Sans'" letter-spacing="0px" text-anchor="middle" word-spacing="0px">
				<text x="235.89856" y="-116.96035" fill="#ffffff" font-size="2.5582px" stroke-width=".31977" text-align="center" style="font-feature-settings:normal;font-variant-caps:normal;font-variant-ligatures:normal;font-variant-numeric:normal;line-height:1.25" xml:space="preserve"><tspan x="235.89856" y="-116.96035" fill="#ffffff" font-family="'Open Sans'" stroke-width=".31977">lwsac_use area</tspan></text>
				<text x="226.27226" y="-109.51257" fill="#000000" font-size="1.5007px" stroke-width=".18759" text-align="center" style="font-feature-settings:normal;font-variant-caps:normal;font-variant-ligatures:normal;font-variant-numeric:normal;line-height:1.25" xml:space="preserve"><tspan x="226.27226" y="-109.51257" font-family="'Open Sans'" stroke-width=".18759">ptr aligned</tspan></text>
				<text x="235.78995" y="-112.91241" fill="#000000" font-size="1.0364px" stroke-width=".12956" text-align="center" style="font-feature-settings:normal;font-variant-caps:normal;font-variant-ligatures:normal;font-variant-numeric:normal;line-height:1.25" xml:space="preserve"><tspan x="235.78995" y="-112.91241" font-family="'Open Sans'" stroke-width=".12956">alignment padding</tspan></text>
			</g>
			<path d="m220.64-122 1.5352 0.7417-1.4119 0.76079-0.0812-0.34638-2.127 0.0157c0.0635-0.40245-0.0214-0.54838 0.0725-0.85903l2.024 5e-3z"/>
			<rect x="268.33" y="-140.45" width="30.952" height="50.082" fill="#808080" stroke="#666" stroke-linejoin="round" stroke-width=".40058"/>
			<rect x="269.31" y="-139.14" width="28.784" height="6.4996" fill="#a00" stroke="#666" stroke-linejoin="round" stroke-width=".11698"/>
			<text x="274.10483" y="-119.17068" fill="#000000" font-family="'Open Sans'" font-size="1.5007px" letter-spacing="0px" stroke-width=".18759" text-align="center" text-anchor="middle" word-spacing="0px" style="font-feature-settings:normal;font-variant-caps:normal;font-variant-ligatures:normal;font-variant-numeric:normal;line-height:1.25" xml:space="preserve"><tspan x="274.10483" y="-119.17068" font-family="'Open Sans'" stroke-width=".18759">ptr aligned</tspan></text>
			<rect x="269.37" y="-131.91" width="28.784" height="40.39" fill="#c4c8b7" stroke="#666" stroke-linejoin="round" stroke-width=".11698"/>
			<text x="277.96088" y="-136.22011" fill="#ffffff" font-family="'Open Sans'" font-size="3.1742px" letter-spacing="0px" stroke-width=".39677" text-align="center" text-anchor="middle" word-spacing="0px" style="font-feature-settings:normal;font-variant-caps:normal;font-variant-ligatures:normal;font-variant-numeric:normal;line-height:1.25" xml:space="preserve"><tspan x="277.96088" y="-136.22011" fill="#ffffff" font-family="'Open Sans'" font-size="2.8222px" stroke-width=".39677">struct lwsac</tspan></text>
			<text x="281.16574" y="-92.936333" fill="#000000" font-family="'Open Sans'" font-size="3.1742px" letter-spacing="0px" stroke-width=".39677" text-align="center" text-anchor="middle" word-spacing="0px" style="font-feature-settings:normal;font-variant-caps:normal;font-variant-ligatures:normal;font-variant-numeric:normal;line-height:1.25" xml:space="preserve"><tspan x="281.16574" y="-92.936333" font-family="'Open Sans'" stroke-width=".39677">allocated area</tspan></text>
			<rect x="302.47" y="-140.62" width="30.952" height="50.082" fill="#808080" stroke="#666" stroke-linejoin="round" stroke-width=".40058"/>
			<rect x="303.45" y="-139.31" width="28.784" height="6.4996" fill="#a00" stroke="#666" stroke-linejoin="round" stroke-width=".11698"/>
			<path d="m303.59-138.69 1.5352 0.7417-1.4119 0.76078-0.0812-0.34638-6.239-0.0174c0.0635-0.40245-0.0214-0.51522 0.0725-0.82587l6.136 5e-3z" fill="#2a7fff"/>
			<rect x="268.63" y="-150.76" width="26.156" height="4.4025" fill="#500" stroke="#666" stroke-linejoin="round" stroke-width=".091779"/>
			<text x="281.80762" y="-147.76024" fill="#ffffff" font-family="'Open Sans'" font-size="3.1742px" letter-spacing="0px" stroke-width=".39677" text-align="center" text-anchor="middle" word-spacing="0px" style="font-feature-settings:normal;font-variant-caps:normal;font-variant-ligatures:normal;font-variant-numeric:normal;line-height:1.25" xml:space="preserve"><tspan x="281.80762" y="-147.76024" fill="#ffffff" font-family="'Open Sans'" font-size="2.8222px" stroke-width=".39677">struct lwsac *head</tspan></text>
			<text x="294.82181" y="-137.47203" fill="#ffffff" font-family="'Open Sans'" font-size="1.5007px" letter-spacing="0px" stroke-width=".18759" text-align="center" text-anchor="middle" word-spacing="0px" style="font-feature-settings:normal;font-variant-caps:normal;font-variant-ligatures:normal;font-variant-numeric:normal;line-height:1.25" xml:space="preserve"><tspan x="294.82181" y="-137.47203">next</tspan><tspan x="294.82181" y="-135.59615">head</tspan><tspan x="294.82181" y="-133.72026">curr</tspan></text>
			<path d="m271.18-138.8-0.74171 2.0619-0.76078-1.8964 0.34638-0.10906 0.0174-8.3796c0.40246 0.0853 0.51522-0.0288 0.82587 0.0974l-5e-3 8.2413z" fill="#2a7fff"/>
			<text x="285.47845" y="-135.55586" fill="#ffffff" font-family="'Open Sans'" font-size="1.5007px" letter-spacing="0px" stroke-width=".18759" text-align="center" word-spacing="0px" style="font-feature-settings:normal;font-variant-caps:normal;font-variant-ligatures:normal;font-variant-numeric:normal;line-height:1.25" xml:space="preserve"><tspan x="285.47845" y="-135.55586" text-align="start">ofs</tspan><tspan x="285.47845" y="-133.67998" text-align="start">alloc_size</tspan></text>
			<path d="m292.54-144.79-0.74171-2.0619-0.76078 1.8964 0.34638 0.10906-0.0412 9.1651c0.24984 0.0323 0.88517-0.0192 1.5658-0.0156 0.0711-0.0968 0.0691-0.46206 0.015-0.82619-0.45397 2e-3 -0.78487-5e-3 -0.69633-0.0411l-5e-3 -8.2413z" fill="#2a7fff"/>
			<rect x="269.81" y="-131.25" width="27.712" height="7.4313" fill="#ff8080" stroke="#666" stroke-linejoin="round" stroke-width=".14463"/>
			<rect x="269.8" y="-121.99" width="27.712" height="7.4313" fill="#ff8080" stroke="#666" stroke-linejoin="round" stroke-width=".14463"/>
		</g>
		<path d="m297.89-131.98-2.3876 2.1223-0.13264 35.947 2.7855 2.255" fill="none" stroke="#000" stroke-dasharray="0.56276492, 0.1875883" stroke-width=".18759"/>
		<path d="m288.61-133.17 6.8975 7.6934" fill="none" stroke="#000" stroke-dasharray="0.37517659, 0.1875883" stroke-width=".18759"/>
		<text x="283.73114" y="-126.61846" fill="#ffffff" font-family="'Open Sans'" font-size="2.5582px" letter-spacing="0px" stroke-width=".31977" text-align="center" text-anchor="middle" word-spacing="0px" style="font-feature-settings:normal;font-variant-caps:normal;font-variant-ligatures:normal;font-variant-numeric:normal;line-height:1.25" xml:space="preserve"><tspan x="283.73114" y="-126.61846" fill="#ffffff" font-family="'Open Sans'" stroke-width=".31977">lwsac_use area</tspan></text>
		<path d="m271.31-113.11-1.5352 0.7417 1.4119 0.76079 0.0812-0.34638 2.127 0.0157c-0.0635-0.40246 0.0214-0.54838-0.0725-0.85904l-2.024 5e-3z"/>
		<path d="m273.12-112.52 8.31 0.0664 3.0298-2.9076 0.20032-20.194 0.66323-0.0995" fill="none" stroke="#000" stroke-dasharray="0.37517659, 0.1875883" stroke-width=".18759"/>
		<g>
			<text x="283.62253" y="-122.57049" fill="#000000" font-family="'Open Sans'" font-size="1.0364px" letter-spacing="0px" stroke-width=".12956" text-align="center" text-anchor="middle" word-spacing="0px" style="font-feature-settings:normal;font-variant-caps:normal;font-variant-ligatures:normal;font-variant-numeric:normal;line-height:1.25" xml:space="preserve"><tspan x="283.62253" y="-122.57049" font-family="'Open Sans'" stroke-width=".12956">alignment padding</tspan></text>
			<path d="m268.47-131.66 1.5352 0.74171-1.4119 0.76078-0.0812-0.34638-2.127 0.0157c0.0635-0.40245-0.0214-0.54838 0.0725-0.85903l2.024 5e-3z"/>
			<g font-family="'Open Sans'" letter-spacing="0px" text-anchor="middle" word-spacing="0px">
				<text x="283.72812" y="-117.3583" fill="#ffffff" font-size="2.5582px" stroke-width=".31977" text-align="center" style="font-feature-settings:normal;font-variant-caps:normal;font-variant-ligatures:normal;font-variant-numeric:normal;line-height:1.25" xml:space="preserve"><tspan x="283.72812" y="-117.3583" fill="#ffffff" font-family="'Open Sans'" stroke-width=".31977">lwsac_use area</tspan></text>
				<text x="274.10181" y="-109.91051" fill="#000000" font-size="1.5007px" stroke-width=".18759" text-align="center" style="font-feature-settings:normal;font-variant-caps:normal;font-variant-ligatures:normal;font-variant-numeric:normal;line-height:1.25" xml:space="preserve"><tspan x="274.10181" y="-109.91051" font-family="'Open Sans'" stroke-width=".18759">ptr aligned</tspan></text>
				<text x="283.61948" y="-113.31036" fill="#000000" font-size="1.0364px" stroke-width=".12956" text-align="center" style="font-feature-settings:normal;font-variant-caps:normal;font-variant-ligatures:normal;font-variant-numeric:normal;line-height:1.25" xml:space="preserve"><tspan x="283.61948" y="-113.31036" font-family="'Open Sans'" stroke-width=".12956">alignment padding</tspan></text>
			</g>
			<path d="m268.47-122.4 1.5352 0.7417-1.4119 0.76079-0.0812-0.34638-2.127 0.0157c0.0635-0.40246-0.0214-0.54838 0.0725-0.85904l2.024 5e-3z"/>
			<rect x="303.52" y="-132.08" width="28.784" height="40.39" fill="#c4c8b7" stroke="#666" stroke-linejoin="round" stroke-width=".11698"/>
			<text x="312.10593" y="-136.39232" fill="#ffffff" font-family="'Open Sans'" font-size="3.1742px" letter-spacing="0px" stroke-width=".39677" text-align="center" text-anchor="middle" word-spacing="0px" style="font-feature-settings:normal;font-variant-caps:normal;font-variant-ligatures:normal;font-variant-numeric:normal;line-height:1.25" xml:space="preserve"><tspan x="312.10593" y="-136.39232" fill="#ffffff" font-family="'Open Sans'" font-size="2.8222px" stroke-width=".39677">struct lwsac</tspan></text>
			<text x="315.31079" y="-93.108513" fill="#000000" font-family="'Open Sans'" font-size="3.1742px" letter-spacing="0px" stroke-width=".39677" text-align="center" text-anchor="middle" word-spacing="0px" style="font-feature-settings:normal;font-variant-caps:normal;font-variant-ligatures:normal;font-variant-numeric:normal;line-height:1.25" xml:space="preserve"><tspan x="315.31079" y="-93.108513" font-family="'Open Sans'" stroke-width=".39677">allocated area</tspan></text>
			<path d="m337.74-138.86 1.5352 0.74171-1.4119 0.76078-0.0812-0.34638-6.239-0.0174c0.0635-0.40245-0.0214-0.51522 0.0725-0.82587l6.136 5e-3z" fill="#2a7fff"/>
			<text x="328.96686" y="-137.64424" fill="#ffffff" font-family="'Open Sans'" font-size="1.5007px" letter-spacing="0px" stroke-width=".18759" text-align="center" text-anchor="middle" word-spacing="0px" style="font-feature-settings:normal;font-variant-caps:normal;font-variant-ligatures:normal;font-variant-numeric:normal;line-height:1.25" xml:space="preserve"><tspan x="328.96686" y="-137.64424">next</tspan><tspan x="328.96686" y="-135.76836">head</tspan><tspan x="328.96686" y="-133.89247">curr</tspan></text>
			<text x="319.6235" y="-135.72807" fill="#ffffff" font-family="'Open Sans'" font-size="1.5007px" letter-spacing="0px" stroke-width=".18759" text-align="center" word-spacing="0px" style="font-feature-settings:normal;font-variant-caps:normal;font-variant-ligatures:normal;font-variant-numeric:normal;line-height:1.25" xml:space="preserve"><tspan x="319.6235" y="-135.72807" text-align="start">ofs</tspan><tspan x="319.6235" y="-133.85219" text-align="start">alloc_size</tspan></text>
			<rect x="304.15" y="-131.34" width="27.572" height="28.913" fill="#ff8080" stroke="#666" stroke-linejoin="round" stroke-width=".28455"/>
		</g>
		<path d="m332.04-132.15-2.3876 2.1223-0.13264 35.947 2.7855 2.255" fill="none" stroke="#000" stroke-dasharray="0.56276491, 0.1875883" stroke-width=".18759"/>
		<path d="m322.75-133.34 6.8975 7.6934" fill="none" stroke="#000" stroke-dasharray="0.37517659, 0.1875883" stroke-width=".18759"/>
		<path d="m292.68-145.32 0.74171-1.5352 0.76078 1.4119-0.34638 0.0812 0.0259 2.071 28.542 0.041 2.225 2.8639 0.0875 2.9524 0.64641 0.65493 1.5316 2e-3 0.0488 0.76904-2.1195-0.0297-1.142-1.1761-0.0569-2.9726-2.1165-2.253c-0.40246-0.0635-28.205 0.0547-28.516-0.0391l5e-3 -2.8532z" fill="#2a7fff"/>
		<path d="m303.21-134.9 1.5352 0.74171-1.4119 0.76078-0.0812-0.34638-6.239-0.0174c0.0635-0.40245-0.0214-0.51522 0.0725-0.82587l6.136 5e-3z" fill="#2a7fff"/>
		<path d="m307.26-100.45 1.4591 0.0664 3.06-3.7843-9e-3 -23.607 7.6934-8.0582" fill="none" stroke="#000" stroke-dasharray="0.37517659, 0.1875883" stroke-width=".18759"/>
		<g>
			<path d="m305.59-100.91-1.5352 0.74171 1.4119 0.76078 0.0812-0.34638 2.127 0.01569c-0.0635-0.40245 0.0214-0.54838-0.0725-0.85903l-2.024 5e-3z"/>
			<g font-family="'Open Sans'" letter-spacing="0px" text-anchor="middle" word-spacing="0px">
				<text x="318.0058" y="-105.15496" fill="#ffffff" font-size="2.5582px" stroke-width=".31977" text-align="center" style="font-feature-settings:normal;font-variant-caps:normal;font-variant-ligatures:normal;font-variant-numeric:normal;line-height:1.25" xml:space="preserve"><tspan x="318.0058" y="-105.15496" fill="#ffffff" font-family="'Open Sans'" stroke-width=".31977">lwsac_use area</tspan></text>
				<text x="308.37949" y="-97.707207" fill="#000000" font-size="1.5007px" stroke-width=".18759" text-align="center" style="font-feature-settings:normal;font-variant-caps:normal;font-variant-ligatures:normal;font-variant-numeric:normal;line-height:1.25" xml:space="preserve"><tspan x="308.37949" y="-97.707207" font-family="'Open Sans'" stroke-width=".18759">ptr aligned</tspan></text>
				<text x="317.89719" y="-101.10705" fill="#000000" font-size="1.0364px" stroke-width=".12956" text-align="center" style="font-feature-settings:normal;font-variant-caps:normal;font-variant-ligatures:normal;font-variant-numeric:normal;line-height:1.25" xml:space="preserve"><tspan x="317.89719" y="-101.10705" font-family="'Open Sans'" stroke-width=".12956">alignment padding</tspan></text>
			</g>
			<path d="m302.48-132.08 1.5352 0.74171-1.4119 0.76078-0.0812-0.34638-2.127 0.0157c0.0635-0.40245-0.0214-0.54838 0.0725-0.85903l2.024 5e-3z"/>
			<g stroke-width=".18759">
				<rect x="204.83" y="-139.17" width="5.018" height="2.6731" ry="1.3366" fill="#808080" stroke="#666" stroke-linejoin="round"/>
				<text x="207.36176" y="-137.33116" fill="#ffffff" font-family="'Open Sans'" font-size="1.5007px" letter-spacing="0px" text-align="center" text-anchor="middle" word-spacing="0px" style="font-feature-settings:normal;font-variant-caps:normal;font-variant-ligatures:normal;font-variant-numeric:normal;line-height:1.25" xml:space="preserve"><tspan x="207.36176" y="-137.33116" fill="#ffffff" font-family="'Open Sans'" stroke-width=".18759">NULL</tspan></text>
				<rect x="253.14" y="-139.13" width="5.018" height="2.6731" ry="1.3366" fill="#808080" stroke="#666" stroke-linejoin="round"/>
				<text x="255.6705" y="-137.29219" fill="#ffffff" font-family="'Open Sans'" font-size="1.5007px" letter-spacing="0px" text-align="center" text-anchor="middle" word-spacing="0px" style="font-feature-settings:normal;font-variant-caps:normal;font-variant-ligatures:normal;font-variant-numeric:normal;line-height:1.25" xml:space="preserve"><tspan x="255.6705" y="-137.29219" fill="#ffffff" font-family="'Open Sans'" stroke-width=".18759">NULL</tspan></text>
				<rect x="336.04" y="-139.46" width="5.018" height="2.6731" ry="1.3366" fill="#808080" stroke="#666" stroke-linejoin="round"/>
				<text x="338.57361" y="-137.62383" fill="#ffffff" font-family="'Open Sans'" font-size="1.5007px" letter-spacing="0px" text-align="center" text-anchor="middle" word-spacing="0px" style="font-feature-settings:normal;font-variant-caps:normal;font-variant-ligatures:normal;font-variant-numeric:normal;line-height:1.25" xml:space="preserve"><tspan x="338.57361" y="-137.62383" fill="#ffffff" font-family="'Open Sans'" stroke-width=".18759">NULL</tspan></text>
			</g>
		</g>
		<g fill="#0000ff" font-family="'Open Sans'" font-size="3.2649px" letter-spacing="0px" stroke-width=".40811" text-anchor="middle" word-spacing="0px">
			<text x="187.11359" y="-84.657211" text-align="center" style="font-feature-settings:normal;font-variant-caps:normal;font-variant-ligatures:normal;font-variant-numeric:normal;line-height:1.25" xml:space="preserve"><tspan x="187.11359" y="-84.657211" fill="#0000ff" font-family="'Open Sans'" stroke-width=".40811">empty, generic lwsac</tspan></text>
			<text x="235.71112" y="-84.353561" text-align="center" style="font-feature-settings:normal;font-variant-caps:normal;font-variant-ligatures:normal;font-variant-numeric:normal;line-height:1.25" xml:space="preserve"><tspan x="235.71112" y="-84.353561" fill="#0000ff" font-family="'Open Sans'" stroke-width=".40811">lwsac with 2 "uses"</tspan></text>
			<text x="300.70877" y="-83.844711" text-align="center" style="font-feature-settings:normal;font-variant-caps:normal;font-variant-ligatures:normal;font-variant-numeric:normal;line-height:1.25" xml:space="preserve"><tspan x="300.70877" y="-83.844711" fill="#0000ff" font-family="'Open Sans'" stroke-width=".40811">lwsac with 2 "uses", 3rd requires a new one</tspan></text>
		</g>
	</g>
</svg>
